<?xml version="1.0" encoding="iso-8859-1"?>
<!-- Generator: Adobe Illustrator 16.0.0, SVG Export Plug-In . SVG Version: 6.00 Build 0)  -->
<!DOCTYPE svg PUBLIC "-//W3C//DTD SVG 1.1//EN" "http://www.w3.org/Graphics/SVG/1.1/DTD/svg11.dtd">
<svg version="1.1" xmlns="http://www.w3.org/2000/svg" xmlns:xlink="http://www.w3.org/1999/xlink" x="0px" y="0px" width="500px"
	 height="500px" viewBox="0 0 500 500" style="enable-background:new 0 0 500 500;" xml:space="preserve">
<g id="Background_Complete">
	<g>
		<g>
			<g>
				<g>
					<g>
						<circle style="fill:#F5F5F5;" cx="425.461" cy="207.843" r="27.677"/>
					</g>
				</g>
			</g>
			<g>
				<g>
					<g>
						
							<ellipse transform="matrix(-0.8708 -0.4917 0.4917 -0.8708 716.6428 607.5826)" style="fill:#E0E0E0;" cx="438.168" cy="209.612" rx="2.766" ry="3.651"/>
					</g>
				</g>
			</g>
			<g>
				<g>
					<g>
						
							<ellipse transform="matrix(-0.8708 -0.4916 0.4916 -0.8708 684.7616 576.5533)" style="fill:#E0E0E0;" cx="418.138" cy="198.301" rx="2.766" ry="3.651"/>
					</g>
				</g>
			</g>
		</g>
		<g>
			<g>
				<g>
					<path style="fill:#E0E0E0;" d="M416.724,209.099c2.307-2.78,6.514-3.793,9.789-2.175c3.261,1.611,5.1,5.522,4.289,9.062
						c-0.243,1.06-2.003,0.786-1.678-0.257c0.796-2.554-0.406-5.519-3.306-7.256c-2.494-1.495-5.945-0.512-7.786,1.707
						C417.336,211.019,416.025,209.942,416.724,209.099L416.724,209.099z"/>
				</g>
			</g>
		</g>
	</g>
	<g>
		<g>
			<g>
				<g>
					<g>
						<g>
							<path style="fill:#FFFFFF;" d="M155.294,48.206H68.162c-7.598,0-13.757,6.159-13.757,13.757v32.68
								c0,7.598,6.159,13.757,13.757,13.757h50.308c2.277,4.932,6.548,8.892,11.373,11.5c3.946,2.133,8.24,3.479,12.623,4.499
								c1.72,0.4,3.007-1.555,1.931-2.954c-2.929-3.806-4.933-8.324-5.849-13.044h16.746c7.598,0,13.757-6.159,13.757-13.757v-32.68
								C169.051,54.365,162.892,48.206,155.294,48.206z"/>
						</g>
					</g>
					<g>
						<g>
							<g>
								<path style="fill:#E0E0E0;" d="M155.294,48.206c0,0,0.146-0.002,0.433,0.008c0.286,0.024,0.719-0.003,1.278,0.082
									c1.12,0.118,2.795,0.468,4.75,1.465c1.923,1.015,4.119,2.783,5.682,5.57c0.759,1.395,1.339,3.031,1.575,4.838
									c0.122,0.901,0.137,1.848,0.135,2.804c0.001,0.961,0.003,1.949,0.005,2.965c0.002,8.125,0.056,17.969,0.012,29.255
									c-0.03,1.424-0.325,2.862-0.832,4.238c-0.509,1.373-1.214,2.713-2.176,3.883c-1.894,2.343-4.609,4.196-7.742,4.881
									c-1.557,0.37-3.195,0.38-4.802,0.367c-1.618,0.001-3.254,0.002-4.91,0.004c-3.312,0.002-6.698,0.004-10.154,0.006
									l0.168-0.204c0.71,3.641,2.093,7.26,4.158,10.568c0.518,0.827,1.077,1.63,1.676,2.417c0.324,0.429,0.484,1,0.393,1.542
									c-0.094,0.539-0.396,1.039-0.848,1.355c-0.44,0.333-1.032,0.442-1.568,0.342c-0.51-0.104-0.989-0.229-1.485-0.351
									c-0.985-0.247-1.97-0.514-2.953-0.808c-3.923-1.174-7.853-2.786-11.356-5.238c-3.481-2.44-6.568-5.702-8.435-9.715
									l0.173,0.111c-11.583,0.001-23.584,0.002-35.876,0.004c-3.063,0-6.108,0-9.133,0c-1.512,0-3.02,0-4.522,0
									c-0.747,0.014-1.512-0.033-2.268-0.082l-1.124-0.172c-0.375-0.056-0.736-0.177-1.104-0.263
									c-1.456-0.407-2.84-1.043-4.092-1.875c-1.237-0.852-2.332-1.894-3.242-3.071c-0.917-1.172-1.636-2.495-2.107-3.895
									c-0.469-1.396-0.771-2.856-0.775-4.322c0.005-11.555,0.011-22.701,0.016-33.319c0.005-1.348,0.291-2.668,0.668-3.936
									c0.409-1.266,1.021-2.444,1.736-3.54c0.751-1.074,1.636-2.037,2.619-2.876c1.012-0.799,2.092-1.507,3.263-2.014
									c1.17-0.491,2.384-0.888,3.632-1.035c1.244-0.195,2.491-0.154,3.703-0.157c2.439,0.001,4.84,0.003,7.2,0.005
									c9.44,0.009,18.233,0.017,26.262,0.024c16.051,0.026,29.04,0.047,38.026,0.062c4.484,0.016,7.967,0.028,10.338,0.037
									c1.176,0.009,2.075,0.015,2.688,0.02C154.984,48.192,155.294,48.206,155.294,48.206s-0.31,0.013-0.916,0.02
									c-0.613,0.005-1.512,0.011-2.688,0.02c-2.371,0.009-5.854,0.021-10.338,0.037c-8.986,0.015-21.975,0.036-38.026,0.062
									c-8.028,0.007-16.822,0.016-26.262,0.024c-2.36,0.001-4.76,0.003-7.2,0.005c-1.223,0.004-2.448-0.033-3.654,0.159
									c-1.217,0.145-2.4,0.534-3.542,1.013c-1.141,0.495-2.193,1.188-3.18,1.968c-0.957,0.82-1.818,1.759-2.55,2.807
									c-0.695,1.069-1.291,2.218-1.688,3.451c-0.365,1.236-0.644,2.522-0.647,3.835c0.002,10.612,0.004,21.753,0.006,33.302
									c0.004,1.427,0.3,2.846,0.756,4.203c0.458,1.361,1.157,2.647,2.05,3.786c0.886,1.144,1.95,2.158,3.153,2.986
									c1.217,0.808,2.563,1.425,3.978,1.821c0.357,0.083,0.708,0.202,1.073,0.256l1.093,0.167c0.737,0.046,1.47,0.093,2.226,0.079
									c1.502,0,3.01,0,4.522,0c3.025,0,6.07,0,9.133,0c12.292,0.001,24.293,0.003,35.876,0.004h0.122l0.052,0.111
									c1.829,3.937,4.867,7.155,8.304,9.567c3.456,2.422,7.348,4.024,11.246,5.194c0.977,0.293,1.957,0.56,2.936,0.807
									c0.487,0.12,0.987,0.249,1.463,0.347c0.449,0.083,0.928-0.003,1.292-0.279c0.374-0.259,0.625-0.677,0.703-1.119
									c0.074-0.445-0.053-0.905-0.323-1.268c-0.601-0.792-1.169-1.609-1.691-2.445c-2.086-3.349-3.479-7.009-4.193-10.691
									l-0.04-0.205l0.208,0c3.457,0.002,6.843,0.004,10.154,0.006c1.656,0.001,3.292,0.002,4.91,0.003
									c1.623,0.016,3.207,0.006,4.731-0.352c3.063-0.664,5.721-2.471,7.579-4.76c0.944-1.143,1.635-2.454,2.137-3.796
									c0.5-1.346,0.791-2.754,0.823-4.149c0.026-11.272,0.049-21.121,0.067-29.244c-0.026-2.027,0.089-3.964-0.117-5.746
									c-0.225-1.785-0.79-3.403-1.534-4.786c-1.532-2.763-3.694-4.529-5.595-5.551c-1.932-1.004-3.594-1.37-4.707-1.505
									c-0.556-0.094-0.987-0.076-1.271-0.108C155.44,48.222,155.294,48.206,155.294,48.206z"/>
							</g>
						</g>
					</g>
				</g>
			</g>
		</g>
		<g>
			<g>
				<circle style="fill:#E0E0E0;" cx="74.168" cy="77.006" r="8.094"/>
			</g>
		</g>
		<g>
			<g>
				<rect x="87.888" y="68.972" style="fill:#E0E0E0;" width="64.023" height="3.763"/>
			</g>
		</g>
		<g>
			<g>
				<rect x="87.888" y="77.964" style="fill:#E0E0E0;" width="64.023" height="3.763"/>
			</g>
		</g>
		<g>
			<g>
				<rect x="87.888" y="86.958" style="fill:#E0E0E0;" width="25.835" height="3.763"/>
			</g>
		</g>
	</g>
	<g>
		<circle style="fill:#E0E0E0;" cx="102.204" cy="362.796" r="34.328"/>
		<g>
			<g>
				<g>
					<g>
						<path style="fill:#FFFFFF;" d="M114.402,349.916c-4.729-3.959-9.607-2.952-12.231-0.601c-2.852,2.555-3.245,6.659-3.245,6.659
							s-3.076-2.746-6.904-2.687c-3.523,0.055-7.788,2.627-8.572,8.745c-1.638,12.77,24.952,18.148,24.952,18.148
							S124.273,358.179,114.402,349.916z"/>
					</g>
				</g>
			</g>
		</g>
	</g>
	<g>
		<g>
			<g>
				<path style="fill:#E0E0E0;" d="M115.794,146.778l6.951,31.267c0.37,1.665-0.68,3.315-2.345,3.685l-12.124,2.695
					c-1.665,0.371-3.315-0.679-3.685-2.344l-6.951-31.267c-0.37-1.665,0.68-3.315,2.345-3.686l12.124-2.695
					C113.774,144.063,115.424,145.113,115.794,146.778z"/>
			</g>
		</g>
		<g>
			<g>
				<g>
					<g>
						<path style="fill:#E0E0E0;" d="M102.204,184.575l-7.409-33.331c0,0-7.656,0.206-16.412-8.315
							c-5.794-5.639-8.931-10.537-10.407-13.25c-0.902-1.658-2.864-2.479-4.647-1.859c-1.689,0.587-3.625,1.732-4.219,4.742
							c-1.102,5.582,5.051,17.17,5.051,17.17s1.914,2.175-1.556,2.946l-12.375,2.751c-1.604,0.356-3.066,1.235-4.051,2.551
							c-0.865,1.156-1.459,2.753-0.838,4.777c1.418,4.626,4.365,6.182,4.585,7.173c0.221,0.991-0.757,3.029,0.868,5.659
							c1.625,2.629,2.189,2.244,2.492,3.607c0.303,1.363,1.322,4.777,2.658,6.691s2.547,2.685,2.547,2.685s0.62,4.543,2.438,6.87
							c1.818,2.327,7.325,2.533,9.06,2.147s13.575-5.618,16.852-7.257C90.116,188.693,98.5,183.708,102.204,184.575z"/>
					</g>
				</g>
			</g>
		</g>
		<circle style="fill:#FFFFFF;" cx="108.158" cy="156.21" r="3.546"/>
	</g>
</g>
<g id="Background_Simple" style="display:none;">
	<path style="display:inline;fill:#F5F5F5;" d="M81.896,128.871l1.542-3.56c12.996-30.009,41.087-50.886,73.404-53.269
		c4.154-0.306,8.332-0.313,12.497-0.003c29.987,2.227,58.365,20.768,72.753,47.534c8.461,15.741,12.817,34.607,26.354,46.164
		c17.618,15.04,43.6,12.013,66.28,8.169c22.68-3.844,48.688-6.806,66.241,8.312c10.993,9.468,16.124,24.377,17.344,38.915
		c3.227,38.489-18.697,76.318-50.221,97.958c-31.524,21.642-71.182,28.648-109.268,26.277
		c-53.354-3.322-106.679-25.268-142.462-65.573C80.576,239.489,64.745,180.048,81.896,128.871z"/>
</g>
<g id="Floor">
	<g>
		<path style="fill:#263238;" d="M486.373,464.698c0,0.144-105.836,0.26-236.361,0.26c-130.571,0-236.384-0.116-236.384-0.26
			s105.813-0.261,236.384-0.261C380.537,464.437,486.373,464.554,486.373,464.698z"/>
	</g>
</g>
<g id="Speech_Bubble_1">
	<g>
		<g>
			<g>
				<g>
					<g>
						<g>
							<g>
								<g>
									<path style="fill:#FFFFFF;" d="M335.159,115.2l10.612-1.693c6.921,4.251,15.2,6.505,24.036,5.946
										c20.842-1.319,37.568-18.608,38.239-39.481c0.775-24.118-19.32-43.733-43.581-42.181
										c-20.597,1.317-37.196,18.21-38.182,38.825c-0.489,10.23,2.79,19.674,8.555,27.089l-0.019-0.014L335.159,115.2z"/>
									<g>
										<path style="fill:#263238;" d="M335.159,115.2c0,0-0.025-0.231-0.051-0.718c-0.024-0.525-0.058-1.251-0.101-2.187
											c-0.08-1.993-0.196-4.877-0.346-8.599c-0.004-0.087,0.063-0.16,0.15-0.164c0.038-0.001,0.075,0.012,0.103,0.033
											c0,0,0.013,0.009,0.019,0.014l-0.221,0.223c-3.134-4-6.682-10.021-8.107-18.05c-0.724-3.992-0.854-8.429-0.228-13.085
											c0.665-4.647,2.213-9.486,4.771-14.09c2.575-4.588,6.185-8.911,10.719-12.46c4.525-3.533,9.97-6.367,16.017-7.701
											c6.021-1.38,12.549-1.41,18.905,0.072c6.373,1.442,12.473,4.642,17.576,9.127c2.645,2.209,4.811,4.877,6.805,7.59
											c0.896,1.426,1.813,2.84,2.585,4.315l1.072,2.255l0.526,1.125l0.414,1.168c2.324,6.182,3.033,12.741,2.408,18.942
											c-0.595,6.227-2.81,12.02-5.818,16.966c-3.032,4.954-6.958,9.059-11.259,12.154c-4.316,3.083-8.982,5.173-13.549,6.361
											c-1.155,0.242-2.29,0.48-3.407,0.714c-1.12,0.208-2.244,0.269-3.335,0.406c-2.188,0.239-4.314,0.205-6.34,0.081
											c-8.15-0.548-14.508-3.408-18.776-6.056l0.104,0.021c-3.424,0.506-6.089,0.901-7.938,1.175
											c-0.865,0.122-1.538,0.218-2.029,0.287C335.376,115.184,335.15,115.211,335.159,115.2c0,0,0.252-0.059,0.719-0.144
											c0.497-0.087,1.179-0.208,2.055-0.364c1.82-0.312,4.444-0.76,7.814-1.337c0.036-0.006,0.075,0.003,0.105,0.021
											c4.273,2.57,10.592,5.337,18.647,5.821c2.002,0.108,4.104,0.128,6.261-0.122c1.075-0.143,2.183-0.209,3.287-0.42
											c1.099-0.237,2.218-0.478,3.354-0.723c4.494-1.195,9.08-3.275,13.318-6.327c4.222-3.064,8.069-7.117,11.036-11.996
											c2.944-4.871,5.107-10.565,5.679-16.679c0.601-6.089-0.104-12.528-2.39-18.591l-0.405-1.146l-0.519-1.103l-1.053-2.212
											c-0.76-1.447-1.661-2.833-2.539-4.232c-1.96-2.661-4.083-5.279-6.68-7.446c-5.007-4.401-10.988-7.543-17.241-8.963
											c-6.234-1.459-12.647-1.439-18.557-0.095c-5.939,1.296-11.292,4.068-15.752,7.53c-4.467,3.477-8.033,7.717-10.585,12.223
											c-2.535,4.522-4.081,9.279-4.761,13.856c-0.642,4.586-0.54,8.967,0.147,12.914c1.352,7.94,4.803,13.932,7.861,17.943
											c0.054,0.068,0.042,0.167-0.026,0.222c-0.058,0.045-0.139,0.042-0.194,0.001c-0.007-0.005-0.019-0.014-0.019-0.014
											l0.253-0.13c0.068,3.682,0.122,6.535,0.158,8.506c0.013,0.953,0.022,1.692,0.029,2.228
											C335.168,114.926,335.159,115.2,335.159,115.2z"/>
									</g>
								</g>
							</g>
						</g>
					</g>
				</g>
			</g>
		</g>
		<circle style="fill:#263238;" cx="350.173" cy="78.617" r="5.208"/>
		<circle style="fill:#263238;" cx="367.699" cy="78.617" r="5.208"/>
		<circle style="fill:#263238;" cx="385.227" cy="78.617" r="5.208"/>
	</g>
</g>
<g id="Character_00000116955273755531171410000011914633895883530656_">
	<g>
		<g>
			<ellipse style="fill:#455A64;" cx="298.053" cy="162.678" rx="22.103" ry="28.486"/>
			<g>
				<g>
					<g>
						<polygon style="fill:#AE7461;" points="107.706,359.604 156.608,381.749 140.029,464.698 88.566,464.698 						"/>
					</g>
					<g>
						<g>
							<g>
								<path style="fill:#263238;" d="M296.886,126.944c6.484,0.915,13.331-3.192,15.578-9.343
									c0.677-1.852,0.961-3.923,0.334-5.792s-2.318-3.457-4.288-3.543c2.629-1.807,4.618-4.628,5.108-7.78
									s-0.644-6.584-3.124-8.588c-2.482-2.004-6.279-2.336-8.916-0.541c0.063-3.445-2.045-6.836-5.162-8.306l-14.04,3.238
									L296.886,126.944z"/>
							</g>
							<g>
								<path style="fill:#AE7461;" d="M275.593,273.306l0.184-40.814c0,0,29.369-4.808,29.496-34.21
									c0.061-14.201-2.192-43.452-4.539-69.901c-2.521-28.438-26.462-50.166-55.01-49.937l-2.836,0.023
									c-30.573,2.032-45.927,29.132-43.05,59.638l7.341,122.987l40.199,22.455L275.593,273.306z"/>
							</g>
							<g>
								<path style="fill:#6F4439;" d="M275.777,232.492c0,0-18.52,1.707-38.402-7.839c0,0,9.055,18.229,38.368,15.345
									L275.777,232.492z"/>
							</g>
							<g>
								<path style="fill:#263238;" d="M266.793,177.389c-0.023-0.257,2.781-0.766,7.326-1.384c1.152-0.127,2.243-0.366,2.431-1.156
									c0.266-0.835-0.228-2.075-0.797-3.413c-1.106-2.782-2.266-5.7-3.482-8.757c-4.839-12.469-8.35-22.726-7.847-22.917
									c0.505-0.19,4.836,9.762,9.673,22.231c1.165,3.075,2.279,6.007,3.34,8.812c0.446,1.308,1.209,2.789,0.634,4.523
									c-0.303,0.865-1.146,1.498-1.883,1.702c-0.738,0.232-1.387,0.25-1.957,0.288
									C269.653,177.601,266.812,177.644,266.793,177.389z"/>
							</g>
							<g>
								<path style="fill:#263238;" d="M247.622,158.401c0.097,2.216-1.702,4.125-4.014,4.268c-2.309,0.143-4.262-1.534-4.358-3.751
									c-0.096-2.215,1.703-4.127,4.011-4.27C245.573,154.505,247.526,156.185,247.622,158.401z"/>
							</g>
							<g>
								<path style="fill:#263238;" d="M250.128,144.014c-0.517,0.552-3.72-1.775-8.235-1.728c-4.513-0.017-7.81,2.334-8.305,1.785
									c-0.242-0.243,0.274-1.235,1.716-2.298c1.413-1.059,3.828-2.095,6.642-2.106c2.814-0.008,5.19,1.01,6.56,2.059
									C249.9,142.781,250.381,143.768,250.128,144.014z"/>
							</g>
							<g>
								<path style="fill:#263238;" d="M247.024,183.861c0.716-0.245,2.45,3.315,6.458,5.394c3.976,2.135,7.99,1.608,8.17,2.326
									c0.1,0.328-0.823,0.961-2.595,1.222c-1.744,0.271-4.363,0.052-6.854-1.261c-2.487-1.315-4.107-3.329-4.823-4.899
									C246.646,185.057,246.686,183.96,247.024,183.861z"/>
							</g>
							<g>
								<path style="fill:#263238;" d="M251.115,124.812c-0.511,1.202-4.985,0.377-10.312,0.729
									c-5.335,0.244-9.687,1.562-10.33,0.424c-0.285-0.544,0.522-1.657,2.313-2.751c1.774-1.092,4.565-2.072,7.761-2.253
									c3.196-0.175,6.078,0.486,7.963,1.375C250.412,123.223,251.338,124.24,251.115,124.812z"/>
							</g>
							<g>
								<path style="fill:#263238;" d="M287.623,158.401c0.097,2.216-1.701,4.125-4.015,4.268c-2.309,0.142-4.262-1.534-4.358-3.75
									c-0.095-2.216,1.701-4.128,4.01-4.271C285.573,154.505,287.526,156.185,287.623,158.401z"/>
							</g>
							<g>
								<path style="fill:#263238;" d="M294.53,142.815c-0.516,0.552-3.715-1.777-8.233-1.729c-4.514-0.017-7.811,2.334-8.304,1.786
									c-0.244-0.243,0.278-1.236,1.713-2.298c1.413-1.059,3.829-2.096,6.645-2.106c2.813-0.007,5.189,1.01,6.559,2.06
									C294.306,141.582,294.785,142.568,294.53,142.815z"/>
							</g>
							<g>
								<path style="fill:#263238;" d="M292.303,130.488c-1.026,0.877-4.251-0.711-8.322-1.403
									c-4.047-0.822-7.639-0.507-8.266-1.693c-0.267-0.569,0.436-1.5,2.097-2.221c1.638-0.722,4.249-1.11,7.038-0.591
									c2.789,0.522,5.073,1.824,6.328,3.086C292.454,128.936,292.762,130.054,292.303,130.488z"/>
							</g>
							<g>
								<path style="fill:#AE7461;" d="M204.792,166.681c-0.222-4.536-4.161-8.087-8.678-7.621
									c-5.479,0.565-11.555,3.728-11.103,15.055c0.803,20.094,20.812,15.143,20.823,14.566
									C205.842,188.288,205.202,175.087,204.792,166.681z"/>
							</g>
							<g>
								<path style="fill:#6F4439;" d="M201.16,181.295c-0.091-0.061-0.341,0.259-0.921,0.554c-0.566,0.286-1.551,0.508-2.615,0.158
									c-2.154-0.694-4.076-3.993-4.318-7.611c-0.124-1.826,0.19-3.583,0.78-5.051c0.555-1.495,1.464-2.559,2.525-2.792
									c1.054-0.289,1.835,0.321,2.104,0.876c0.292,0.551,0.181,0.957,0.288,0.988c0.058,0.048,0.418-0.355,0.223-1.178
									c-0.099-0.396-0.354-0.86-0.841-1.227c-0.498-0.374-1.215-0.545-1.956-0.435c-1.545,0.169-2.883,1.651-3.532,3.262
									c-0.734,1.622-1.13,3.597-0.99,5.649c0.291,4.044,2.515,7.75,5.454,8.474c1.428,0.313,2.589-0.161,3.18-0.659
									C201.144,181.782,201.231,181.328,201.16,181.295z"/>
							</g>
							<g>
								<path style="fill:#FF725E;" d="M270.256,111.434c0.049-0.001,0.093,0.015,0.143,0.017c0.12,0.007,0.241,0.007,0.361,0.019
									L270.256,111.434z"/>
							</g>
							<g>
								<path style="fill:#263238;" d="M181.935,131.006c0.346-1.795,1.509-3.345,3.031-4.346c-0.968-1.032-1.723-2.259-2.133-3.616
									c-1.152-3.815,0.422-8.29,3.708-10.544c-3.539-3.306-5.057-8.62-3.799-13.295c1.258-4.676,5.238-8.511,9.957-9.596
									c-0.34-6.042,2.75-12.16,7.815-15.472s11.91-3.688,17.308-0.953c4.003-9.621,17.104-14.111,26.167-8.967
									c5.917-4.295,12.257-8.751,19.551-9.257c7.293-0.506,15.488,4.781,15.225,12.087c5.204-1.454,10.756-2.178,16.004-0.896
									c5.249,1.281,10.147,4.839,11.992,9.917c1.844,5.078-0.084,11.554-4.912,13.977c4.599,4.671,4.815,12.954,0.467,17.858
									c-1.262,1.422-2.856,2.486-4.604,3.198c0.106,1.249,0.145,2.519,0.086,3.818c0,0-0.566-1.312-1.559-3.305
									c-3.958,1.109-8.441,0.488-11.71-2.037c-3.636,4.027-9.684,5.682-14.863,4.067c-5.18-1.615-9.216-6.415-9.917-11.794
									c-2.854,2.773-7.125,4.001-11.015,3.168c-3.89-0.833-7.283-3.703-8.751-7.4c-4.275,4.942-11.662,6.921-17.836,4.777
									c-0.065,3.913-2.021,7.557-4.921,10.161c0.276,3.351,0.847,7.156,0.628,11.886c-2.445,52.909-11.983,67.943-14.93,43.054
									c-0.314-2.652-7.486-4.747-8.998-15.458c-1.131-0.178-2.238-0.488-3.271-0.984c-2.188-1.05-4.028-2.933-4.739-5.253
									c-0.71-2.32-0.163-5.055,1.599-6.725C183.925,138.459,181.245,134.583,181.935,131.006z"/>
							</g>
							<g>
								<path style="fill:#455A64;" d="M221.252,105.786c0.072,0.016,0.054,0.627-0.318,1.674c-0.375,1.033-1.155,2.518-2.683,3.892
									c-1.496,1.358-3.849,2.605-6.689,2.595c-2.785,0.016-5.972-1.153-8.172-3.736l1.16-0.08
									c-0.938,1.49-2.248,2.815-3.812,3.811c-3.344,2.112-7.414,2.571-10.677,1.483c-3.313-1.063-5.535-3.471-6.771-5.653
									c-1.254-2.227-1.567-4.319-1.579-5.71c0.014-1.407,0.27-2.149,0.344-2.136c0.296-0.045-0.406,3.233,2.122,7.315
									c1.249,1.952,3.353,4.039,6.286,4.898c2.888,0.896,6.519,0.448,9.493-1.432c1.39-0.885,2.543-2.046,3.377-3.336l0.537-0.83
									l0.624,0.75c1.852,2.228,4.631,3.338,7.085,3.397c2.487,0.091,4.614-0.901,6.07-2.054
									C220.605,108.227,221.021,105.665,221.252,105.786z"/>
							</g>
						</g>
						<g>
							<path style="fill:#FFC801;" d="M343.112,376.758c0-19.451-9.75-118.898-9.75-118.898l-56.318-8.79l-0.25,0.344
								c-18.449,25.439-52.753,24.29-70.413-1.703l-48.391,7.171l-8.38,107.689l1.06,72.016l1.551,30.11h188.992
								C341.107,457.891,343.112,389.361,343.112,376.758z"/>
						</g>
						<g>
							<g>
								<path style="fill:#FFC801;" d="M103.367,362.278l53.099,26.435l6.279-30.016l-1.665-103.992c0,0-28.024-1.108-39.731,36.468
									C109.091,330.517,103.367,362.278,103.367,362.278z"/>
							</g>
						</g>
						<g>
							<g>
								<path style="fill:#FFC801;" d="M399.067,367.028l-50.778,33.109l-14.05-25.179l-12.36-118.891
									c0,0,27.173-4.688,47.028,37.575C388.762,335.908,399.067,367.028,399.067,367.028z"/>
							</g>
							<g>
								<g>
									<path style="fill:#FFC801;" d="M346.138,293.643c0.011,0.002,0.013,0.102,0.005,0.295
										c-0.013,0.232-0.028,0.514-0.047,0.859c-0.061,0.807-0.143,1.906-0.246,3.295c-0.22,2.918-0.53,7.043-0.913,12.115
										c-0.728,10.232-1.53,24.384-1.91,40.029c-0.371,15.651-0.249,29.826-0.013,40.082c0.139,5.085,0.251,9.219,0.331,12.145
										c0.036,1.392,0.065,2.494,0.087,3.303c0.002,0.346,0.005,0.628,0.006,0.859c-0.002,0.194-0.008,0.294-0.02,0.294
										c-0.011,0.001-0.026-0.098-0.046-0.29c-0.019-0.231-0.042-0.513-0.07-0.857c-0.05-0.808-0.119-1.908-0.207-3.298
										c-0.174-2.865-0.36-7.014-0.534-12.144c-0.354-10.258-0.548-24.444-0.177-40.109c0.381-15.659,1.256-29.818,2.101-40.048
										c0.42-5.115,0.806-9.251,1.116-12.104c0.154-1.385,0.276-2.48,0.366-3.285c0.044-0.343,0.081-0.623,0.111-0.853
										C346.107,293.74,346.127,293.642,346.138,293.643z"/>
								</g>
							</g>
						</g>
						<g>
							<g>
								<path style="fill:#263238;" d="M281.93,372.831c0.026,0.013-0.1,0.311-0.364,0.864c-0.314,0.635-0.71,1.431-1.193,2.407
									c-1.016,2.103-2.674,5.045-4.763,8.661c-4.291,7.142-10.828,16.767-19.765,25.897c-8.869,9.204-18.392,15.943-25.594,20.145
									c-0.898,0.524-1.756,1.025-2.572,1.502c-0.827,0.438-1.61,0.854-2.348,1.245c-1.461,0.784-2.73,1.437-3.796,1.915
									c-0.99,0.455-1.797,0.827-2.441,1.123c-0.562,0.248-0.862,0.365-0.875,0.339s0.264-0.196,0.801-0.493
									c0.624-0.334,1.407-0.752,2.366-1.265c1.04-0.522,2.283-1.217,3.718-2.038c0.725-0.407,1.494-0.84,2.307-1.297
									c0.802-0.49,1.646-1.007,2.53-1.548c7.091-4.315,16.484-11.08,25.294-20.222c8.877-9.069,15.452-18.58,19.861-25.618
									c2.146-3.563,3.881-6.452,4.984-8.504c0.54-0.944,0.981-1.715,1.333-2.328C281.727,373.088,281.904,372.817,281.93,372.831z
									"/>
							</g>
						</g>
					</g>
					<g>
						<g>
							<path style="fill:#263238;" d="M148.783,314.164c-0.241,0.005-0.066,19.407,0.391,43.332
								c0.457,23.933,1.022,43.323,1.263,43.319c0.241-0.005,0.065-19.404-0.391-43.336
								C149.589,333.554,149.023,314.159,148.783,314.164z"/>
						</g>
					</g>
					<g style="opacity:0.3;">
						<polygon points="149.245,341.143 139.947,380.413 150.093,385.597 						"/>
					</g>
					<g style="opacity:0.3;">
						<g>
							<path d="M207.751,411.496c1.28-0.909,2.834-1.325,4.344-1.757c14.753-4.22,28.602-11.569,40.378-21.406
								c1.18-0.985,2.977-0.375,3.269,1.134c0.003,0.011,0.005,0.022,0.007,0.034l-0.121-0.048
								c-9.195,9.183-19.372,17.381-30.302,24.409c-4.304,2.767-9.053,5.441-14.165,5.221c-2.351-0.102-5.066-1.265-5.419-3.591
								C205.505,413.939,206.471,412.406,207.751,411.496z"/>
						</g>
					</g>
				</g>
				<path style="fill:#AE7461;" d="M312.353,219.557c0,0,3.201,36.811,8.002,48.415c4.802,11.604,18.405,16.805,18.405,16.805
					s3.17,133.579,11.573,146.383c8.402,12.804,33.808,30.419,41.721,20.025c22.924-30.112,10.325-67.578,10.325-67.578
					l-30.809-100.83c0,0,5.602-33.21,8.402-41.613c2.801-8.402,12.004-32.009,10.403-34.41s-4.401-3.201-6.002,0
					c-1.601,3.201-11.604,21.606-11.604,21.606s10.003-34.01,7.603-40.412c-2.401-6.402-8.803-2.801-9.203,0
					s-10.003,33.21-10.003,33.21s4.401-44.813,2.001-46.414c-2.401-1.6-9.604,1.201-10.403,8.002
					c-0.801,6.802-4.001,37.611-4.001,37.611s0.399-37.211-3.602-38.812s-7.202,7.202-7.603,11.203
					c-0.399,4.001-3.2,40.412-3.2,40.412l-5.202,10.003c0,0-3.201-3.601-3.601-11.603
					C325.157,223.558,314.353,207.553,312.353,219.557z"/>
				<g>
					<path style="fill:#263238;" d="M372.123,229.681c-0.057,0.068-1.363-1.01-3.606-2.562c-2.24-1.553-5.463-3.522-9.25-5.239
						c-3.793-1.708-7.4-2.826-10.046-3.481c-2.646-0.659-4.319-0.926-4.306-1.014c0.005-0.036,0.428,0,1.189,0.095
						c0.762,0.087,1.857,0.275,3.199,0.561c2.686,0.567,6.348,1.64,10.177,3.366c3.824,1.733,7.05,3.773,9.25,5.413
						c1.102,0.818,1.966,1.517,2.536,2.031C371.84,229.359,372.146,229.653,372.123,229.681z"/>
				</g>
				<g>
					<path style="fill:#263238;" d="M342.721,257.831c-0.079,0.033-0.549-1.044-1.464-2.695c-0.912-1.651-2.322-3.853-4.196-6.033
						c-1.882-2.176-3.852-3.895-5.351-5.039c-1.499-1.147-2.495-1.771-2.451-1.845c0.019-0.031,0.285,0.095,0.754,0.349
						c0.473,0.249,1.129,0.656,1.914,1.198c1.572,1.081,3.616,2.785,5.527,4.997c1.906,2.215,3.291,4.488,4.129,6.201
						c0.421,0.857,0.727,1.566,0.904,2.07C342.67,257.535,342.754,257.817,342.721,257.831z"/>
				</g>
			</g>
			<ellipse style="fill:#455A64;" cx="188.415" cy="166.954" rx="22.103" ry="28.487"/>
			<path style="fill:#455A64;" d="M179.712,156.653c0,0-24.333-61.87,16.34-78.21l-0.642,8.528c0,0-25.505,7.274-4.755,64.083
				L179.712,156.653z"/>
			<g>
				<path style="fill:#263238;" d="M186.64,139.241c0.017-0.005,0.087,0.176,0.204,0.525c0.128,0.406,0.29,0.914,0.486,1.536
					c0.421,1.41,0.995,3.331,1.694,5.673c0.349,1.208,0.729,2.523,1.136,3.931c0.384,1.422,0.758,2.969,0.888,4.644
					c0.13,1.668-0.004,3.478-0.67,5.208c-0.644,1.721-1.948,3.348-3.776,4.16c-0.901,0.412-1.891,0.621-2.867,0.563
					c-0.978-0.056-1.917-0.408-2.684-0.945c-1.551-1.085-2.473-2.736-2.979-4.326c-0.517-1.606-0.714-3.183-0.941-4.63
					c-0.219-1.448-0.423-2.8-0.61-4.043c-0.35-2.42-0.637-4.404-0.848-5.859c-0.083-0.646-0.15-1.175-0.204-1.598
					c-0.041-0.366-0.054-0.56-0.036-0.563c0.018-0.002,0.065,0.186,0.14,0.546c0.08,0.418,0.179,0.941,0.301,1.582
					c0.251,1.45,0.594,3.425,1.011,5.833c0.207,1.24,0.432,2.589,0.673,4.033c0.246,1.448,0.46,3.005,0.971,4.547
					c0.499,1.529,1.386,3.066,2.813,4.056c1.403,1.019,3.386,1.123,5.046,0.329c1.69-0.752,2.896-2.242,3.516-3.871
					c0.637-1.634,0.781-3.372,0.667-4.988c-0.265-3.254-1.293-6.091-1.9-8.509c-0.634-2.361-1.154-4.297-1.535-5.718
					c-0.159-0.632-0.288-1.149-0.392-1.562C186.659,139.436,186.623,139.246,186.64,139.241z"/>
			</g>
			<g>
				<path style="fill:#263238;" d="M191.994,190.129c-0.016-0.055,0.808-0.217,2.142-0.877c1.323-0.658,3.139-1.903,4.771-4.001
					c1.652-2.075,2.993-5.008,3.752-8.44c0.392-1.713,0.658-3.545,0.854-5.455c0.193-1.91,0.328-3.894,0.314-5.924
					c-0.009-4.057-0.678-7.937-2.113-11.138c-1.401-3.216-3.622-5.613-5.757-7.156c-2.161-1.549-4.262-2.204-5.717-2.458
					c-1.468-0.234-2.303-0.161-2.304-0.225c0-0.018,0.206-0.036,0.602-0.054c0.396-0.033,0.982-0.002,1.732,0.078
					c1.488,0.195,3.66,0.809,5.898,2.357c2.213,1.54,4.519,3.969,5.983,7.261c1.494,3.266,2.188,7.224,2.196,11.33
					c0.013,2.056-0.126,4.059-0.328,5.981c-0.204,1.922-0.482,3.774-0.894,5.51c-0.795,3.476-2.204,6.469-3.932,8.561
					c-1.706,2.117-3.599,3.342-4.971,3.955c-0.69,0.307-1.25,0.484-1.634,0.582C192.202,190.108,191.999,190.146,191.994,190.129z"
					/>
			</g>
		</g>
		<g>
			<path style="fill:#455A64;" d="M296.555,291.21c-0.076,0.024-0.477-1.059-1.185-2.78c-0.707-1.722-1.749-4.072-3.081-6.576
				c-1.337-2.503-2.707-4.679-3.742-6.225c-1.035-1.547-1.711-2.484-1.648-2.533c0.051-0.04,0.83,0.818,1.949,2.321
				c1.119,1.501,2.552,3.666,3.9,6.192c1.345,2.526,2.343,4.923,2.966,6.688C296.338,290.065,296.617,291.191,296.555,291.21z"/>
		</g>
	</g>
</g>
<g id="Microphone">
	<g>
		<polygon style="fill:#E0E0E0;" points="246.027,309.316 229.657,348.031 233.653,348.988 249.783,310.651 		"/>
		<path style="fill:#455A64;" d="M65.095,249.458l169.974,100.365l-3.238,8.499c0,0-169.569-100.365-169.569-101.579
			S65.095,249.458,65.095,249.458z"/>
		<g>
			<path style="fill:#263238;" d="M267.082,354.426L267.082,354.426c-7.63-2.886-11.477-11.411-8.591-19.042l20.042-52.994
				c2.886-7.631,11.41-11.478,19.041-8.592l0,0c7.631,2.886,11.478,11.411,8.592,19.042l-20.042,52.994
				C283.238,353.465,274.712,357.312,267.082,354.426z"/>
			
				<rect x="254.202" y="313.668" transform="matrix(0.9354 0.3537 -0.3537 0.9354 130.336 -78.7133)" style="fill:#455A64;" width="52.611" height="7.083"/>
		</g>
		<path style="fill:#263238;" d="M263.727,344.976c-0.39,0.585-10.129,30.971-10.129,30.971l10.907,3.311l11.369-28.914
			L263.727,344.976z"/>
		<path style="fill:#263238;" d="M255.294,374.877c0,0-3.351,11.956-0.486,14.099c2.865,2.143,8.083-9.424,8.277-11.177
			S255.294,374.877,255.294,374.877z"/>
		<g>
			<path style="fill:#263238;" d="M256.062,381.559c0.009,0.001,0.009,0.1,0,0.291c-0.014,0.222-0.031,0.501-0.054,0.851
				c-0.036,0.75-0.161,1.848-0.336,3.262c-0.394,2.816-1.181,6.892-2.898,11.698c-1.708,4.797-4.393,10.327-8.46,15.726
				c-1,1.349-2.084,2.74-3.509,3.853c-0.716,0.542-1.516,1.034-2.429,1.279c-0.904,0.267-1.903,0.258-2.823-0.039
				c-1.88-0.608-3.154-2.271-3.984-3.976c-0.841-1.745-1.259-3.654-1.616-5.57c-0.646-3.864-0.613-7.694-0.458-11.351
				c0.201-3.653,0.396-7.178,0.581-10.537c0.391-6.704,0.742-12.744,1.039-17.832c0.313-5.047,0.567-9.144,0.746-12.021
				c0.097-1.389,0.174-2.482,0.229-3.267c0.03-0.349,0.054-0.628,0.073-0.849c0.019-0.19,0.033-0.288,0.042-0.288
				c0.009,0.001,0.012,0.1,0.011,0.291c-0.006,0.222-0.013,0.502-0.021,0.852c-0.031,0.786-0.075,1.881-0.131,3.272
				c-0.139,2.879-0.336,6.979-0.58,12.028c-0.265,5.09-0.579,11.133-0.927,17.839c-0.175,3.357-0.359,6.881-0.55,10.532
				c-0.147,3.645-0.174,7.439,0.462,11.242c0.351,1.887,0.765,3.765,1.568,5.432c0.795,1.643,2.003,3.179,3.675,3.716
				c1.676,0.578,3.465-0.097,4.792-1.148c1.362-1.057,2.429-2.406,3.43-3.748c4.055-5.338,6.755-10.811,8.497-15.563
				c1.752-4.761,2.591-8.804,3.044-11.603c0.205-1.404,0.362-2.496,0.433-3.241c0.043-0.347,0.077-0.625,0.104-0.845
				C256.035,381.656,256.053,381.559,256.062,381.559z"/>
		</g>
		<g>
			<path style="fill:#263238;" d="M231.922,362.673c-0.005-0.007,0.072-0.087,0.229-0.236c0.153-0.152,0.401-0.358,0.695-0.659
				c0.598-0.592,1.448-1.504,2.36-2.814c0.915-1.305,1.861-3.034,2.565-5.187c0.678-2.149,1.118-4.739,0.838-7.572
				c-0.274-2.822-1.266-5.865-3.1-8.655c-1.801-2.811-4.566-5.258-7.976-6.822c-3.401-1.604-7.386-2.256-11.476-2.278
				c-4.105-0.028-8.339,0.565-12.616,1.437c-4.285,0.857-8.461,1.818-12.571,2.359c-4.1,0.542-8.155,0.678-11.927,0
				c-3.779-0.637-7.185-2.055-10.128-3.726c-2.948-1.685-5.444-3.654-7.54-5.625c-4.193-3.963-6.864-7.823-8.647-10.48
				c-0.885-1.341-1.531-2.406-1.964-3.132c-0.199-0.347-0.357-0.621-0.479-0.833c-0.105-0.189-0.155-0.288-0.148-0.293
				c0.008-0.005,0.073,0.085,0.193,0.266c0.133,0.204,0.306,0.471,0.523,0.805c0.461,0.707,1.135,1.754,2.043,3.073
				c1.831,2.617,4.539,6.429,8.731,10.325c2.095,1.938,4.58,3.871,7.501,5.519c2.917,1.636,6.28,3.016,9.996,3.628
				c3.711,0.655,7.711,0.513,11.778-0.032c4.078-0.544,8.241-1.504,12.537-2.364c4.292-0.874,8.567-1.472,12.722-1.437
				c4.14,0.03,8.198,0.701,11.674,2.354c3.482,1.611,6.312,4.14,8.135,7.021c1.858,2.862,2.849,5.975,3.105,8.856
				c0.262,2.895-0.213,5.525-0.928,7.698c-0.741,2.176-1.727,3.912-2.677,5.213c-0.947,1.306-1.829,2.203-2.453,2.773
				c-0.308,0.29-0.568,0.484-0.733,0.624C232.017,362.614,231.928,362.68,231.922,362.673z"/>
		</g>
		<g>
			<path style="fill:#263238;" d="M149.439,301.177c0,0,0.03-0.235,0.113-0.686c0.043-0.23,0.096-0.51,0.158-0.838
				c0.043-0.336,0.053-0.73,0.088-1.175c0.06-1.756-0.114-4.496-1.698-7.513c-0.767-1.5-1.831-3.084-3.324-4.502
				c-1.486-1.405-3.369-2.713-5.656-3.438c-2.272-0.725-4.917-0.865-7.555-0.229c-2.641,0.618-5.265,1.961-7.577,3.895
				c-2.332,1.913-4.344,4.439-5.839,7.368c-1.467,2.955-2.44,6.287-2.972,9.804c-0.54,3.521-0.652,7.221-0.555,11.02
				c0.097,3.801,0.402,7.712,0.569,11.735c0.163,4.021,0.184,8.176-0.395,12.374c-0.597,4.192-1.796,8.387-3.583,12.407
				c-3.569,8.065-9.359,15.336-16.227,21.592c-6.888,6.291-14.612,11.193-22.202,15.547c-7.61,4.348-15.145,8.169-22.15,12.112
				c-6.978,3.962-13.607,7.859-18.909,12.645c-2.634,2.391-4.961,4.963-6.712,7.763c-0.907,1.379-1.618,2.836-2.244,4.285
				c-0.266,0.741-0.596,1.463-0.773,2.202c-0.199,0.738-0.294,1.494-0.364,2.241c-0.199,3.013,0.344,5.888,0.965,8.536
				c0.667,2.648,1.486,5.099,2.368,7.343c1.761,4.492,3.675,8.197,5.388,11.128c1.714,2.935,3.251,5.087,4.362,6.487
				c0.553,0.703,0.997,1.222,1.303,1.563c0.305,0.342,0.452,0.526,0.452,0.526s-0.696-0.639-1.837-2.023
				c-1.141-1.383-2.709-3.522-4.456-6.449c-1.744-2.924-3.691-6.626-5.484-11.125c-0.898-2.249-1.733-4.706-2.418-7.369
				c-0.638-2.666-1.202-5.562-1.011-8.642c0.067-0.767,0.163-1.543,0.366-2.311c0.185-0.777,0.513-1.496,0.782-2.254
				c0.63-1.473,1.347-2.953,2.261-4.354c1.766-2.844,4.112-5.45,6.762-7.869c5.338-4.84,11.982-8.762,18.963-12.741
				c7.01-3.961,14.54-7.792,22.132-12.137c7.572-4.353,15.26-9.237,22.104-15.49c6.827-6.218,12.572-13.433,16.111-21.413
				c1.772-3.979,2.961-8.124,3.557-12.269c0.577-4.151,0.564-8.277,0.408-12.286c-0.16-4.013-0.458-7.926-0.547-11.744
				c-0.09-3.815,0.031-7.541,0.585-11.096c0.546-3.551,1.542-6.924,3.04-9.918c1.532-2.978,3.585-5.535,5.964-7.472
				c2.359-1.958,5.037-3.315,7.736-3.934c2.695-0.638,5.401-0.481,7.721,0.274c2.333,0.754,4.239,2.098,5.738,3.535
				c1.505,1.45,2.57,3.064,3.333,4.59c1.575,3.067,1.716,5.842,1.621,7.609c-0.043,0.447-0.062,0.844-0.114,1.18
				c-0.072,0.329-0.134,0.607-0.185,0.838C149.503,300.952,149.439,301.177,149.439,301.177z"/>
		</g>
		<polygon style="fill:#455A64;" points="68.451,247.167 50.42,247.167 45.117,258.303 63.678,277.925 75.875,273.153 		"/>
		<path style="fill:#455A64;" d="M50.42,256.182c0,1.591-13.95,209.188-13.95,209.188h6.152l13.102-204.946L50.42,256.182z"/>
		<polygon style="fill:#455A64;" points="60.497,262.546 48.129,465.371 54.642,465.371 64.739,265.198 		"/>
		
			<rect x="242.86" y="305.577" transform="matrix(0.9137 0.4063 -0.4063 0.9137 147.759 -74.6889)" style="fill:#455A64;" width="13.847" height="10.147"/>
		<g>
			<path style="fill:#263238;" d="M64.085,278.155c-0.027,0.023-0.305-0.234-0.783-0.72c-0.557-0.569-1.229-1.258-2.016-2.063
				c-1.701-1.742-4.089-4.11-6.731-6.727c-2.644-2.618-4.997-5.034-6.633-6.846c-0.819-0.905-1.469-1.649-1.899-2.18
				c-0.433-0.528-0.659-0.832-0.632-0.855c0.027-0.023,0.304,0.234,0.782,0.72c0.557,0.569,1.229,1.257,2.016,2.063
				c1.701,1.743,4.089,4.111,6.732,6.729c2.643,2.617,4.996,5.032,6.632,6.845c0.819,0.904,1.468,1.649,1.899,2.18
				C63.886,277.828,64.112,278.13,64.085,278.155z"/>
		</g>
		<g>
			<path style="fill:#263238;" d="M75.662,272.294c-0.035,0.011-0.177-0.325-0.405-0.942c-0.229-0.618-0.54-1.518-0.91-2.634
				c-0.741-2.233-1.709-5.335-2.703-8.784c-0.993-3.45-1.823-6.593-2.383-8.877c-0.28-1.143-0.496-2.069-0.63-2.714
				c-0.135-0.644-0.194-1.004-0.159-1.014c0.035-0.009,0.159,0.334,0.355,0.962c0.22,0.743,0.482,1.632,0.79,2.67
				c0.684,2.388,1.559,5.445,2.528,8.828c0.979,3.378,1.863,6.434,2.555,8.818c0.292,1.043,0.542,1.937,0.751,2.682
				C75.619,271.926,75.696,272.284,75.662,272.294z"/>
		</g>
		<circle style="fill:#E0E0E0;" cx="56.755" cy="254.914" r="2.017"/>
		<circle style="fill:#E0E0E0;" cx="64.739" cy="265.198" r="2.017"/>
		<g>
			
				<ellipse transform="matrix(0.9809 -0.1943 0.1943 0.9809 -53.6108 61.3886)" style="fill:#455A64;" cx="286.087" cy="303.944" rx="16.433" ry="0.261"/>
		</g>
		<g>
			
				<ellipse transform="matrix(0.9809 -0.1943 0.1943 0.9809 -51.8696 61.7984)" style="fill:#455A64;" cx="289.046" cy="295.274" rx="16.433" ry="0.261"/>
		</g>
		<g>
			
				<ellipse transform="matrix(0.9809 -0.1943 0.1943 0.9809 -50.1794 62.0242)" style="fill:#455A64;" cx="291.064" cy="286.791" rx="15.474" ry="0.26"/>
		</g>
		<g>
			<path style="fill:#455A64;" d="M302.207,276.91c0.008,0.035-0.312,0.133-0.896,0.278c-0.584,0.147-1.432,0.34-2.483,0.563
				c-2.103,0.448-5.023,0.994-8.259,1.523c-3.16,0.524-6.016,0.998-8.276,1.373c-2.119,0.352-3.434,0.553-3.448,0.479
				c-0.007-0.035,0.313-0.132,0.896-0.278c0.583-0.147,1.432-0.339,2.483-0.563c2.102-0.448,5.023-0.995,8.26-1.524
				c3.158-0.523,6.015-0.997,8.275-1.372C300.877,277.038,302.193,276.836,302.207,276.91z"/>
		</g>
		<g>
			<path style="fill:#455A64;" d="M301.639,302.82c-0.033,0.014-0.229-0.377-0.552-1.094c-0.366-0.815-0.822-1.831-1.363-3.037
				c-1.153-2.562-2.797-6.077-4.762-9.885c-1.97-3.807-3.887-7.182-5.31-9.604c-0.67-1.138-1.235-2.098-1.688-2.868
				c-0.397-0.679-0.604-1.063-0.573-1.083s0.293,0.328,0.744,0.975c0.452,0.645,1.08,1.596,1.832,2.785
				c1.507,2.38,3.481,5.737,5.457,9.557c1.973,3.82,3.568,7.373,4.638,9.979c0.536,1.302,0.948,2.364,1.213,3.106
				C301.542,302.391,301.672,302.807,301.639,302.82z"/>
		</g>
		<g>
			
				<ellipse transform="matrix(0.4423 0.8969 -0.8969 0.4423 429.0271 -91.6472)" style="fill:#455A64;" cx="288.204" cy="299.143" rx="20.182" ry="0.26"/>
		</g>
		<g>
			<path style="fill:#455A64;" d="M283.451,313.717c-0.059,0.037-0.737-0.916-1.746-2.515c-1.009-1.597-2.337-3.847-3.695-6.391
				c-1.356-2.546-2.485-4.901-3.25-6.63c-0.766-1.728-1.179-2.822-1.115-2.85c0.067-0.031,0.6,1.009,1.448,2.692
				c0.848,1.684,2.024,4.005,3.377,6.542c1.354,2.535,2.626,4.806,3.552,6.447C282.946,312.657,283.514,313.678,283.451,313.717z"/>
		</g>
	</g>
</g>
<g id="Device">
	<g>
		<g>
			<rect x="415.954" y="350.196" style="fill:#455A64;" width="13.966" height="114.502"/>
			<path style="fill:#263238;" d="M431.91,352.586h-17.945v-15.321c0-4.399,3.566-7.967,7.967-7.967h2.011
				c4.4,0,7.968,3.567,7.968,7.967V352.586z"/>
			<rect x="395.329" y="324.205" style="fill:#263238;" width="15.646" height="28.382"/>
			<rect x="406.22" y="339.115" style="fill:#263238;" width="11.888" height="4.56"/>
			<path style="fill:#263238;" d="M385.76,389.577h-54.081c-5.129,0-9.287-4.157-9.287-9.286V263.698
				c0-5.129,4.158-9.287,9.287-9.287h54.081c5.129,0,9.286,4.158,9.286,9.287v116.593
				C395.046,385.419,390.889,389.577,385.76,389.577z"/>
			<path style="fill:#FFFFFF;" d="M385.083,386.634h-52.727c-3.826,0-6.928-3.102-6.928-6.929V264.282
				c0-3.826,3.102-6.929,6.928-6.929h52.727c3.827,0,6.929,3.103,6.929,6.929v115.424
				C392.011,383.533,388.91,386.634,385.083,386.634z"/>
		</g>
		<ellipse style="fill:#455A64;" cx="368.657" cy="297.937" rx="5.87" ry="7.564"/>
		<g>
			<g>
				<g>
					<polygon style="fill:#AE7461;" points="325.426,353.008 331.096,356.112 326.694,378.139 325.428,378.139 					"/>
				</g>
				<g>
					<g>
						<g>
							<path style="fill:#263238;" d="M368.347,288.448c1.723,0.242,3.54-0.848,4.137-2.481c0.18-0.492,0.256-1.042,0.089-1.538
								c-0.166-0.496-0.615-0.918-1.139-0.94c0.698-0.48,1.227-1.229,1.356-2.066s-0.171-1.748-0.829-2.28
								c-0.659-0.532-1.668-0.621-2.368-0.145c0.017-0.914-0.543-1.814-1.37-2.205l-3.729,0.86L368.347,288.448z"/>
						</g>
						<g>
							<path style="fill:#AE7461;" d="M362.693,327.314l0.049-10.838c0,0,7.799-1.276,7.833-9.085
								c0.016-3.771-0.582-11.538-1.205-18.563c-0.67-7.552-7.027-13.321-14.608-13.261l-0.753,0.007
								c-8.119,0.539-12.196,7.735-11.433,15.837l1.95,32.659l10.675,5.963L362.693,327.314z"/>
						</g>
						<g>
							<path style="fill:#6F4439;" d="M362.742,316.476c0,0-4.918,0.453-10.198-2.082c0,0,2.405,4.841,10.189,4.075L362.742,316.476
								z"/>
						</g>
						<g>
							<path style="fill:#263238;" d="M360.356,301.843c-0.006-0.068,0.739-0.203,1.945-0.367c0.307-0.034,0.596-0.098,0.646-0.308
								c0.07-0.222-0.061-0.551-0.212-0.906c-0.294-0.738-0.602-1.514-0.925-2.325c-1.285-3.312-2.218-6.035-2.084-6.086
								c0.134-0.05,1.284,2.593,2.568,5.904c0.31,0.816,0.605,1.595,0.887,2.34c0.119,0.347,0.321,0.74,0.169,1.201
								c-0.081,0.229-0.305,0.397-0.5,0.451c-0.196,0.062-0.368,0.066-0.52,0.077C361.116,301.9,360.361,301.911,360.356,301.843z"
								/>
						</g>
						<g>
							<path style="fill:#263238;" d="M355.265,296.801c0.025,0.589-0.452,1.095-1.066,1.133c-0.612,0.038-1.132-0.407-1.157-0.996
								c-0.025-0.588,0.452-1.096,1.065-1.134C354.721,295.766,355.24,296.212,355.265,296.801z"/>
						</g>
						<g>
							<path style="fill:#263238;" d="M355.93,292.981c-0.137,0.146-0.987-0.472-2.187-0.459c-1.198-0.005-2.074,0.619-2.205,0.474
								c-0.064-0.064,0.073-0.328,0.456-0.61c0.375-0.281,1.016-0.557,1.764-0.56c0.747-0.002,1.378,0.269,1.741,0.547
								C355.87,292.653,355.998,292.915,355.93,292.981z"/>
						</g>
						<g>
							<path style="fill:#263238;" d="M355.106,303.562c0.19-0.065,0.651,0.88,1.716,1.433c1.056,0.566,2.122,0.427,2.169,0.617
								c0.026,0.087-0.219,0.256-0.688,0.324c-0.464,0.072-1.159,0.015-1.82-0.334c-0.66-0.35-1.091-0.885-1.28-1.302
								C355.006,303.879,355.016,303.588,355.106,303.562z"/>
						</g>
						<g>
							<path style="fill:#263238;" d="M356.193,287.881c-0.136,0.319-1.324,0.1-2.738,0.193c-1.417,0.064-2.572,0.415-2.743,0.112
								c-0.075-0.144,0.139-0.439,0.614-0.73c0.471-0.29,1.212-0.55,2.061-0.599c0.849-0.046,1.614,0.13,2.115,0.365
								C356.006,287.459,356.252,287.729,356.193,287.881z"/>
						</g>
						<g>
							<path style="fill:#263238;" d="M365.887,296.801c0.026,0.588-0.451,1.096-1.065,1.133c-0.613,0.038-1.132-0.407-1.157-0.995
								c-0.026-0.589,0.451-1.097,1.064-1.135C365.343,295.766,365.862,296.212,365.887,296.801z"/>
						</g>
						<g>
							<path style="fill:#263238;" d="M367.721,292.663c-0.137,0.146-0.986-0.473-2.186-0.46c-1.199-0.004-2.074,0.62-2.206,0.475
								c-0.064-0.064,0.074-0.328,0.456-0.61c0.375-0.281,1.017-0.557,1.764-0.56c0.747-0.002,1.378,0.269,1.742,0.547
								C367.663,292.334,367.79,292.596,367.721,292.663z"/>
						</g>
						<g>
							<path style="fill:#263238;" d="M367.13,289.389c-0.272,0.232-1.129-0.189-2.21-0.373c-1.074-0.219-2.028-0.135-2.195-0.449
								c-0.07-0.151,0.116-0.398,0.558-0.59c0.435-0.192,1.128-0.295,1.868-0.157c0.741,0.139,1.348,0.484,1.681,0.819
								C367.17,288.976,367.252,289.274,367.13,289.389z"/>
						</g>
						<g>
							<path style="fill:#AE7461;" d="M343.891,299c-0.059-1.204-1.104-2.147-2.304-2.023c-1.455,0.149-3.069,0.99-2.949,3.998
								c0.214,5.336,5.527,4.021,5.53,3.868C344.17,304.738,344,301.232,343.891,299z"/>
						</g>
						<g>
							<path style="fill:#6F4439;" d="M342.927,302.88c-0.024-0.016-0.091,0.069-0.245,0.147c-0.15,0.076-0.411,0.135-0.694,0.042
								c-0.571-0.185-1.082-1.061-1.146-2.021c-0.033-0.484,0.051-0.951,0.207-1.341c0.147-0.397,0.389-0.68,0.671-0.741
								c0.279-0.077,0.487,0.085,0.559,0.232c0.077,0.146,0.048,0.254,0.076,0.263c0.016,0.013,0.111-0.095,0.06-0.313
								c-0.026-0.104-0.094-0.229-0.224-0.325c-0.132-0.1-0.322-0.145-0.52-0.116c-0.41,0.046-0.766,0.438-0.938,0.866
								c-0.195,0.431-0.3,0.956-0.263,1.501c0.077,1.073,0.667,2.058,1.448,2.25c0.379,0.083,0.688-0.043,0.844-0.175
								C342.922,303.01,342.946,302.889,342.927,302.88z"/>
						</g>
						<g>
							<path style="fill:#FF725E;" d="M361.276,284.329c0.013,0,0.024,0.004,0.038,0.005c0.031,0.001,0.063,0.001,0.096,0.005
								L361.276,284.329z"/>
						</g>
						<g>
							<path style="fill:#263238;" d="M337.822,289.526c0.092-0.477,0.4-0.888,0.805-1.154c-0.257-0.273-0.457-0.6-0.566-0.96
								c-0.306-1.013,0.112-2.201,0.985-2.8c-0.94-0.878-1.344-2.289-1.009-3.53c0.333-1.242,1.391-2.261,2.644-2.549
								c-0.09-1.604,0.73-3.229,2.075-4.108c1.346-0.879,3.163-0.979,4.597-0.253c1.063-2.555,4.542-3.747,6.948-2.382
								c1.571-1.141,3.255-2.323,5.192-2.458c1.937-0.134,4.112,1.27,4.043,3.21c1.382-0.386,2.856-0.578,4.25-0.238
								c1.394,0.341,2.694,1.285,3.185,2.634c0.489,1.349-0.022,3.068-1.305,3.712c1.221,1.24,1.278,3.44,0.124,4.742
								c-0.335,0.378-0.759,0.66-1.223,0.85c0.028,0.331,0.038,0.669,0.022,1.014c0,0-0.15-0.349-0.414-0.878
								c-1.051,0.295-2.241,0.13-3.109-0.54c-0.965,1.069-2.571,1.509-3.946,1.08c-1.376-0.43-2.447-1.704-2.634-3.133
								c-0.758,0.736-1.892,1.063-2.925,0.842c-1.033-0.222-1.935-0.983-2.324-1.966c-1.136,1.313-3.098,1.838-4.736,1.269
								c-0.018,1.039-0.537,2.007-1.307,2.698c0.073,0.89,0.225,1.9,0.166,3.156c-0.648,14.051-3.182,18.043-3.964,11.434
								c-0.084-0.704-1.988-1.261-2.39-4.104c-0.301-0.048-0.595-0.13-0.869-0.262c-0.58-0.279-1.069-0.779-1.258-1.395
								c-0.188-0.616-0.043-1.343,0.424-1.786C338.35,291.505,337.638,290.476,337.822,289.526z"/>
						</g>
						<g>
							<path style="fill:#455A64;" d="M348.262,282.829c0.02,0.004,0.015,0.167-0.084,0.444c-0.1,0.274-0.307,0.669-0.713,1.034
								c-0.396,0.36-1.021,0.691-1.776,0.688c-0.739,0.005-1.586-0.306-2.17-0.991l0.308-0.021
								c-0.249,0.396-0.597,0.748-1.012,1.012c-0.889,0.562-1.969,0.683-2.836,0.395c-0.88-0.283-1.47-0.922-1.798-1.502
								c-0.333-0.591-0.416-1.146-0.419-1.516c0.004-0.374,0.071-0.571,0.091-0.567c0.079-0.013-0.107,0.858,0.563,1.942
								c0.332,0.519,0.891,1.072,1.67,1.301c0.767,0.238,1.73,0.119,2.521-0.38c0.369-0.235,0.676-0.544,0.896-0.886l0.143-0.221
								l0.166,0.199c0.491,0.592,1.229,0.887,1.882,0.902c0.66,0.023,1.225-0.239,1.611-0.546
								C348.09,283.477,348.202,282.796,348.262,282.829z"/>
						</g>
					</g>
					<g>
						<path style="fill:#FFC801;" d="M380.623,354.787c0-5.165-2.589-31.574-2.589-31.574l-15.254-2.166l-0.144,0.43
							c-4.899,6.756-13.633,5.944-18.323-0.958l-12.85,1.904l-2.226,28.597l0.281,19.124l0.412,7.996h50.188
							C380.09,376.332,380.623,358.133,380.623,354.787z"/>
					</g>
					<path style="fill:#FFC801;" d="M332.284,322.375c0,0-3.393-0.618-6.855,3.997v28.786l5.63,2.803l1.668-7.971L332.284,322.375z"
						/>
					<g>
						<g>
							<path style="fill:#FFC801;" d="M392.011,344.262l-10.014,16.732l-3.731-6.687l-3.282-31.571c0,0,7.216-1.245,12.489,9.979
								C392.746,343.939,392.011,344.262,392.011,344.262z"/>
						</g>
						<g>
							<g>
								<path style="fill:#FFC801;" d="M381.426,332.715c0.003,0,0.004,0.026,0.002,0.078c-0.004,0.062-0.008,0.137-0.013,0.228
									c-0.017,0.215-0.038,0.507-0.065,0.875c-0.059,0.775-0.141,1.871-0.242,3.218c-0.193,2.717-0.407,6.475-0.508,10.63
									c-0.099,4.156-0.066,7.921-0.003,10.644c0.036,1.351,0.066,2.448,0.088,3.226c0.01,0.369,0.017,0.662,0.022,0.877
									c0.001,0.092,0.002,0.167,0.002,0.229c-0.001,0.051-0.002,0.077-0.005,0.078c-0.003,0-0.007-0.026-0.013-0.077
									c-0.005-0.062-0.011-0.137-0.019-0.228c-0.014-0.215-0.031-0.507-0.055-0.876c-0.046-0.761-0.096-1.863-0.143-3.225
									c-0.094-2.725-0.145-6.492-0.046-10.651c0.101-4.158,0.333-7.919,0.558-10.635c0.111-1.358,0.214-2.457,0.296-3.215
									c0.041-0.367,0.073-0.658,0.098-0.872c0.012-0.091,0.021-0.165,0.029-0.227
									C381.418,332.741,381.423,332.714,381.426,332.715z"/>
							</g>
						</g>
					</g>
					<g>
						<g>
							<path style="fill:#263238;" d="M364.375,353.744c0.007,0.003-0.026,0.082-0.097,0.229c-0.083,0.168-0.188,0.38-0.316,0.639
								c-0.27,0.559-0.71,1.34-1.265,2.3c-1.14,1.896-2.876,4.453-5.249,6.878c-2.355,2.444-4.884,4.233-6.796,5.35
								c-0.239,0.139-0.467,0.272-0.684,0.398c-0.22,0.116-0.428,0.227-0.623,0.331c-0.389,0.208-0.726,0.381-1.009,0.508
								c-0.263,0.121-0.477,0.22-0.647,0.299c-0.149,0.065-0.229,0.097-0.232,0.09c-0.004-0.007,0.069-0.052,0.212-0.131
								c0.166-0.089,0.374-0.2,0.629-0.336c0.276-0.139,0.606-0.323,0.987-0.541c0.192-0.108,0.396-0.224,0.612-0.345
								c0.213-0.13,0.438-0.268,0.672-0.411c1.883-1.146,4.378-2.942,6.717-5.37c2.357-2.408,4.104-4.934,5.274-6.803
								c0.57-0.946,1.03-1.713,1.323-2.258c0.144-0.251,0.261-0.456,0.354-0.619C364.322,353.812,364.369,353.74,364.375,353.744z"
								/>
						</g>
					</g>
				</g>
				<g>
					<g>
						
							<ellipse transform="matrix(-0.0191 -0.9998 0.9998 -0.0191 -14.0811 685.5242)" style="fill:#263238;" cx="329.238" cy="349.669" rx="11.507" ry="0.116"/>
					</g>
				</g>
				<g style="opacity:0.3;">
					<polygon points="329.141,345.329 326.671,355.756 329.366,357.133 					"/>
				</g>
				<g style="opacity:0.3;">
					<g>
						<path d="M344.677,364.011c0.34-0.241,0.753-0.353,1.153-0.467c3.918-1.12,7.596-3.072,10.723-5.685
							c0.313-0.262,0.791-0.1,0.868,0.302c0.001,0.003,0.001,0.006,0.002,0.009l-0.032-0.013c-2.441,2.438-5.145,4.615-8.047,6.481
							c-1.143,0.735-2.404,1.445-3.762,1.387c-0.624-0.027-1.345-0.336-1.438-0.953C344.081,364.66,344.337,364.252,344.677,364.011
							z"/>
					</g>
				</g>
			</g>
		</g>
		<path style="fill:#AE7461;" d="M390.412,318.779c0.341-1.023,1.039-2.895,1.654-4.684l-0.056-4.938
			c-0.159,0.084-0.308,0.24-0.43,0.484c-0.426,0.85-3.082,5.737-3.082,5.737s2.656-9.031,2.02-10.731
			c-0.638-1.7-2.338-0.744-2.444,0s-2.656,8.819-2.656,8.819s1.169-11.9,0.531-12.325c-0.638-0.426-2.55,0.318-2.763,2.125
			c-0.212,1.806-1.063,9.987-1.063,9.987s0.106-9.882-0.956-10.307s-1.912,1.913-2.019,2.976s-0.851,10.731-0.851,10.731
			l-1.381,2.656c0,0-0.851-0.956-0.956-3.081c-0.106-2.125-2.976-6.376-3.507-3.188c0,0,0.851,9.774,2.125,12.856
			c1.275,3.081,4.888,4.462,4.888,4.462s0.842,35.473,3.073,38.873c2.231,3.399,7.306,9.123,9.407,6.363l0.063-33.229l-3.831-12.539
			C388.18,329.829,389.667,321.01,390.412,318.779z"/>
		<polygon style="fill:#E0E0E0;" points="348.322,336.698 343.975,346.979 345.036,347.233 349.32,337.052 		"/>
		<path style="fill:#455A64;" d="M325.426,333.601l19.985,13.854l-0.859,2.256c0,0-19.126-12.447-19.126-12.77
			S325.426,333.601,325.426,333.601z"/>
		<g>
			<path style="fill:#263238;" d="M355.013,349.093l-2.2-0.832c-1.419-0.536-2.134-2.122-1.598-3.54l6.154-16.273
				c0.537-1.419,2.122-2.134,3.541-1.598l2.2,0.832c1.419,0.537,2.134,2.122,1.597,3.541l-6.153,16.272
				C358.017,348.915,356.432,349.63,355.013,349.093z"/>
			
				<rect x="350.493" y="337.854" transform="matrix(0.9353 0.3538 -0.3538 0.9353 142.9701 -104.5548)" style="fill:#455A64;" width="13.971" height="1.88"/>
		</g>
		<path style="fill:#263238;" d="M353.022,346.167c-0.104,0.155-2.689,8.225-2.689,8.225l2.896,0.879l3.019-7.678L353.022,346.167z"
			/>
		<path style="fill:#263238;" d="M350.783,354.108c0,0-0.89,3.176-0.129,3.744c0.761,0.569,2.146-2.503,2.198-2.968
			C352.904,354.418,350.783,354.108,350.783,354.108z"/>
		<g>
			<path style="fill:#263238;" d="M350.987,355.882c0.002,0,0.002,0.026,0,0.077c-0.004,0.059-0.009,0.134-0.014,0.227
				c-0.01,0.199-0.043,0.49-0.09,0.866c-0.104,0.748-0.313,1.83-0.77,3.106c-0.453,1.273-1.167,2.742-2.247,4.176
				c-0.265,0.358-0.553,0.728-0.932,1.023c-0.19,0.144-0.402,0.274-0.645,0.34c-0.24,0.07-0.506,0.067-0.75-0.011
				c-0.499-0.162-0.838-0.604-1.058-1.056c-0.224-0.464-0.335-0.971-0.43-1.479c-0.171-1.026-0.162-2.043-0.121-3.015
				c0.053-0.97,0.104-1.905,0.153-2.798c0.104-1.78,0.197-3.384,0.276-4.735c0.083-1.34,0.15-2.428,0.197-3.192
				c0.026-0.368,0.047-0.658,0.062-0.867c0.008-0.093,0.014-0.167,0.02-0.226c0.005-0.051,0.009-0.076,0.011-0.076
				c0.003,0,0.003,0.026,0.003,0.077c-0.001,0.059-0.003,0.134-0.006,0.227c-0.008,0.208-0.02,0.499-0.034,0.868
				c-0.037,0.765-0.09,1.854-0.154,3.195c-0.07,1.352-0.154,2.956-0.246,4.736c-0.047,0.892-0.096,1.827-0.146,2.797
				c-0.039,0.968-0.046,1.976,0.123,2.985c0.093,0.501,0.203,1,0.416,1.442c0.211,0.437,0.532,0.845,0.977,0.987
				c0.444,0.153,0.92-0.026,1.272-0.305c0.361-0.281,0.645-0.64,0.91-0.996c1.077-1.417,1.794-2.87,2.257-4.133
				c0.465-1.264,0.688-2.338,0.808-3.081c0.055-0.372,0.097-0.662,0.115-0.86c0.012-0.092,0.021-0.166,0.028-0.225
				C350.98,355.909,350.985,355.882,350.987,355.882z"/>
		</g>
		<g>
			<path style="fill:#263238;" d="M344.577,350.868c-0.002-0.002,0.019-0.023,0.061-0.063c0.041-0.041,0.106-0.096,0.185-0.176
				c0.159-0.157,0.385-0.399,0.627-0.747c0.242-0.347,0.494-0.806,0.681-1.377c0.181-0.571,0.297-1.259,0.223-2.012
				c-0.072-0.749-0.336-1.557-0.823-2.298c-0.478-0.746-1.212-1.396-2.117-1.812c-0.903-0.426-1.962-0.6-3.048-0.605
				c-1.09-0.008-2.215,0.15-3.351,0.382c-1.138,0.228-2.246,0.482-3.338,0.626c-1.089,0.145-2.165,0.181-3.167,0
				c-1.004-0.169-1.908-0.545-2.689-0.989c-0.783-0.447-1.446-0.97-2.003-1.493c-1.113-1.053-1.822-2.078-2.296-2.783
				c-0.235-0.356-0.407-0.64-0.521-0.832c-0.054-0.092-0.096-0.165-0.128-0.221c-0.027-0.051-0.041-0.077-0.039-0.078
				s0.02,0.022,0.052,0.07c0.035,0.055,0.081,0.125,0.139,0.214c0.122,0.188,0.301,0.466,0.543,0.816
				c0.485,0.694,1.205,1.707,2.318,2.742c0.556,0.514,1.216,1.027,1.992,1.465c0.774,0.435,1.667,0.801,2.654,0.964
				c0.985,0.174,2.047,0.136,3.128-0.009c1.082-0.145,2.188-0.399,3.329-0.628c1.14-0.232,2.274-0.391,3.378-0.382
				c1.1,0.008,2.177,0.187,3.101,0.625c0.924,0.428,1.676,1.1,2.16,1.864c0.493,0.761,0.756,1.587,0.824,2.353
				c0.069,0.769-0.057,1.467-0.246,2.044c-0.197,0.578-0.459,1.039-0.711,1.385c-0.252,0.347-0.485,0.585-0.651,0.736
				c-0.082,0.077-0.151,0.128-0.195,0.166C344.602,350.852,344.578,350.87,344.577,350.868z"/>
		</g>
		<ellipse style="fill:#455A64;" cx="339.542" cy="299.072" rx="5.869" ry="7.565"/>
		<path style="fill:#455A64;" d="M337.232,296.336c0,0-6.462-16.43,4.339-20.769l-0.171,2.265c0,0-6.772,1.932-1.263,17.018
			L337.232,296.336z"/>
		<g>
			<path style="fill:#6F4439;" d="M388.327,316.472c-0.015,0.019-0.362-0.269-0.958-0.681c-0.595-0.412-1.45-0.935-2.456-1.391
				c-1.007-0.454-1.965-0.751-2.668-0.925c-0.702-0.175-1.146-0.245-1.144-0.269c0.002-0.01,0.114-0.001,0.316,0.024
				c0.202,0.023,0.493,0.073,0.85,0.149c0.713,0.15,1.686,0.436,2.702,0.894c1.016,0.46,1.872,1.002,2.456,1.438
				c0.293,0.218,0.522,0.402,0.674,0.539C388.251,316.387,388.333,316.465,388.327,316.472z"/>
		</g>
		<g>
			<path style="fill:#6F4439;" d="M380.519,323.471c-0.021,0.009-0.146-0.276-0.389-0.715c-0.242-0.438-0.616-1.023-1.114-1.603
				c-0.5-0.577-1.023-1.034-1.421-1.338c-0.398-0.305-0.663-0.471-0.65-0.49c0.004-0.008,0.075,0.025,0.2,0.093
				c0.125,0.066,0.299,0.175,0.508,0.318c0.417,0.287,0.96,0.739,1.468,1.327c0.506,0.588,0.874,1.191,1.097,1.646
				c0.111,0.228,0.192,0.416,0.239,0.55C380.505,323.393,380.528,323.468,380.519,323.471z"/>
		</g>
		<g>
			<path style="fill:#263238;" d="M339.071,291.712c0.005-0.001,0.023,0.047,0.055,0.14c0.034,0.108,0.076,0.243,0.129,0.408
				c0.112,0.374,0.264,0.885,0.45,1.507c0.093,0.32,0.193,0.67,0.302,1.044c0.102,0.377,0.201,0.788,0.235,1.232
				c0.035,0.443-0.001,0.924-0.178,1.384c-0.171,0.456-0.518,0.889-1.003,1.104c-0.239,0.109-0.502,0.165-0.761,0.149
				c-0.26-0.015-0.51-0.108-0.713-0.251c-0.412-0.289-0.657-0.727-0.791-1.149c-0.138-0.427-0.19-0.845-0.25-1.229
				c-0.059-0.385-0.112-0.743-0.162-1.073c-0.094-0.643-0.17-1.17-0.226-1.556c-0.021-0.172-0.04-0.313-0.054-0.425
				c-0.011-0.097-0.015-0.148-0.01-0.149s0.018,0.049,0.037,0.146c0.021,0.11,0.047,0.25,0.08,0.42
				c0.066,0.385,0.157,0.909,0.269,1.549c0.055,0.329,0.114,0.688,0.179,1.071c0.064,0.385,0.122,0.798,0.258,1.207
				c0.132,0.406,0.367,0.814,0.746,1.077c0.373,0.271,0.899,0.299,1.341,0.088c0.448-0.2,0.769-0.596,0.934-1.028
				c0.169-0.434,0.207-0.896,0.177-1.324c-0.07-0.864-0.344-1.618-0.505-2.26c-0.168-0.627-0.306-1.142-0.407-1.519
				c-0.042-0.168-0.076-0.305-0.104-0.415C339.076,291.765,339.067,291.714,339.071,291.712z"/>
		</g>
		<g>
			<path style="fill:#263238;" d="M340.493,305.226c-0.004-0.015,0.215-0.058,0.569-0.232c0.351-0.175,0.833-0.506,1.267-1.063
				c0.438-0.551,0.795-1.33,0.996-2.241c0.104-0.455,0.175-0.941,0.227-1.449c0.052-0.507,0.087-1.033,0.084-1.573
				c-0.003-1.077-0.18-2.107-0.562-2.957c-0.372-0.854-0.962-1.491-1.528-1.9c-0.574-0.412-1.132-0.586-1.519-0.652
				c-0.39-0.063-0.611-0.043-0.611-0.061c0-0.005,0.055-0.009,0.159-0.014c0.105-0.009,0.261-0.001,0.461,0.021
				c0.395,0.052,0.972,0.215,1.565,0.626c0.588,0.409,1.2,1.054,1.589,1.929c0.397,0.867,0.581,1.918,0.584,3.008
				c0.003,0.547-0.034,1.078-0.088,1.589s-0.128,1.002-0.237,1.463c-0.211,0.923-0.585,1.718-1.044,2.273
				c-0.453,0.563-0.955,0.888-1.32,1.051c-0.183,0.081-0.332,0.128-0.434,0.154C340.548,305.221,340.495,305.231,340.493,305.226z"
				/>
		</g>
		
			<rect x="347.481" y="335.706" transform="matrix(0.9137 0.4064 -0.4064 0.9137 167.1187 -112.8711)" style="fill:#455A64;" width="3.677" height="2.694"/>
		<g>
			
				<ellipse transform="matrix(0.9809 -0.1944 0.1944 0.9809 -58.3159 76.1573)" style="fill:#455A64;" cx="358.96" cy="335.271" rx="4.364" ry="0.069"/>
		</g>
		<g>
			
				<ellipse transform="matrix(0.981 -0.1942 0.1942 0.981 -57.8252 76.2204)" style="fill:#455A64;" cx="359.746" cy="332.969" rx="4.364" ry="0.069"/>
		</g>
		<g>
			
				<ellipse transform="matrix(0.9809 -0.1944 0.1944 0.9809 -57.4184 76.349)" style="fill:#455A64;" cx="360.282" cy="330.716" rx="4.109" ry="0.07"/>
		</g>
		<g>
			<path style="fill:#455A64;" d="M363.241,328.092c0.002,0.01-0.083,0.035-0.238,0.074c-0.154,0.039-0.38,0.09-0.659,0.149
				c-0.558,0.119-1.334,0.265-2.193,0.405c-0.839,0.139-1.598,0.265-2.197,0.364c-0.563,0.093-0.912,0.146-0.916,0.127
				c-0.002-0.01,0.083-0.035,0.238-0.074c0.154-0.039,0.38-0.09,0.659-0.149c0.559-0.119,1.334-0.264,2.193-0.404
				c0.839-0.14,1.598-0.265,2.198-0.364C362.888,328.126,363.237,328.073,363.241,328.092z"/>
		</g>
		<g>
			<path style="fill:#455A64;" d="M363.09,334.973c-0.009,0.004-0.061-0.1-0.146-0.29c-0.098-0.217-0.219-0.487-0.362-0.807
				c-0.307-0.681-0.742-1.614-1.265-2.625c-0.523-1.011-1.032-1.907-1.41-2.551c-0.178-0.302-0.328-0.558-0.448-0.762
				c-0.105-0.18-0.16-0.282-0.152-0.288c0.009-0.005,0.078,0.088,0.197,0.26c0.121,0.171,0.287,0.423,0.487,0.739
				c0.4,0.632,0.924,1.523,1.449,2.538c0.523,1.015,0.947,1.958,1.231,2.649c0.142,0.346,0.252,0.628,0.322,0.825
				C363.064,334.859,363.099,334.969,363.09,334.973z"/>
		</g>
		<g>
			<path style="fill:#455A64;" d="M364.349,332.069c-0.021,0.007-0.127-0.281-0.314-0.738s-0.465-1.081-0.818-1.746
				c-0.354-0.665-0.719-1.242-0.994-1.653c-0.274-0.411-0.454-0.659-0.438-0.673c0.014-0.01,0.221,0.218,0.518,0.617
				c0.298,0.398,0.678,0.974,1.036,1.644c0.357,0.671,0.622,1.308,0.787,1.776C364.292,331.765,364.366,332.064,364.349,332.069z"/>
		</g>
		<g>
			
				<ellipse transform="matrix(0.4423 0.8969 -0.8969 0.4423 500.0439 -136.1777)" style="fill:#455A64;" cx="359.522" cy="333.997" rx="5.359" ry="0.069"/>
		</g>
		<g>
			<path style="fill:#455A64;" d="M358.26,337.867c-0.016,0.01-0.196-0.243-0.464-0.667c-0.268-0.425-0.621-1.022-0.981-1.697
				c-0.36-0.677-0.66-1.302-0.863-1.761s-0.313-0.749-0.296-0.757c0.018-0.008,0.159,0.268,0.385,0.715
				c0.225,0.447,0.537,1.063,0.896,1.737c0.359,0.673,0.697,1.276,0.943,1.712C358.125,337.585,358.277,337.857,358.26,337.867z"/>
		</g>
		<g>
			<path style="fill:#263238;" d="M392.046,378.139c0,0.144-14.914,0.261-33.308,0.261c-18.4,0-33.311-0.117-33.311-0.261
				s14.91-0.261,33.311-0.261C377.132,377.878,392.046,377.996,392.046,378.139z"/>
		</g>
		<path style="fill:#263238;" d="M370.106,263.604h-20.783c-0.918,0-1.661-0.743-1.661-1.661v-0.419
			c0-0.918,0.743-1.662,1.661-1.662h20.783c0.918,0,1.661,0.744,1.661,1.662v0.419C371.767,262.861,371.024,263.604,370.106,263.604
			z"/>
	</g>
</g>
<g id="Emoji">
	<g>
		<g>
			<g>
				<g>
					<g>
						<circle style="fill:#FFC801;" cx="387.226" cy="143.551" r="18.096"/>
					</g>
				</g>
			</g>
			<g style="opacity:0.3;">
				<g>
					<g>
						<circle style="fill:#FFC801;" cx="387.226" cy="143.551" r="18.096"/>
					</g>
				</g>
			</g>
			<g>
				<g>
					<g>
						
							<ellipse transform="matrix(-0.9649 0.2626 -0.2626 -0.9649 810.4463 168.7406)" style="fill:#263238;" cx="393.946" cy="138.532" rx="1.808" ry="2.387"/>
					</g>
				</g>
			</g>
			<g>
				<g>
					<g>
						
							<ellipse transform="matrix(-0.9649 0.2626 -0.2626 -0.9649 782.9675 180.3118)" style="fill:#263238;" cx="379.434" cy="142.481" rx="1.808" ry="2.387"/>
					</g>
				</g>
			</g>
		</g>
		<g>
			<g>
				<g>
					<path style="fill:#263238;" d="M392.311,141.868c0.205,2.353-1.285,4.758-3.552,5.511c-2.257,0.75-4.91-0.223-6.16-2.241
						c-0.374-0.604,0.522-1.259,0.898-0.652c0.987,1.595,3.058,2.455,4.872,1.854c1.806-0.598,3-2.495,2.836-4.374
						C391.143,141.256,392.249,141.154,392.311,141.868L392.311,141.868z"/>
				</g>
			</g>
		</g>
	</g>
</g>
<g id="Speech_Bubbles_2">
	<g>
		<path style="fill:#FF725E;" d="M339.229,244.434h-19.485c-3.032,0-5.49,2.458-5.49,5.49v11.182c0,3.032,2.458,5.49,5.49,5.49
			h4.314l3.984,5.698c0.763,1.09,2.385,1.063,3.109-0.051l3.675-5.647h4.402c3.031,0,5.489-2.458,5.489-5.49v-11.182
			C344.718,246.892,342.26,244.434,339.229,244.434z"/>
		<path style="opacity:0.3;" d="M339.229,244.434h-19.485c-3.032,0-5.49,2.458-5.49,5.49v11.182c0,3.032,2.458,5.49,5.49,5.49h4.314
			l3.984,5.698c0.763,1.09,2.385,1.063,3.109-0.051l3.675-5.647h4.402c3.031,0,5.489-2.458,5.489-5.49v-11.182
			C344.718,246.892,342.26,244.434,339.229,244.434z"/>
		<g>
			<g>
				<g>
					<path style="fill:#FFFFFF;" d="M336.179,252.394c-1.192-2.18-3.17-2.519-4.499-2.022c-1.444,0.54-2.194,2.021-2.194,2.021
						s-0.75-1.481-2.194-2.021c-1.329-0.497-3.307-0.158-4.498,2.022c-2.489,4.549,6.692,10.471,6.692,10.471
						S338.667,256.943,336.179,252.394z"/>
				</g>
			</g>
		</g>
	</g>
	<g>
		<path style="fill:#FF725E;" d="M437.585,268.119h-24.248c-3.773,0-6.832,3.059-6.832,6.831v13.916
			c0,3.772,3.059,6.831,6.832,6.831h5.369l4.959,7.092c0.948,1.356,2.967,1.323,3.869-0.064l4.573-7.027h5.478
			c3.772,0,6.831-3.059,6.831-6.831v-13.915C444.417,271.177,441.358,268.119,437.585,268.119z"/>
		<path style="opacity:0.3;" d="M437.585,268.119h-24.248c-3.773,0-6.832,3.059-6.832,6.831v13.916c0,3.772,3.059,6.831,6.832,6.831
			h5.369l4.959,7.092c0.948,1.356,2.967,1.323,3.869-0.064l4.573-7.027h5.478c3.772,0,6.831-3.059,6.831-6.831v-13.915
			C444.417,271.177,441.358,268.119,437.585,268.119z"/>
		<g>
			<g>
				<g>
					<path style="fill:#FFFFFF;" d="M433.791,278.024c-1.484-2.712-3.944-3.134-5.599-2.516c-1.797,0.672-2.73,2.516-2.73,2.516
						s-0.934-1.844-2.731-2.516c-1.653-0.618-4.114-0.196-5.598,2.516c-3.097,5.661,8.329,13.031,8.329,13.031
						S436.887,283.685,433.791,278.024z"/>
				</g>
			</g>
		</g>
	</g>
	<g>
		<path style="fill:#FF725E;" d="M146.865,178.694H98.309c-7.555,0-13.68,6.125-13.68,13.68v27.865c0,7.556,6.125,13.68,13.68,13.68
			h10.752l9.929,14.201c1.899,2.716,5.941,2.649,7.749-0.128l9.157-14.073h10.969c7.555,0,13.68-6.125,13.68-13.68v-27.865
			C160.545,184.818,154.42,178.694,146.865,178.694z"/>
		<g>
			<g>
				<g>
					<path style="fill:#FFFFFF;" d="M139.266,198.53c-2.972-5.432-7.898-6.276-11.209-5.039c-3.6,1.345-5.469,5.039-5.469,5.039
						s-1.869-3.693-5.469-5.038c-3.312-1.238-8.238-0.394-11.209,5.038c-6.201,11.336,16.679,26.094,16.679,26.094
						S145.466,209.866,139.266,198.53z"/>
				</g>
			</g>
		</g>
	</g>
</g>
</svg>
