<svg width="58" height="64" viewBox="0 0 58 64" fill="none" xmlns="http://www.w3.org/2000/svg">
<path d="M29.3903 0L52.5597 13.6556V40.9667L29.3903 54.6223L6.2208 40.9667V13.6556L29.3903 0Z" fill="#FFCE26"/>
<path d="M8.92114 42.3613L21.2146 49.6588L12.7008 64.0012L9.9596 54.6155L0.407384 56.7036L8.92114 42.3613Z" fill="#5E5E5E"/>
<path d="M37.1931 49.6562L49.487 42.3596L57.9998 56.7025L48.4477 54.6136L45.7059 63.9991L37.1931 49.6562Z" fill="#5E5E5E"/>
<g clip-path="url(#clip0_4252_60466)">
<path d="M28.8166 24.9383C29.0006 24.3865 29.7798 24.3865 29.9637 24.9383L31.0422 28.1772C31.2796 28.8892 31.6796 29.5361 32.2104 30.0666C32.7413 30.5972 33.3884 30.9968 34.1005 31.2338L37.3377 32.3123C37.8895 32.4962 37.8895 33.2755 37.3377 33.4594L34.0988 34.5379C33.3869 34.7753 32.74 35.1753 32.2094 35.7061C31.6788 36.2369 31.2792 36.8841 31.0422 37.5962L29.9637 40.8334C29.9241 40.9542 29.8473 41.0594 29.7443 41.134C29.6413 41.2086 29.5174 41.2488 29.3902 41.2488C29.263 41.2488 29.1391 41.2086 29.0361 41.134C28.9331 41.0594 28.8563 40.9542 28.8166 40.8334L27.7381 37.5945C27.5009 36.8827 27.1012 36.2359 26.5707 35.7054C26.0401 35.1748 25.3933 34.7751 24.6815 34.5379L21.4426 33.4594C21.3218 33.4197 21.2166 33.3429 21.142 33.2399C21.0674 33.1369 21.0272 33.013 21.0272 32.8858C21.0272 32.7587 21.0674 32.6348 21.142 32.5318C21.2166 32.4288 21.3218 32.352 21.4426 32.3123L24.6815 31.2338C25.3933 30.9966 26.0401 30.5969 26.5707 30.0663C27.1012 29.5358 27.5009 28.889 27.7381 28.1772L28.8166 24.9383V24.9383ZM22.3573 16.4122C22.3813 16.3398 22.4274 16.2768 22.4893 16.2321C22.5511 16.1874 22.6255 16.1634 22.7017 16.1634C22.778 16.1634 22.8524 16.1874 22.9142 16.2321C22.976 16.2768 23.0222 16.3398 23.0462 16.4122L23.6933 18.3552C23.9826 19.2213 24.6614 19.9002 25.5276 20.1895L27.4706 20.8366C27.543 20.8606 27.606 20.9068 27.6507 20.9686C27.6953 21.0304 27.7194 21.1048 27.7194 21.1811C27.7194 21.2573 27.6953 21.3317 27.6507 21.3935C27.606 21.4554 27.543 21.5015 27.4706 21.5255L25.5276 22.1726C25.1004 22.3149 24.7123 22.5548 24.3939 22.8732C24.0755 23.1916 23.8356 23.5797 23.6933 24.0069L23.0462 25.9499C23.0222 26.0223 22.976 26.0854 22.9142 26.13C22.8524 26.1747 22.778 26.1987 22.7017 26.1987C22.6255 26.1987 22.5511 26.1747 22.4893 26.13C22.4274 26.0854 22.3813 26.0223 22.3573 25.9499L21.7102 24.0069C21.5678 23.5797 21.328 23.1916 21.0096 22.8732C20.6912 22.5548 20.303 22.3149 19.8759 22.1726L17.9329 21.5255C17.8605 21.5015 17.7974 21.4554 17.7528 21.3935C17.7081 21.3317 17.6841 21.2573 17.6841 21.1811C17.6841 21.1048 17.7081 21.0304 17.7528 20.9686C17.7974 20.9068 17.8605 20.8606 17.9329 20.8366L19.8759 20.1895C20.303 20.0472 20.6912 19.8073 21.0096 19.4889C21.328 19.1705 21.5678 18.7824 21.7102 18.3552L22.3573 16.4122V16.4122ZM34.1774 14.6582C34.1939 14.6105 34.2249 14.5693 34.2659 14.54C34.307 14.5108 34.3561 14.4951 34.4065 14.4951C34.4569 14.4951 34.506 14.5108 34.5471 14.54C34.5882 14.5693 34.6191 14.6105 34.6356 14.6582L35.067 15.9524C35.2593 16.5309 35.7124 16.9841 36.291 17.1764L37.5852 17.6078C37.6328 17.6243 37.6741 17.6552 37.7033 17.6963C37.7325 17.7373 37.7482 17.7864 37.7482 17.8368C37.7482 17.8872 37.7325 17.9364 37.7033 17.9774C37.6741 18.0185 37.6328 18.0494 37.5852 18.0659L36.291 18.4973C36.0059 18.5922 35.7468 18.7522 35.5343 18.9646C35.3219 19.1771 35.1618 19.4362 35.067 19.7213L34.6356 21.0155C34.6191 21.0631 34.5882 21.1044 34.5471 21.1336C34.506 21.1629 34.4569 21.1786 34.4065 21.1786C34.3561 21.1786 34.307 21.1629 34.2659 21.1336C34.2249 21.1044 34.1939 21.0631 34.1774 21.0155L33.746 19.7213C33.6512 19.4362 33.4912 19.1771 33.2787 18.9646C33.0662 18.7522 32.8072 18.5922 32.522 18.4973L31.2295 18.0659C31.1819 18.0494 31.1406 18.0185 31.1114 17.9774C31.0822 17.9364 31.0665 17.8872 31.0665 17.8368C31.0665 17.7864 31.0822 17.7373 31.1114 17.6963C31.1406 17.6552 31.1819 17.6243 31.2295 17.6078L32.5237 17.1764C33.1023 16.9841 33.5554 16.5309 33.7477 15.9524L34.1774 14.6598V14.6582Z" fill="#5E5E5E"/>
</g>
<defs>
<clipPath id="clip0_4252_60466">
<rect width="26.7538" height="26.7538" fill="white" transform="translate(16.0132 14.4922)"/>
</clipPath>
</defs>
</svg>
