<svg width="59" height="64" viewBox="0 0 59 64" fill="none" xmlns="http://www.w3.org/2000/svg">
<path d="M29.7238 0L52.8932 13.6556V40.9667L29.7238 54.6223L6.5543 40.9667V13.6556L29.7238 0Z" fill="#FFCE26"/>
<path d="M9.25464 42.3613L21.5481 49.6588L13.0343 64.0012L10.2931 54.6155L0.74088 56.7036L9.25464 42.3613Z" fill="#3B4D0F"/>
<path d="M37.5266 49.6562L49.8205 42.3596L58.3333 56.7025L48.7812 54.6136L46.0394 63.9991L37.5266 49.6562Z" fill="#3B4D0F"/>
<path d="M42.2678 17.7366C42.424 17.8933 42.5118 18.1056 42.5118 18.3269C42.5118 18.5482 42.424 18.7604 42.2678 18.9171L40.5238 20.6628L37.1796 17.3186L38.9236 15.5729C39.0804 15.4162 39.293 15.3281 39.5147 15.3281C39.7364 15.3281 39.949 15.4162 40.1058 15.5729L42.2678 17.735V17.7366ZM39.3416 21.8433L35.9974 18.4991L24.6053 29.8929C24.5133 29.9849 24.444 30.0971 24.403 30.2206L23.0569 34.2571C23.0325 34.3307 23.029 34.4096 23.0469 34.4851C23.0648 34.5605 23.1033 34.6295 23.1581 34.6843C23.2129 34.7391 23.2819 34.7776 23.3573 34.7955C23.4328 34.8134 23.5117 34.8099 23.5853 34.7855L27.6218 33.4394C27.7451 33.3989 27.8573 33.3302 27.9495 33.2388L39.3416 21.845V21.8433Z" fill="#5E5E5E"/>
<path fill-rule="evenodd" clip-rule="evenodd" d="M18.0188 37.0655C18.0188 37.7307 18.2831 38.3686 18.7534 38.839C19.2238 39.3094 19.8618 39.5736 20.527 39.5736H38.9202C39.5854 39.5736 40.2234 39.3094 40.6937 38.839C41.1641 38.3686 41.4284 37.7307 41.4284 37.0655V27.0328C41.4284 26.8111 41.3403 26.5984 41.1835 26.4416C41.0267 26.2848 40.814 26.1967 40.5923 26.1967C40.3706 26.1967 40.1579 26.2848 40.0011 26.4416C39.8443 26.5984 39.7563 26.8111 39.7563 27.0328V37.0655C39.7563 37.2872 39.6682 37.4999 39.5114 37.6566C39.3546 37.8134 39.1419 37.9015 38.9202 37.9015H20.527C20.3052 37.9015 20.0926 37.8134 19.9358 37.6566C19.779 37.4999 19.6909 37.2872 19.6909 37.0655V18.6722C19.6909 18.4505 19.779 18.2378 19.9358 18.0811C20.0926 17.9243 20.3052 17.8362 20.527 17.8362H31.3957C31.6174 17.8362 31.8301 17.7481 31.9869 17.5913C32.1437 17.4345 32.2318 17.2219 32.2318 17.0001C32.2318 16.7784 32.1437 16.5657 31.9869 16.4089C31.8301 16.2521 31.6174 16.1641 31.3957 16.1641H20.527C19.8618 16.1641 19.2238 16.4283 18.7534 16.8987C18.2831 17.3691 18.0188 18.007 18.0188 18.6722V37.0655Z" fill="#5E5E5E"/>
</svg>
