<svg width="58" height="64" viewBox="0 0 58 64" fill="none" xmlns="http://www.w3.org/2000/svg">
<path d="M29.057 0L52.2265 13.6556V40.9667L29.057 54.6223L5.88755 40.9667V13.6556L29.057 0Z" fill="#FFCE26"/>
<path d="M8.58789 42.3613L20.8813 49.6588L12.3675 64.0012L9.62634 54.6155L0.0741323 56.7036L8.58789 42.3613Z" fill="#424242"/>
<path d="M36.8599 49.6562L49.1538 42.3596L57.6666 56.7025L48.1145 54.6136L45.3727 63.9991L36.8599 49.6562Z" fill="#424242"/>
<g clip-path="url(#clip0_4252_60445)">
<path d="M29.4096 17.915C29.2991 17.8636 29.1787 17.8369 29.0568 17.8369C28.9349 17.8369 28.8145 17.8636 28.7039 17.915L16.1631 23.7674C16.0154 23.8363 15.8911 23.9469 15.8055 24.0856C15.7198 24.2242 15.6765 24.3849 15.681 24.5478C15.6854 24.7107 15.7374 24.8687 15.8305 25.0025C15.9235 25.1363 16.0537 25.2399 16.2049 25.3007L28.7458 30.3171C28.9454 30.3971 29.1681 30.3971 29.3678 30.3171L39.0894 26.4311V36.2296C38.646 36.2296 38.2207 36.4058 37.9071 36.7194C37.5935 37.033 37.4173 37.4583 37.4173 37.9018V41.246H42.4337V37.9018C42.4337 37.4583 42.2575 37.033 41.9439 36.7194C41.6303 36.4058 41.205 36.2296 40.7615 36.2296V25.7606L41.9086 25.3007C42.0598 25.2399 42.19 25.1363 42.2831 25.0025C42.3762 24.8687 42.4281 24.7107 42.4326 24.5478C42.437 24.3849 42.3937 24.2242 42.3081 24.0856C42.2224 23.9469 42.0981 23.8363 41.9504 23.7674L29.4096 17.915V17.915ZM29.0568 28.6383L18.6194 24.4663L29.0568 19.5955L39.4941 24.4663L29.0568 28.6383Z" fill="#454545"/>
<path d="M22.6626 29.5947C22.5549 29.5541 22.4401 29.5362 22.3252 29.5421C22.2103 29.548 22.0978 29.5775 21.9949 29.6288C21.8919 29.6801 21.8007 29.7522 21.7268 29.8404C21.653 29.9286 21.5981 30.0311 21.5657 30.1415L20.7296 32.9841C20.6711 33.1836 20.689 33.3978 20.7799 33.5849C20.8708 33.772 21.0281 33.9184 21.2212 33.9957L28.7457 37.0055C28.9454 37.0855 29.1681 37.0855 29.3678 37.0055L36.8923 33.9957C37.0854 33.9184 37.2427 33.772 37.3336 33.5849C37.4245 33.3978 37.4424 33.1836 37.3839 32.9841L36.5478 30.1415C36.5154 30.0311 36.4605 29.9286 36.3867 29.8404C36.3128 29.7522 36.2216 29.6801 36.1186 29.6288C36.0157 29.5775 35.9032 29.548 35.7883 29.5421C35.6734 29.5362 35.5586 29.5541 35.4509 29.5947L29.0567 31.9925L22.6626 29.5947ZM22.5489 32.7266L22.9168 31.4758L28.7625 33.668C28.9522 33.7393 29.1613 33.7393 29.351 33.668L35.1967 31.4758L35.5646 32.7266L29.0567 35.3267L22.5489 32.7249V32.7266Z" fill="#454545"/>
</g>
<defs>
<clipPath id="clip0_4252_60445">
<rect width="26.7538" height="26.7538" fill="white" transform="translate(15.6799 14.4922)"/>
</clipPath>
</defs>
</svg>
