<svg width="34" height="34" viewBox="0 0 34 34" fill="none" xmlns="http://www.w3.org/2000/svg">
<rect x="0.5" y="0.5" width="33" height="33" rx="8.5" fill="white"/>
<rect x="0.5" y="0.5" width="33" height="33" rx="8.5" stroke="#212121"/>
<g clip-path="url(#clip0_2659_69042)">
<path d="M17 24C15.1435 24 13.363 23.2625 12.0503 21.9497C10.7375 20.637 10 18.8565 10 17C10 15.1435 10.7375 13.363 12.0503 12.0503C13.363 10.7375 15.1435 10 17 10C18.8565 10 20.637 10.7375 21.9497 12.0503C23.2625 13.363 24 15.1435 24 17C24 18.8565 23.2625 20.637 21.9497 21.9497C20.637 23.2625 18.8565 24 17 24ZM17 25C19.1217 25 21.1566 24.1571 22.6569 22.6569C24.1571 21.1566 25 19.1217 25 17C25 14.8783 24.1571 12.8434 22.6569 11.3431C21.1566 9.84285 19.1217 9 17 9C14.8783 9 12.8434 9.84285 11.3431 11.3431C9.84285 12.8434 9 14.8783 9 17C9 19.1217 9.84285 21.1566 11.3431 22.6569C12.8434 24.1571 14.8783 25 17 25Z" fill="black"/>
<path d="M17 13C17.1326 13 17.2598 13.0527 17.3536 13.1464C17.4473 13.2402 17.5 13.3674 17.5 13.5V16.5H20.5C20.6326 16.5 20.7598 16.5527 20.8536 16.6464C20.9473 16.7402 21 16.8674 21 17C21 17.1326 20.9473 17.2598 20.8536 17.3536C20.7598 17.4473 20.6326 17.5 20.5 17.5H17.5V20.5C17.5 20.6326 17.4473 20.7598 17.3536 20.8536C17.2598 20.9473 17.1326 21 17 21C16.8674 21 16.7402 20.9473 16.6464 20.8536C16.5527 20.7598 16.5 20.6326 16.5 20.5V17.5H13.5C13.3674 17.5 13.2402 17.4473 13.1464 17.3536C13.0527 17.2598 13 17.1326 13 17C13 16.8674 13.0527 16.7402 13.1464 16.6464C13.2402 16.5527 13.3674 16.5 13.5 16.5H16.5V13.5C16.5 13.3674 16.5527 13.2402 16.6464 13.1464C16.7402 13.0527 16.8674 13 17 13Z" fill="#001F3E"/>
</g>
<defs>
<clipPath id="clip0_2659_69042">
<rect width="16" height="16" fill="white" transform="translate(9 9)"/>
</clipPath>
</defs>
</svg>
