<svg width="42" height="42" viewBox="0 0 42 42" fill="none" xmlns="http://www.w3.org/2000/svg">
<rect x="0.5" y="0.5" width="41" height="41" rx="20.5" stroke="#212121"/>
<g clip-path="url(#clip0_2659_69137)">
<path d="M21 31.5C18.2152 31.5 15.5445 30.3938 13.5754 28.4246C11.6062 26.4555 10.5 23.7848 10.5 21C10.5 18.2152 11.6062 15.5445 13.5754 13.5754C15.5445 11.6062 18.2152 10.5 21 10.5C23.7848 10.5 26.4555 11.6062 28.4246 13.5754C30.3938 15.5445 31.5 18.2152 31.5 21C31.5 23.7848 30.3938 26.4555 28.4246 28.4246C26.4555 30.3938 23.7848 31.5 21 31.5ZM21 33C24.1826 33 27.2348 31.7357 29.4853 29.4853C31.7357 27.2348 33 24.1826 33 21C33 17.8174 31.7357 14.7652 29.4853 12.5147C27.2348 10.2643 24.1826 9 21 9C17.8174 9 14.7652 10.2643 12.5147 12.5147C10.2643 14.7652 9 17.8174 9 21C9 24.1826 10.2643 27.2348 12.5147 29.4853C14.7652 31.7357 17.8174 33 21 33Z" fill="black"/>
<path d="M21 15C21.1989 15 21.3897 15.079 21.5303 15.2197C21.671 15.3603 21.75 15.5511 21.75 15.75V20.25H26.25C26.4489 20.25 26.6397 20.329 26.7803 20.4697C26.921 20.6103 27 20.8011 27 21C27 21.1989 26.921 21.3897 26.7803 21.5303C26.6397 21.671 26.4489 21.75 26.25 21.75H21.75V26.25C21.75 26.4489 21.671 26.6397 21.5303 26.7803C21.3897 26.921 21.1989 27 21 27C20.8011 27 20.6103 26.921 20.4697 26.7803C20.329 26.6397 20.25 26.4489 20.25 26.25V21.75H15.75C15.5511 21.75 15.3603 21.671 15.2197 21.5303C15.079 21.3897 15 21.1989 15 21C15 20.8011 15.079 20.6103 15.2197 20.4697C15.3603 20.329 15.5511 20.25 15.75 20.25H20.25V15.75C20.25 15.5511 20.329 15.3603 20.4697 15.2197C20.6103 15.079 20.8011 15 21 15Z" fill="#001F3E"/>
</g>
<defs>
<clipPath id="clip0_2659_69137">
<rect width="24" height="24" fill="white" transform="translate(9 9)"/>
</clipPath>
</defs>
</svg>
