<svg width="8" height="7" viewBox="0 0 8 7" fill="none" xmlns="http://www.w3.org/2000/svg">
<path d="M0.645917 0.145917C0.692363 0.0993537 0.747538 0.0624107 0.808283 0.0372043C0.869028 0.0119978 0.93415 -0.000976562 0.999917 -0.000976562C1.06568 -0.000976562 1.13081 0.0119978 1.19155 0.0372043C1.2523 0.0624107 1.30747 0.0993537 1.35392 0.145917L3.99992 2.79292L6.64592 0.145917C6.6924 0.099429 6.74759 0.0625527 6.80833 0.0373936C6.86907 0.0122345 6.93417 -0.000714779 6.99992 -0.000714779C7.06566 -0.000714779 7.13076 0.0122345 7.1915 0.0373936C7.25224 0.0625527 7.30743 0.099429 7.35392 0.145917C7.4004 0.192405 7.43728 0.247594 7.46244 0.308333C7.4876 0.369073 7.50055 0.434173 7.50055 0.499917C7.50055 0.565661 7.4876 0.630761 7.46244 0.691501C7.43728 0.75224 7.4004 0.807429 7.35392 0.853917L4.70692 3.49992L7.35392 6.14592C7.4004 6.1924 7.43728 6.24759 7.46244 6.30833C7.4876 6.36907 7.50055 6.43417 7.50055 6.49992C7.50055 6.56566 7.4876 6.63076 7.46244 6.6915C7.43728 6.75224 7.4004 6.80743 7.35392 6.85392C7.30743 6.9004 7.25224 6.93728 7.1915 6.96244C7.13076 6.9876 7.06566 7.00055 6.99992 7.00055C6.93417 7.00055 6.86907 6.9876 6.80833 6.96244C6.74759 6.93728 6.6924 6.9004 6.64592 6.85392L3.99992 4.20692L1.35392 6.85392C1.30743 6.9004 1.25224 6.93728 1.1915 6.96244C1.13076 6.9876 1.06566 7.00055 0.999917 7.00055C0.934173 7.00055 0.869073 6.9876 0.808333 6.96244C0.747594 6.93728 0.692405 6.9004 0.645917 6.85392C0.599429 6.80743 0.562553 6.75224 0.537394 6.6915C0.512234 6.63076 0.499285 6.56566 0.499285 6.49992C0.499285 6.43417 0.512234 6.36907 0.537394 6.30833C0.562553 6.24759 0.599429 6.1924 0.645917 6.14592L3.29292 3.49992L0.645917 0.853917C0.599354 0.807471 0.562411 0.752296 0.537204 0.691551C0.511998 0.630805 0.499023 0.565684 0.499023 0.499917C0.499023 0.43415 0.511998 0.369028 0.537204 0.308283C0.562411 0.247538 0.599354 0.192363 0.645917 0.145917Z" fill="#5E5E5E"/>
</svg>
