<svg width="20" height="21" viewBox="0 0 20 21" fill="none" xmlns="http://www.w3.org/2000/svg">
<path d="M16.8725 1.49322L17.0588 1.30697C17.1989 1.16686 17.3654 1.05574 17.5485 0.979949C17.7316 0.904156 17.9279 0.865176 18.1261 0.865234C18.3243 0.865292 18.5205 0.904387 18.7036 0.980287C18.8867 1.05619 19.053 1.1674 19.1931 1.30759C19.3332 1.44778 19.4444 1.61419 19.5202 1.79732C19.5959 1.98045 19.6349 2.17671 19.6349 2.37491C19.6348 2.5731 19.5957 2.76935 19.5198 2.95243C19.4439 3.13552 19.3327 3.30186 19.1925 3.44197L19.0063 3.62697C19.3249 3.98429 19.4947 4.44996 19.481 4.9285C19.4673 5.40705 19.2711 5.86222 18.9325 6.20072L6.06751 19.067C5.98709 19.147 5.88641 19.2036 5.77626 19.2307L0.776264 20.4807C0.67163 20.5068 0.562034 20.5053 0.45813 20.4765C0.354226 20.4476 0.25955 20.3924 0.183302 20.3162C0.107055 20.2399 0.0518318 20.1453 0.0230001 20.0414C-0.0058317 19.9374 -0.00729094 19.8279 0.0187642 19.7232L1.26876 14.7232C1.29611 14.6135 1.35271 14.5133 1.43251 14.4332L13.485 2.38072C13.3645 2.29588 13.2178 2.25637 13.071 2.26918C12.9241 2.28199 12.7865 2.34629 12.6825 2.45072L8.56751 6.56697C8.5094 6.62508 8.44042 6.67117 8.36449 6.70262C8.28857 6.73407 8.20719 6.75026 8.12501 6.75026C8.04283 6.75026 7.96146 6.73407 7.88553 6.70262C7.80961 6.67117 7.74062 6.62508 7.68251 6.56697C7.6244 6.50886 7.57831 6.43987 7.54686 6.36395C7.51541 6.28802 7.49922 6.20665 7.49922 6.12447C7.49922 6.04229 7.51541 5.96091 7.54686 5.88499C7.57831 5.80906 7.6244 5.74008 7.68251 5.68197L11.8 1.56697C12.1387 1.22823 12.5943 1.03199 13.0731 1.01851C13.5519 1.00503 14.0178 1.17533 14.375 1.49447C14.7185 1.18751 15.1629 1.01773 15.6235 1.0175C16.0842 1.01727 16.5288 1.18661 16.8725 1.49322ZM16.0675 2.45072C15.9503 2.33355 15.7914 2.26772 15.6256 2.26772C15.4599 2.26772 15.301 2.33355 15.1838 2.45072L2.43751 15.1945L1.48251 19.0157L5.30376 18.0607L18.05 5.31697C18.1082 5.25891 18.1544 5.18994 18.1859 5.11401C18.2174 5.03808 18.2336 4.95668 18.2336 4.87447C18.2336 4.79226 18.2174 4.71086 18.1859 4.63492C18.1544 4.55899 18.1082 4.49002 18.05 4.43197L16.0688 2.45072H16.0675Z" fill="#454545"/>
</svg>
