<?xml version="1.0" encoding="utf-8"?>
<!-- Generator: Adobe Illustrator 25.0.0, SVG Export Plug-In . SVG Version: 6.00 Build 0)  -->
<svg version="1.1" xmlns="http://www.w3.org/2000/svg" xmlns:xlink="http://www.w3.org/1999/xlink" x="0px" y="0px"
	 viewBox="0 0 500 500" style="enable-background:new 0 0 500 500;" xml:space="preserve">
<style type="text/css">
	.st0{fill:#EBEBEB;}
	.st1{fill:#E6E6E6;}
	.st2{fill:#F0F0F0;}
	.st3{fill:#FAFAFA;}
	.st4{fill:#FFFFFF;}
	.st5{opacity:0.6;fill:#EBEBEB;}
	.st6{fill:#F5F5F5;}
	.st7{fill:#E0E0E0;}
	.st8{display:none;}
	.st9{display:inline;}
	.st10{fill:#407BFF;}
	.st11{opacity:0.9;fill:#FFFFFF;}
	.st12{opacity:0.5;fill:#FFFFFF;}
	.st13{fill:#FFB573;}
	.st14{fill:#263238;}
	.st15{fill:#FF5652;}
	.st16{opacity:0.2;}
	.st17{opacity:0.1;fill:#FFFFFF;}
	.st18{opacity:0.3;}
	.st19{opacity:0.4;}
	.st20{opacity:0.3;fill:#FFFFFF;}
</style>
<g id="Background_Complete">
	<g>
		<rect y="382.4" class="st0" width="500" height="0.25"/>
		<rect x="416.78" y="398.49" class="st0" width="33.12" height="0.25"/>
		<rect x="322.53" y="401.21" class="st0" width="8.69" height="0.25"/>
		<rect x="396.59" y="389.21" class="st0" width="19.19" height="0.25"/>
		<rect x="52.46" y="390.89" class="st0" width="43.19" height="0.25"/>
		<rect x="104.56" y="390.89" class="st0" width="6.33" height="0.25"/>
		<rect x="131.47" y="395.11" class="st0" width="93.68" height="0.25"/>
		<path class="st0" d="M237.01,337.8H43.92c-3.15,0-5.71-2.56-5.71-5.71V60.66c0-3.15,2.56-5.71,5.71-5.71h193.1
			c3.15,0,5.71,2.56,5.71,5.71v271.43C242.72,335.24,240.16,337.8,237.01,337.8z M43.92,55.2c-3.01,0-5.46,2.45-5.46,5.46v271.43
			c0,3.01,2.45,5.46,5.46,5.46h193.1c3.01,0,5.46-2.45,5.46-5.46V60.66c0-3.01-2.45-5.46-5.46-5.46H43.92z"/>
		<path class="st0" d="M453.31,337.8h-193.1c-3.15,0-5.71-2.56-5.71-5.71V60.66c0-3.15,2.56-5.71,5.71-5.71h193.1
			c3.15,0,5.71,2.56,5.71,5.71v271.43C459.02,335.24,456.46,337.8,453.31,337.8z M260.21,55.2c-3.01,0-5.46,2.45-5.46,5.46v271.43
			c0,3.01,2.45,5.46,5.46,5.46h193.1c3.01,0,5.46-2.45,5.46-5.46V60.66c0-3.01-2.45-5.46-5.46-5.46H260.21z"/>
	</g>
	<g>
		
			<rect x="289.69" y="83.83" transform="matrix(-1 -1.224647e-16 1.224647e-16 -1 717.1623 257.8902)" class="st1" width="137.78" height="90.23"/>
		
			<rect x="285.49" y="83.83" transform="matrix(-1 -1.224647e-16 1.224647e-16 -1 710.9939 257.8902)" class="st2" width="140.02" height="90.23"/>
		
			<rect x="289.69" y="174.06" transform="matrix(-1 -1.224647e-16 1.224647e-16 -1 717.1623 365.8246)" class="st1" width="137.78" height="17.71"/>
		
			<rect x="278.48" y="174.06" transform="matrix(-1 -1.224647e-16 1.224647e-16 -1 696.9867 365.8246)" class="st2" width="140.02" height="17.71"/>
		
			<rect x="316.27" y="64.82" transform="matrix(-1.836970e-16 1 -1 -1.836970e-16 484.4421 -226.5519)" class="st3" width="78.46" height="128.25"/>
		<polygon class="st4" points="390.7,168.17 374.32,89.72 348.76,89.72 365.14,168.17 		"/>
		<path class="st2" d="M416.9,162.32c0.23,0,0.42-0.19,0.42-0.42V93.55c0-0.23-0.19-0.42-0.42-0.42c-0.23,0-0.42,0.19-0.42,0.42
			v68.35C416.48,162.13,416.66,162.32,416.9,162.32z"/>
		<polygon class="st4" points="359.65,168.17 343.27,89.72 333.3,89.72 349.69,168.17 		"/>
		
			<rect x="252.52" y="128.57" transform="matrix(-1.836970e-16 1 -1 -1.836970e-16 420.6911 -162.8009)" class="st1" width="78.46" height="0.75"/>
		<polygon class="st5" points="284.09,98.59 421.88,98.59 422.42,92 284.64,92 		"/>
		<polygon class="st5" points="284.09,109.39 421.88,109.39 422.42,102.81 284.64,102.81 		"/>
		<polygon class="st5" points="284.09,120.2 421.88,120.2 422.42,113.61 284.64,113.61 		"/>
		<polygon class="st5" points="284.09,131 421.88,131 422.42,124.41 284.64,124.41 		"/>
		<polygon class="st5" points="284.09,141.8 421.88,141.8 422.42,135.21 284.64,135.21 		"/>
		<polygon class="st5" points="284.09,152.6 421.88,152.6 422.42,146.02 284.64,146.02 		"/>
	</g>
	<g>
		<g>
			<g>
				<rect x="378.8" y="316.78" class="st1" width="28.89" height="5.7"/>
				
					<rect x="324.31" y="251.33" transform="matrix(-1 -1.224647e-16 1.224647e-16 -1 653.9484 633.7317)" class="st1" width="5.33" height="131.07"/>
				
					<rect x="305.84" y="316.78" transform="matrix(-1 -1.224647e-16 1.224647e-16 -1 684.6346 639.2583)" class="st6" width="72.96" height="5.7"/>
				<rect x="378.8" y="347.95" class="st1" width="28.89" height="5.7"/>
				
					<rect x="305.84" y="347.95" transform="matrix(-1 -1.224647e-16 1.224647e-16 -1 684.6346 701.5915)" class="st6" width="72.96" height="5.7"/>
				<rect x="378.8" y="254.45" class="st1" width="28.89" height="5.7"/>
				
					<rect x="305.84" y="254.45" transform="matrix(-1 -1.224647e-16 1.224647e-16 -1 684.6346 514.5915)" class="st6" width="72.96" height="5.7"/>
				<rect x="378.8" y="285.61" class="st1" width="28.89" height="5.7"/>
				
					<rect x="305.84" y="285.61" transform="matrix(-1 -1.224647e-16 1.224647e-16 -1 684.6346 576.9249)" class="st6" width="72.96" height="5.7"/>
			</g>
		</g>
		
			<rect x="397.27" y="251.33" transform="matrix(-1 -1.224647e-16 1.224647e-16 -1 799.8751 633.7317)" class="st1" width="5.33" height="131.07"/>
		
			<rect x="373.47" y="251.33" transform="matrix(-1 -1.224647e-16 1.224647e-16 -1 752.2646 633.7317)" class="st6" width="5.33" height="131.07"/>
		
			<rect x="305.84" y="251.33" transform="matrix(-1 -1.224647e-16 1.224647e-16 -1 617.0045 633.7317)" class="st6" width="5.33" height="131.07"/>
	</g>
	<g>
		<g>
			
				<rect x="65.37" y="276.51" transform="matrix(-1 -1.224647e-16 1.224647e-16 -1 185.3254 658.9061)" class="st1" width="54.58" height="105.89"/>
			<polygon class="st3" points="79.95,382.4 65.37,382.4 65.37,367.78 95.23,367.78 			"/>
			
				<rect x="214.18" y="276.51" transform="matrix(-1 -1.224647e-16 1.224647e-16 -1 482.9448 658.9061)" class="st1" width="54.58" height="105.89"/>
			
				<rect x="65.37" y="276.51" transform="matrix(-1 -1.224647e-16 1.224647e-16 -1 292.2764 653.8746)" class="st3" width="161.53" height="100.86"/>
			<polygon class="st3" points="212.33,382.4 226.9,382.4 226.9,367.78 197.05,367.78 			"/>
			
				<rect x="76.68" y="314.09" transform="matrix(-1 -1.224647e-16 1.224647e-16 -1 292.2764 653.4225)" class="st2" width="138.92" height="25.24"/>
			
				<rect x="76.68" y="344.73" transform="matrix(-1 -1.224647e-16 1.224647e-16 -1 292.2764 714.6938)" class="st2" width="138.92" height="25.24"/>
			<path class="st3" d="M103.08,316.79h86.11c2.53,0,4.58-2.05,4.58-4.58v-0.31H98.51v0.31
				C98.51,314.74,100.56,316.79,103.08,316.79z"/>
			
				<rect x="76.68" y="283.46" transform="matrix(-1 -1.224647e-16 1.224647e-16 -1 292.2764 592.1511)" class="st2" width="138.92" height="25.24"/>
			<path class="st3" d="M103.08,286.15h86.11c2.53,0,4.58-2.05,4.58-4.58v-0.31H98.51v0.31C98.51,284.1,100.56,286.15,103.08,286.15
				z"/>
			<path class="st3" d="M103.08,347.43h86.11c2.53,0,4.58-2.05,4.58-4.58v-0.31H98.51v0.31
				C98.51,345.38,100.56,347.43,103.08,347.43z"/>
		</g>
	</g>
	<g>
		
			<rect x="74.07" y="83.83" transform="matrix(-1 -1.224647e-16 1.224647e-16 -1 285.9172 257.8902)" class="st1" width="137.78" height="90.23"/>
		
			<rect x="69.86" y="83.83" transform="matrix(-1 -1.224647e-16 1.224647e-16 -1 279.7489 257.8902)" class="st2" width="140.02" height="90.23"/>
		
			<rect x="74.07" y="174.06" transform="matrix(-1 -1.224647e-16 1.224647e-16 -1 285.9172 365.8246)" class="st1" width="137.78" height="17.71"/>
		
			<rect x="62.86" y="174.06" transform="matrix(-1 -1.224647e-16 1.224647e-16 -1 265.7415 365.8246)" class="st2" width="140.02" height="17.71"/>
		
			<rect x="100.65" y="64.82" transform="matrix(-1.836970e-16 1 -1 -1.836970e-16 268.8195 -10.9293)" class="st3" width="78.46" height="128.25"/>
		<polygon class="st4" points="175.08,168.17 158.7,89.72 133.14,89.72 149.52,168.17 		"/>
		<path class="st2" d="M201.27,162.32c0.23,0,0.42-0.19,0.42-0.42V93.55c0-0.23-0.19-0.42-0.42-0.42c-0.23,0-0.42,0.19-0.42,0.42
			v68.35C200.85,162.13,201.04,162.32,201.27,162.32z"/>
		<polygon class="st4" points="144.03,168.17 127.65,89.72 117.68,89.72 134.06,168.17 		"/>
		
			<rect x="36.9" y="128.57" transform="matrix(-1.836970e-16 1 -1 -1.836970e-16 205.0685 52.8217)" class="st1" width="78.46" height="0.75"/>
		<polygon class="st5" points="68.47,98.59 206.25,98.59 206.79,92 69.01,92 		"/>
		<polygon class="st5" points="68.47,102.31 206.25,102.31 206.79,95.72 69.01,95.72 		"/>
		<polygon class="st5" points="68.47,106.02 206.25,106.02 206.79,99.44 69.01,99.44 		"/>
		<polygon class="st5" points="68.47,109.74 206.25,109.74 206.79,103.15 69.01,103.15 		"/>
		<polygon class="st5" points="68.47,113.45 206.25,113.45 206.79,106.87 69.01,106.87 		"/>
		<polygon class="st5" points="68.47,117.17 206.25,117.17 206.79,110.58 69.01,110.58 		"/>
	</g>
	<g>
		
			<rect x="96.01" y="220.18" transform="matrix(-1 -1.224647e-16 1.224647e-16 -1 196.7898 493.45)" class="st6" width="4.76" height="53.09"/>
		
			<rect x="96.63" y="220.14" transform="matrix(-1 -1.224647e-16 1.224647e-16 -1 194.5989 493.3764)" class="st3" width="1.35" height="53.09"/>
		
			<rect x="98.54" y="220.14" transform="matrix(-1 -1.224647e-16 1.224647e-16 -1 197.5986 493.3766)" class="st3" width="0.53" height="53.09"/>
		<path class="st2" d="M80.76,276.51h35.26v0c0-2.45-1.99-4.44-4.44-4.44H85.21C82.75,272.06,80.76,274.05,80.76,276.51
			L80.76,276.51z"/>
		<path class="st2" d="M89.83,253.14L89.83,253.14c0.75,0,1.37-0.62,1.37-1.37v-34.81c0-0.75-0.62-1.37-1.37-1.37l0,0
			c-0.75,0-1.37,0.62-1.37,1.37v34.81C88.46,252.52,89.08,253.14,89.83,253.14z"/>
		<polygon class="st7" points="77.07,232.8 119.72,232.8 114.81,203 81.98,203 		"/>
	</g>
</g>
<g id="Background_Simple" class="st8">
	<g class="st9">
		<path class="st10" d="M240.47,127.1c48.1,5.38,69.22-36.32,116.88-30.86c42.54,4.87,71.88,35.18,61.95,76.01
			c-8.81,36.24-50.81,47.61-65.74,81.56c-15.83,35.99-28.1,74.79-75.9,87.32c-93.85,24.6-139.44-90.88-145.83-157.21
			c-2.45-25.46-6.73-86.33,26.5-94.21C191.79,81.76,210.96,123.8,240.47,127.1z"/>
		<path class="st11" d="M240.47,127.1c48.1,5.38,69.22-36.32,116.88-30.86c42.54,4.87,71.88,35.18,61.95,76.01
			c-8.81,36.24-50.81,47.61-65.74,81.56c-15.83,35.99-28.1,74.79-75.9,87.32c-93.85,24.6-139.44-90.88-145.83-157.21
			c-2.45-25.46-6.73-86.33,26.5-94.21C191.79,81.76,210.96,123.8,240.47,127.1z"/>
	</g>
</g>
<g id="Shadow_1_">
	<ellipse id="_x3C_Path_x3E__130_" class="st6" cx="250" cy="416.24" rx="193.89" ry="11.32"/>
</g>
<g id="Window_No_Data">
	<g>
		<g>
			
				<rect x="103.78" y="202.37" transform="matrix(0.9974 -0.0718 0.0718 0.9974 -14.9322 8.0379)" class="st10" width="1" height="18.49"/>
			
				<rect x="105.38" y="230.35" transform="matrix(0.9974 -0.0719 0.0719 0.9974 -16.5285 8.2128)" class="st10" width="1" height="6.96"/>
			<path class="st10" d="M337.71,315.16H123.55c-4.84,0-9.09-3.96-9.44-8.81l-10.52-146.13c-0.35-4.84,3.33-8.81,8.17-8.81h214.16
				c4.84,0,9.09,3.96,9.44,8.81l10.52,146.13C346.23,311.2,342.55,315.16,337.71,315.16z"/>
			<g>
				<g>
					<path class="st10" d="M338.53,315.16H124.37c-4.84,0-9.09-3.96-9.44-8.81l-10.52-146.13c-0.35-4.84,3.33-8.81,8.17-8.81h214.16
						c4.84,0,9.09,3.96,9.44,8.81l10.52,146.13C347.05,311.2,343.38,315.16,338.53,315.16z"/>
					<path class="st12" d="M338.53,315.16H124.37c-4.84,0-9.09-3.96-9.44-8.81l-10.52-146.13c-0.35-4.84,3.33-8.81,8.17-8.81h214.16
						c4.84,0,9.09,3.96,9.44,8.81l10.52,146.13C347.05,311.2,343.38,315.16,338.53,315.16z"/>
				</g>
				<path class="st10" d="M327.06,155.82H112.9c-0.24,0-0.48,0.01-0.72,0.03c-5.47,0.45-4.36,8.78,1.17,8.78h214.52
					c5.53,0,5.44-8.33-0.1-8.78C327.54,155.83,327.3,155.82,327.06,155.82z"/>
				<path class="st3" d="M118.48,160.22c0.08,1.12-0.76,2.02-1.87,2.02c-1.12,0-2.08-0.9-2.16-2.02c-0.08-1.12,0.76-2.02,1.87-2.02
					S118.4,159.11,118.48,160.22z"/>
				<path class="st3" d="M125.35,160.22c0.08,1.12-0.76,2.02-1.87,2.02c-1.12,0-2.08-0.9-2.16-2.02c-0.08-1.12,0.76-2.02,1.87-2.02
					C124.3,158.21,125.27,159.11,125.35,160.22z"/>
				<path class="st3" d="M132.21,160.22c0.08,1.12-0.76,2.02-1.87,2.02c-1.12,0-2.08-0.9-2.16-2.02c-0.08-1.12,0.76-2.02,1.87-2.02
					S132.13,159.11,132.21,160.22z"/>
			</g>
			<path class="st4" d="M332.85,300.58h-204.9c-1.76,0-3.3-1.43-3.42-3.19l-8.65-120.17c-0.13-1.76,1.2-3.19,2.96-3.19h204.9
				c1.76,0,3.3,1.43,3.42,3.19l8.65,120.17C335.94,299.15,334.62,300.58,332.85,300.58z"/>
		</g>
		<g>
			<g>
				<g>
					<g>
						<polygon class="st4" points="246.53,254.8 243.19,208.48 233.09,202.4 205.28,202.4 209.06,254.8 						"/>
						<path class="st10" d="M246.53,255.28h-37.47c-0.25,0-0.46-0.2-0.48-0.45l-3.77-52.4c-0.01-0.13,0.04-0.27,0.13-0.37
							c0.09-0.1,0.22-0.15,0.35-0.15h27.8c0.09,0,0.17,0.02,0.25,0.07l10.11,6.08c0.13,0.08,0.22,0.22,0.23,0.38l3.34,46.32
							c0.01,0.13-0.04,0.27-0.13,0.37C246.79,255.23,246.66,255.28,246.53,255.28z M209.51,254.31h36.5l-3.28-45.55l-9.78-5.88
							H205.8L209.51,254.31z"/>
					</g>
					<g>
						<polygon class="st0" points="243.19,208.48 233.09,202.4 236.8,210.45 						"/>
						<path class="st10" d="M236.8,210.94c-0.18,0-0.36-0.11-0.44-0.28l-3.71-8.06c-0.09-0.19-0.04-0.42,0.12-0.56
							c0.16-0.14,0.39-0.16,0.57-0.05l10.11,6.08c0.16,0.1,0.25,0.28,0.23,0.47c-0.02,0.19-0.16,0.35-0.34,0.4l-6.4,1.98
							C236.89,210.93,236.85,210.94,236.8,210.94z M234.19,203.62l2.88,6.24l4.96-1.53L234.19,203.62z"/>
					</g>
				</g>
				<g>
					<path class="st10" d="M220.97,226.01c0.08,1.17-0.8,2.12-1.96,2.12s-2.19-0.95-2.27-2.12c-0.08-1.17,0.8-2.12,1.96-2.12
						S220.88,224.84,220.97,226.01z"/>
					<path class="st10" d="M234.7,226.01c0.08,1.17-0.8,2.12-1.96,2.12c-1.17,0-2.19-0.95-2.27-2.12c-0.08-1.17,0.8-2.12,1.96-2.12
						C233.6,223.89,234.62,224.84,234.7,226.01z"/>
					<path class="st10" d="M238.58,239.74c-0.25,0-0.46-0.19-0.48-0.45c-0.25-3.4-5.58-6.17-11.9-6.17c-4.18,0-7.94,1.24-9.81,3.25
						c-0.83,0.89-1.21,1.85-1.14,2.86c0.02,0.27-0.18,0.5-0.45,0.52c-0.27,0.02-0.5-0.18-0.52-0.45c-0.09-1.27,0.39-2.51,1.4-3.59
						c2.04-2.19,6.07-3.56,10.52-3.56c6.93,0,12.58,3.11,12.87,7.07c0.02,0.27-0.18,0.5-0.45,0.52
						C238.6,239.73,238.59,239.74,238.58,239.74z"/>
				</g>
				<path class="st10" d="M213.17,221.72c-0.12,0-0.24-0.04-0.33-0.13c-0.2-0.18-0.21-0.49-0.03-0.68l2.12-2.29
					c0.18-0.2,0.49-0.21,0.68-0.03c0.2,0.18,0.21,0.49,0.03,0.68l-2.12,2.29C213.43,221.66,213.3,221.72,213.17,221.72z"/>
				<path class="st10" d="M237.58,221.72c-0.12,0-0.24-0.04-0.33-0.13l-2.45-2.29c-0.2-0.18-0.21-0.49-0.02-0.68
					c0.18-0.2,0.49-0.21,0.68-0.02l2.45,2.29c0.2,0.18,0.21,0.49,0.02,0.68C237.84,221.66,237.71,221.72,237.58,221.72z"/>
			</g>
			<g>
				<path class="st10" d="M202.26,265.15h2.26l3.26,4.33l-0.31-4.33h2.28l0.56,7.83h-2.28l-3.24-4.3l0.31,4.3h-2.28L202.26,265.15z"
					/>
				<path class="st10" d="M211.33,269.07c-0.09-1.28,0.19-2.27,0.85-2.99c0.66-0.71,1.63-1.07,2.9-1.07c1.3,0,2.33,0.35,3.09,1.05
					c0.76,0.7,1.18,1.68,1.27,2.94c0.07,0.92-0.03,1.67-0.3,2.25c-0.27,0.59-0.68,1.04-1.24,1.37c-0.56,0.33-1.27,0.49-2.14,0.49
					c-0.88,0-1.62-0.14-2.22-0.42c-0.6-0.28-1.1-0.73-1.5-1.34C211.63,270.75,211.4,269.99,211.33,269.07z M213.76,269.09
					c0.06,0.79,0.24,1.36,0.56,1.7c0.32,0.35,0.73,0.52,1.24,0.52c0.52,0,0.91-0.17,1.17-0.51c0.26-0.34,0.36-0.95,0.3-1.82
					c-0.05-0.74-0.24-1.28-0.56-1.62s-0.74-0.51-1.25-0.51c-0.49,0-0.87,0.17-1.14,0.52C213.8,267.72,213.7,268.29,213.76,269.09z"
					/>
				<path class="st10" d="M224.15,265.15h3.6c0.71,0,1.29,0.1,1.74,0.29c0.45,0.19,0.83,0.47,1.14,0.83
					c0.31,0.36,0.55,0.78,0.71,1.26c0.16,0.48,0.26,0.98,0.3,1.52c0.06,0.84,0.01,1.49-0.15,1.95c-0.16,0.46-0.39,0.85-0.71,1.16
					c-0.32,0.31-0.66,0.52-1.05,0.62c-0.52,0.14-1,0.21-1.43,0.21h-3.6L224.15,265.15z M226.7,266.93l0.31,4.28h0.59
					c0.51,0,0.86-0.06,1.07-0.17c0.21-0.11,0.36-0.31,0.46-0.59c0.1-0.28,0.13-0.73,0.08-1.36c-0.06-0.83-0.24-1.4-0.53-1.7
					c-0.29-0.31-0.75-0.46-1.38-0.46H226.7z"/>
				<path class="st10" d="M237.45,271.69h-2.75l-0.29,1.29h-2.47l2.38-7.83h2.64l3.51,7.83h-2.53L237.45,271.69z M236.82,270
					l-1.07-2.82L235.1,270H236.82z"/>
				<path class="st10" d="M239.37,265.15h7.36l0.14,1.93h-2.47l0.42,5.9h-2.42l-0.42-5.9h-2.47L239.37,265.15z"/>
				<path class="st10" d="M252.37,271.69h-2.75l-0.29,1.29h-2.47l2.38-7.83h2.64l3.51,7.83h-2.53L252.37,271.69z M251.74,270
					l-1.07-2.82l-0.65,2.82H251.74z"/>
			</g>
		</g>
	</g>
</g>
<g id="Character_1_">
	<g>
		<path class="st13" d="M353.69,173.08c0.89-0.45,1.96-1.03,2.94-1.57c1-0.55,2-1.13,2.98-1.72c1.96-1.21,3.93-2.4,5.81-3.72
			c3.78-2.61,7.33-5.5,10.51-8.65c0.42-0.38,0.77-0.81,1.16-1.21l0.57-0.61l0.29-0.31l0.14-0.15c0.04-0.04,0.03-0.03,0.01-0.01
			l-0.03,0.05c-0.14,0.27-0.02,0.19,0.03-0.07c0.07-0.25,0.12-0.65,0.14-1.09c0.06-1.82-0.29-4.1-0.73-6.32
			c-0.89-4.49-2.24-9.1-3.57-13.62l3.89-1.7c2.43,4.35,4.46,8.78,6.11,13.6c0.79,2.44,1.51,4.89,1.72,7.89
			c0.04,0.77,0.06,1.57-0.08,2.51c-0.15,0.92-0.38,2.03-1.22,3.28l-0.17,0.23l-0.13,0.17l-0.15,0.19l-0.31,0.37l-0.62,0.75
			c-0.42,0.49-0.81,1.02-1.26,1.48c-3.45,3.83-7.28,7.21-11.38,10.15c-2.04,1.49-4.12,2.9-6.28,4.19c-1.08,0.65-2.17,1.28-3.28,1.89
			c-1.12,0.62-2.19,1.17-3.47,1.77L353.69,173.08z"/>
		<path class="st10" d="M344.79,408.18c0.77,0,1.62-0.16,2.21-0.3c0.08-0.02,0.14-0.08,0.15-0.16c0.01-0.08-0.02-0.16-0.09-0.2
			c-0.29-0.19-2.83-1.83-3.81-1.39c-0.15,0.07-0.35,0.22-0.39,0.56c-0.06,0.44,0.05,0.8,0.33,1.05
			C343.55,408.07,344.15,408.18,344.79,408.18z M346.44,407.6c-1.46,0.29-2.55,0.24-2.98-0.15c-0.18-0.16-0.25-0.4-0.2-0.71
			c0.02-0.17,0.1-0.22,0.17-0.25C343.94,406.26,345.41,406.97,346.44,407.6z"/>
		<path class="st10" d="M346.96,407.88c0.03,0,0.07-0.01,0.1-0.03c0.06-0.04,0.1-0.1,0.1-0.17c0-0.1-0.01-2.51-0.92-3.32
			c-0.24-0.21-0.52-0.3-0.84-0.27c-0.5,0.06-0.63,0.37-0.67,0.55c-0.19,0.94,1.33,2.75,2.13,3.2
			C346.89,407.88,346.93,407.88,346.96,407.88z M345.53,404.49c0.16,0,0.31,0.06,0.44,0.17c0.54,0.48,0.73,1.83,0.78,2.64
			c-0.8-0.64-1.75-1.99-1.63-2.57c0.02-0.09,0.07-0.21,0.33-0.24C345.48,404.49,345.51,404.49,345.53,404.49z"/>
		<path class="st13" d="M346.22,148.07c-0.97,4.97-3.03,15.04,0.45,18.35c0,0-1.36,5.04-10.59,5.04c-10.16,0-4.85-5.04-4.85-5.04
			c5.54-1.32,5.4-5.44,4.43-9.3L346.22,148.07z"/>
		<path class="st14" d="M329.28,168.42c-1.59,0.22-0.24-3.91,0.41-4.34c1.5-0.99,20.85-2.39,20.73-0.04
			c-0.08,1.01-0.55,2.98-1.4,3.65C348.17,168.37,343.2,166.34,329.28,168.42z"/>
		<path class="st14" d="M332.44,167.03c-1.27,0.43-1.15-3.73-0.71-4.23c1-1.16,16.66-5.18,17.13-2.91c0.18,0.98,0.27,2.95-0.27,3.71
			C348.04,164.37,343.44,163.11,332.44,167.03z"/>
		<path class="st14" d="M326.61,139.11c-0.12,0.01-0.25-0.04-0.33-0.14c-1.12-1.37-2.58-1.23-2.59-1.23
			c-0.22,0.02-0.41-0.13-0.44-0.35c-0.02-0.22,0.13-0.41,0.35-0.44c0.08-0.01,1.9-0.18,3.29,1.51c0.14,0.17,0.11,0.42-0.06,0.56
			C326.77,139.07,326.69,139.1,326.61,139.11z"/>
		<path class="st15" d="M324.67,144c0,0-0.86,3.01-1.97,4.53c0.97,0.74,2.44,0.21,2.44,0.21L324.67,144z"/>
		<path class="st14" d="M325.16,142.79c0.07,0.67-0.24,1.25-0.68,1.3c-0.44,0.04-0.85-0.47-0.92-1.14c-0.07-0.67,0.24-1.25,0.68-1.3
			C324.68,141.6,325.09,142.11,325.16,142.79z"/>
		<path class="st14" d="M324.44,141.67l-1.66-0.31C322.78,141.36,323.73,142.54,324.44,141.67z"/>
		<polygon class="st13" points="356.7,407.69 348.32,407.69 348.98,388.29 357.36,388.29 		"/>
		<path class="st14" d="M347.66,406.72h9.41c0.34,0,0.62,0.24,0.67,0.57l1.07,7.45c0.11,0.77-0.55,1.5-1.34,1.49
			c-3.28-0.06-4.86-0.25-9-0.25c-2.55,0-6.27,0.26-9.78,0.26c-3.44,0-3.7-3.48-2.24-3.79c6.56-1.41,7.6-3.36,9.81-5.22
			C346.66,406.9,347.16,406.72,347.66,406.72z"/>
		<g class="st16">
			<polygon points="357.36,388.29 348.98,388.29 348.64,398.29 357.02,398.29 			"/>
		</g>
		<path class="st13" d="M323.37,178.04c-5.18-2.03-10.13-4.24-15.05-6.75c-4.92-2.52-9.75-5.19-14.4-8.77
			c-1.16-0.91-2.3-1.91-3.42-3.07c-0.28-0.3-0.56-0.58-0.83-0.92c-0.29-0.36-0.51-0.57-0.88-1.13c-0.68-0.97-1.2-2.28-1.34-3.61
			c-0.13-1.33,0.11-2.61,0.49-3.62c0.38-1.03,0.88-1.88,1.41-2.61c1.05-1.46,2.22-2.55,3.39-3.52c2.34-1.94,4.82-3.35,7.3-4.67
			c1.24-0.66,2.5-1.25,3.78-1.8c1.29-0.56,2.54-1.07,3.91-1.54l1.78,3.85c-4.36,2.75-8.88,5.77-12.2,9.16
			c-0.81,0.84-1.51,1.72-1.96,2.49c-0.48,0.79-0.47,1.38-0.39,1.33c0.04,0,0.02-0.02,0.14,0.1l0.4,0.43
			c0.15,0.18,0.36,0.36,0.55,0.55c0.79,0.73,1.71,1.47,2.7,2.17c1.98,1.41,4.17,2.73,6.43,3.97c2.25,1.25,4.57,2.45,6.94,3.59
			c4.71,2.26,9.6,4.43,14.39,6.41L323.37,178.04z"/>
		<path class="st13" d="M311.97,137.15l1.39-3l-6.3-2.19c0,0-1.96,5.9,0.38,8.63l0,0C309.42,140.27,311.13,138.98,311.97,137.15z"/>
		<polygon class="st13" points="313.35,127.66 308.32,126.21 307.06,131.96 313.35,134.15 		"/>
		<path class="st13" d="M378.35,134.44l0.73-7.02l-6.49,1.52c0,0-0.1,6.58,3.34,7.63L378.35,134.44z"/>
		<polygon class="st13" points="375.96,122.51 371.73,124.48 372.6,128.95 379.08,127.42 		"/>
		<path class="st13" d="M347.54,138.25c0.31,8.31,0.61,11.82-3.14,16.47c-5.65,6.99-15.92,5.55-18.7-2.5
			c-2.5-7.24-2.58-19.61,5.18-23.69C338.52,124.51,347.24,129.95,347.54,138.25z"/>
		<g>
			<path class="st14" d="M343.92,154.71c8.16-3.52,13.52-10.95,11.25-22.57c-2.17-11.12-9.67-12.21-12.77-9.91
				c-3.1,2.31-10.83-1.13-15.46,2.77c-8.03,6.76-0.44,14.05,3.52,18.37C332.82,148.22,335.92,158.16,343.92,154.71z"/>
			<path class="st10" d="M340.53,130.14c2.75,3.98,8.03,5.11,11.79,2.51c3.76-2.6,4.58-7.93,1.82-11.92
				c-2.75-3.98-8.03-5.11-11.79-2.51C338.6,120.82,337.78,126.15,340.53,130.14z"/>
			<path class="st14" d="M342.65,123c-1.18-6.7,5.16-11.86,13.64-9.37c8.47,2.5,3.99,10.01,2.25,16.01c-1.74,6,2.82,11.71,4.73,7.15
				c1.91-4.57-1.3-5.98-1.3-5.98s9,2.33,0.64,12.48c-8.36,10.14-15.93-1.06-13.88-7.67C350.39,130.28,343.77,129.33,342.65,123z"/>
			<path class="st14" d="M334.18,125.53c-3.87-2.02-10.42-3.65-14.15,2.62c-1.76,2.97-1.08,6.99-1.08,6.99l11.39,0.76L334.18,125.53
				z"/>
			<path class="st14" d="M317.61,133.18c-0.01,0-0.01,0-0.02,0c-0.14-0.01-0.24-0.13-0.23-0.26c0.01-0.17,0.29-4.19,2.71-6.72
				c5.87-6.1,12.75-1.04,14.72,0.66c0.1,0.09,0.12,0.25,0.03,0.35c-0.09,0.1-0.25,0.12-0.35,0.03c-1.88-1.62-8.47-6.47-14.03-0.69
				c-2.3,2.39-2.57,6.36-2.58,6.4C317.85,133.08,317.74,133.18,317.61,133.18z"/>
		</g>
		<path class="st13" d="M331.85,143.03c-0.01,1.62-0.74,3.2-1.66,4.28c-1.38,1.62-2.97,0.82-3.33-0.97c-0.33-1.61,0-4.4,1.74-5.37
			C330.33,140,331.87,141.18,331.85,143.03z"/>
		<g>
			<path class="st14" d="M330.05,219.12c0,0,0.53,58.14,5.58,90.54c4.07,26.17,11.61,86.69,11.61,86.69h11.42
				c0,0,1.12-58.42-0.95-84.31c-5.23-65.5,8.27-77.74-2.63-92.93H330.05z"/>
			<path class="st17" d="M330.05,219.12c0,0,0.53,58.14,5.58,90.54c4.07,26.17,11.61,86.69,11.61,86.69h11.42
				c0,0,1.12-58.42-0.95-84.31c-5.23-65.5,8.27-77.74-2.63-92.93H330.05z"/>
		</g>
		<path class="st18" d="M336.06,245.5c4.01,17.55,0.81,45.19-1.38,57.36c-2.32-18.48-3.49-42.43-4.07-59.98
			C332.68,239.52,334.64,239.3,336.06,245.5z"/>
		<polygon class="st10" points="345.68,396.58 360.23,396.58 360.99,391.48 345.6,390.96 		"/>
		<g>
			<path class="st10" d="M349.83,170.04c1.37-2.72,8.72-4.43,12.75-4.43l3.01,13.36c0,0-8.01,11.89-11.34,10.63
				C350.31,188.12,346.9,175.87,349.83,170.04z"/>
			<path class="st19" d="M349.83,170.04c1.37-2.72,8.72-4.43,12.75-4.43l3.01,13.36c0,0-8.01,11.89-11.34,10.63
				C350.31,188.12,346.9,175.87,349.83,170.04z"/>
		</g>
		<path class="st10" d="M341.35,393.31c0.04-0.06,0.04-0.13,0.01-0.2c-0.04-0.07-0.12-0.12-0.2-0.1c-0.42,0.06-4.12,0.65-4.62,1.71
			c-0.1,0.2-0.08,0.42,0.04,0.62c0.2,0.34,0.49,0.53,0.86,0.57c1.21,0.13,2.96-1.56,3.9-2.57
			C341.34,393.33,341.35,393.32,341.35,393.31z M336.91,394.85c0.34-0.56,2.26-1.08,3.72-1.35c-1.32,1.34-2.48,2.09-3.16,2.02
			c-0.24-0.02-0.42-0.15-0.56-0.38c-0.05-0.09-0.06-0.17-0.02-0.25C336.9,394.88,336.9,394.86,336.91,394.85z"/>
		<path class="st10" d="M341.35,393.31c0.01-0.01,0.01-0.03,0.02-0.04c0.02-0.07,0.01-0.14-0.04-0.19
			c-0.06-0.07-1.55-1.78-2.91-1.87c-0.42-0.03-0.79,0.1-1.09,0.37c-0.41,0.37-0.38,0.69-0.27,0.89c0.43,0.86,3.09,1.16,4.17,0.93
			C341.28,393.39,341.32,393.36,341.35,393.31z M337.44,392.05c0.03-0.05,0.08-0.11,0.16-0.18c0.23-0.2,0.49-0.29,0.8-0.27
			c0.9,0.06,1.92,0.99,2.38,1.46c-1.19,0.1-3.11-0.26-3.37-0.78C337.4,392.26,337.36,392.18,337.44,392.05z"/>
		<polygon class="st13" points="350.08,389.77 342.42,393.17 339.01,386.06 334.55,376.76 334.02,375.68 341.68,372.27 
			342.27,373.49 346.59,382.5 		"/>
		<polygon class="st16" points="346.59,382.5 339.01,386.06 334.55,376.76 342.27,373.49 		"/>
		<g>
			<path class="st14" d="M321.07,219.12c0,0-24.47,60.83-17.84,89.48c6,25.89,32.5,74.92,32.5,74.92l10.25-5.15
				c0,0-16.39-59.19-18.17-72.05c-3.46-25.02,18.78-60.33,18.78-87.21L321.07,219.12z"/>
			<path class="st17" d="M321.07,219.12c0,0-24.47,60.83-17.84,89.48c6,25.89,32.5,74.92,32.5,74.92l10.25-5.15
				c0,0-16.39-59.19-18.17-72.05c-3.46-25.02,18.78-60.33,18.78-87.21L321.07,219.12z"/>
		</g>
		<path class="st14" d="M341.06,392.1l7.61-5.54c0.28-0.2,0.64-0.17,0.88,0.07l5.25,5.39c0.54,0.56,0.44,1.54-0.21,1.99
			c-2.69,1.89-4.08,2.66-7.42,5.09c-2.06,1.5-6.16,4.81-9,6.88c-2.78,2.02-5.04-0.63-4.04-1.75c4.48-5,5.42-8.1,6.11-10.9
			C340.35,392.84,340.65,392.4,341.06,392.1z"/>
		<polygon class="st10" points="335.07,385.69 348.3,379.64 346.61,374.25 332.44,380.71 		"/>
		<g>
			<path class="st10" d="M327.56,169.36c-1.1-2.84-10.66-5.96-15.45-7.04L310,178.08c0,0,7.83,11.26,11.27,10.32
				C325.33,187.31,329.92,175.45,327.56,169.36z"/>
			<path class="st19" d="M327.56,169.36c-1.1-2.84-10.66-5.96-15.45-7.04L310,178.08c0,0,7.83,11.26,11.27,10.32
				C325.33,187.31,329.92,175.45,327.56,169.36z"/>
		</g>
		<g>
			<path class="st10" d="M317.07,168.57c0,0-3.99,1.41,4,50.55c13.5,0,27.45,0,34.02,0c-0.57-13.85-0.59-22.38,6.03-50.8
				c0,0-7.13-1.55-14.45-1.9c-5.72-0.28-10.42-0.46-15.45,0C324.59,167.03,317.07,168.57,317.07,168.57z"/>
			<path class="st19" d="M317.07,168.57c0,0-3.99,1.41,4,50.55c13.5,0,27.45,0,34.02,0c-0.57-13.85-0.59-22.38,6.03-50.8
				c0,0-7.13-1.55-14.45-1.9c-5.72-0.28-10.42-0.46-15.45,0C324.59,167.03,317.07,168.57,317.07,168.57z"/>
		</g>
		<g>
			<path class="st10" d="M355.6,217.13l1.53,3.05c0.12,0.24-0.16,0.48-0.55,0.48H320.9c-0.31,0-0.56-0.15-0.58-0.34l-0.31-3.04
				c-0.02-0.21,0.24-0.39,0.58-0.39h34.45C355.3,216.87,355.52,216.97,355.6,217.13z"/>
			<path class="st20" d="M355.6,217.13l1.53,3.05c0.12,0.24-0.16,0.48-0.55,0.48H320.9c-0.31,0-0.56-0.15-0.58-0.34l-0.31-3.04
				c-0.02-0.21,0.24-0.39,0.58-0.39h34.45C355.3,216.87,355.52,216.97,355.6,217.13z"/>
		</g>
		<path class="st14" d="M350.97,220.98h0.92c0.18,0,0.32-0.09,0.31-0.21l-0.43-3.96c-0.01-0.12-0.17-0.21-0.36-0.21h-0.92
			c-0.18,0-0.32,0.09-0.31,0.21l0.43,3.96C350.63,220.88,350.79,220.98,350.97,220.98z"/>
		<path class="st14" d="M328.61,220.98h0.92c0.18,0,0.32-0.09,0.31-0.21l-0.43-3.96c-0.01-0.12-0.17-0.21-0.36-0.21h-0.92
			c-0.18,0-0.32,0.09-0.31,0.21l0.43,3.96C328.26,220.88,328.42,220.98,328.61,220.98z"/>
	</g>
</g>
</svg>
