<?xml version="1.0" encoding="iso-8859-1"?>
<!-- Generator: Adobe Illustrator 16.0.0, SVG Export Plug-In . SVG Version: 6.00 Build 0)  -->
<!DOCTYPE svg PUBLIC "-//W3C//DTD SVG 1.1//EN" "http://www.w3.org/Graphics/SVG/1.1/DTD/svg11.dtd">
<svg version="1.1" xmlns="http://www.w3.org/2000/svg" xmlns:xlink="http://www.w3.org/1999/xlink" x="0px" y="0px"
	 width="420.812px" height="389px" viewBox="0 0 420.812 389" style="enable-background:new 0 0 420.812 389;" xml:space="preserve"
	>
<g id="Background_Complete">
	<g>
		<rect x="-38.207" y="334.398" style="fill:#EBEBEB;" width="500" height="0.25"/>
		<rect x="378.573" y="350.495" style="fill:#EBEBEB;" width="33.122" height="0.25"/>
		<rect x="284.32" y="353.208" style="fill:#EBEBEB;" width="8.693" height="0.25"/>
		<rect x="358.379" y="341.208" style="fill:#EBEBEB;" width="19.192" height="0.25"/>
		<rect x="14.252" y="342.889" style="fill:#EBEBEB;" width="43.194" height="0.25"/>
		<rect x="66.349" y="342.889" style="fill:#EBEBEB;" width="6.333" height="0.25"/>
		<rect x="93.265" y="347.111" style="fill:#EBEBEB;" width="93.675" height="0.25"/>
		<path style="fill:#EBEBEB;" d="M198.807,289.8H5.708C2.561,289.8,0,287.239,0,284.092V12.66c0-3.147,2.561-5.707,5.708-5.707
			h193.099c3.146,0,5.707,2.56,5.707,5.707v271.432C204.514,287.239,201.954,289.8,198.807,289.8z M5.708,7.203
			c-3.009,0-5.458,2.448-5.458,5.458v271.432c0,3.009,2.449,5.458,5.458,5.458h193.099c3.009,0,5.457-2.448,5.457-5.458V12.66
			c0-3.009-2.448-5.458-5.457-5.458H5.708z"/>
		<path style="fill:#EBEBEB;" d="M415.104,289.8H222.005c-3.146,0-5.707-2.561-5.707-5.708V12.66c0-3.147,2.561-5.707,5.707-5.707
			h193.099c3.147,0,5.708,2.56,5.708,5.707v271.432C420.812,287.239,418.251,289.8,415.104,289.8z M222.005,7.203
			c-3.009,0-5.457,2.448-5.457,5.458v271.432c0,3.009,2.448,5.458,5.457,5.458h193.099c3.01,0,5.458-2.448,5.458-5.458V12.66
			c0-3.009-2.448-5.458-5.458-5.458H222.005z"/>
	</g>
	<g>
		<rect x="251.485" y="35.832" style="fill:#E6E6E6;" width="137.781" height="90.227"/>
		<rect x="247.28" y="35.832" style="fill:#F0F0F0;" width="140.021" height="90.227"/>
		<rect x="251.485" y="126.058" style="fill:#E6E6E6;" width="137.781" height="17.708"/>
		<rect x="240.276" y="126.058" style="fill:#F0F0F0;" width="140.021" height="17.708"/>
		<rect x="253.165" y="41.718" style="fill:#FAFAFA;" width="128.25" height="78.456"/>
		<polygon style="fill:#FFFFFF;" points="352.496,120.174 336.115,41.718 310.554,41.718 326.935,120.174 		"/>
		<path style="fill:#F0F0F0;" d="M378.69,114.315c0.232,0,0.421-0.188,0.421-0.421V45.546c0-0.232-0.189-0.42-0.421-0.42
			s-0.42,0.188-0.42,0.42v68.348C378.27,114.127,378.458,114.315,378.69,114.315z"/>
		<polygon style="fill:#FFFFFF;" points="321.444,120.174 305.063,41.718 295.098,41.718 311.479,120.174 		"/>
		<rect x="253.165" y="41.718" style="fill:#E6E6E6;" width="0.748" height="78.456"/>
		<polygon style="opacity:0.6;fill:#EBEBEB;" points="245.888,50.591 383.669,50.591 384.211,44.005 246.43,44.005 		"/>
		<polygon style="opacity:0.6;fill:#EBEBEB;" points="245.888,61.394 383.669,61.394 384.211,54.807 246.43,54.807 		"/>
		<polygon style="opacity:0.6;fill:#EBEBEB;" points="245.888,72.195 383.669,72.195 384.211,65.61 246.43,65.61 		"/>
		<polygon style="opacity:0.6;fill:#EBEBEB;" points="245.888,82.998 383.669,82.998 384.211,76.411 246.43,76.411 		"/>
		<polygon style="opacity:0.6;fill:#EBEBEB;" points="245.888,93.799 383.669,93.799 384.211,87.214 246.43,87.214 		"/>
		<polygon style="opacity:0.6;fill:#EBEBEB;" points="245.888,104.602 383.669,104.602 384.211,98.015 246.43,98.015 		"/>
	</g>
	<g>
		<g>
			<g>
				<rect x="340.592" y="268.781" style="fill:#E6E6E6;" width="28.889" height="5.696"/>
				<rect x="286.101" y="203.334" style="fill:#E6E6E6;" width="5.333" height="131.065"/>
				<rect x="267.629" y="268.781" style="fill:#F5F5F5;" width="72.963" height="5.696"/>
				<rect x="340.592" y="299.948" style="fill:#E6E6E6;" width="28.889" height="5.695"/>
				<rect x="267.629" y="299.948" style="fill:#F5F5F5;" width="72.963" height="5.695"/>
				<rect x="340.592" y="206.448" style="fill:#E6E6E6;" width="28.889" height="5.695"/>
				<rect x="267.629" y="206.448" style="fill:#F5F5F5;" width="72.963" height="5.695"/>
				<rect x="340.592" y="237.615" style="fill:#E6E6E6;" width="28.889" height="5.696"/>
				<rect x="267.629" y="237.615" style="fill:#F5F5F5;" width="72.963" height="5.696"/>
			</g>
		</g>
		<rect x="359.064" y="203.334" style="fill:#E6E6E6;" width="5.333" height="131.065"/>
		<rect x="335.259" y="203.334" style="fill:#F5F5F5;" width="5.333" height="131.065"/>
		<rect x="267.629" y="203.334" style="fill:#F5F5F5;" width="5.333" height="131.065"/>
	</g>
	<g>
		<g>
			<rect x="27.167" y="228.507" style="fill:#E6E6E6;" width="54.578" height="105.893"/>
			<polygon style="fill:#FAFAFA;" points="41.741,334.399 27.167,334.399 27.167,319.782 57.021,319.782 			"/>
			<rect x="175.977" y="228.507" style="fill:#E6E6E6;" width="54.578" height="105.893"/>
			<rect x="27.167" y="228.507" style="fill:#FAFAFA;" width="161.529" height="100.861"/>
			<polygon style="fill:#FAFAFA;" points="174.122,334.399 188.696,334.399 188.696,319.782 158.842,319.782 			"/>
			<rect x="38.473" y="266.091" style="fill:#F0F0F0;" width="138.917" height="25.241"/>
			<rect x="38.473" y="296.726" style="fill:#F0F0F0;" width="138.917" height="25.241"/>
			<path style="fill:#FAFAFA;" d="M64.877,268.79h86.109c2.527,0,4.576-2.049,4.576-4.576v-0.309H60.301v0.309
				C60.301,266.741,62.35,268.79,64.877,268.79z"/>
			<rect x="38.473" y="235.456" style="fill:#F0F0F0;" width="138.917" height="25.241"/>
			<path style="fill:#FAFAFA;" d="M64.877,238.154h86.109c2.527,0,4.576-2.049,4.576-4.577v-0.308H60.301v0.308
				C60.301,236.105,62.35,238.154,64.877,238.154z"/>
			<path style="fill:#FAFAFA;" d="M64.877,299.425h86.109c2.527,0,4.576-2.049,4.576-4.576v-0.309H60.301v0.309
				C60.301,297.376,62.35,299.425,64.877,299.425z"/>
		</g>
	</g>
	<g>
		<rect x="35.861" y="35.832" style="fill:#E6E6E6;" width="137.781" height="90.227"/>
		<rect x="31.658" y="35.832" style="fill:#F0F0F0;" width="140.021" height="90.227"/>
		<rect x="35.861" y="126.058" style="fill:#E6E6E6;" width="137.781" height="17.708"/>
		<rect x="24.654" y="126.058" style="fill:#F0F0F0;" width="140.021" height="17.708"/>
		<rect x="37.543" y="41.718" style="fill:#FAFAFA;" width="128.249" height="78.456"/>
		<polygon style="fill:#FFFFFF;" points="136.873,120.174 120.493,41.718 94.931,41.718 111.312,120.174 		"/>
		<path style="fill:#F0F0F0;" d="M163.068,114.315c0.232,0,0.42-0.188,0.42-0.421V45.546c0-0.232-0.188-0.42-0.42-0.42
			c-0.233,0-0.421,0.188-0.421,0.42v68.348C162.647,114.127,162.835,114.315,163.068,114.315z"/>
		<polygon style="fill:#FFFFFF;" points="105.821,120.174 89.44,41.718 79.475,41.718 95.856,120.174 		"/>
		<rect x="37.543" y="41.718" style="fill:#E6E6E6;" width="0.748" height="78.456"/>
		<polygon style="opacity:0.6;fill:#EBEBEB;" points="30.266,50.591 168.047,50.591 168.588,44.005 30.807,44.005 		"/>
		<polygon style="opacity:0.6;fill:#EBEBEB;" points="30.266,54.307 168.047,54.307 168.588,47.721 30.807,47.721 		"/>
		<polygon style="opacity:0.6;fill:#EBEBEB;" points="30.266,58.022 168.047,58.022 168.588,51.436 30.807,51.436 		"/>
		<polygon style="opacity:0.6;fill:#EBEBEB;" points="30.266,61.738 168.047,61.738 168.588,55.151 30.807,55.151 		"/>
		<polygon style="opacity:0.6;fill:#EBEBEB;" points="30.266,65.453 168.047,65.453 168.588,58.867 30.807,58.867 		"/>
		<polygon style="opacity:0.6;fill:#EBEBEB;" points="30.266,69.168 168.047,69.168 168.588,62.582 30.807,62.582 		"/>
	</g>
	<g>
		<rect x="57.807" y="172.179" style="fill:#F5F5F5;" width="4.763" height="53.093"/>
		<rect x="58.42" y="172.142" style="fill:#FAFAFA;" width="1.346" height="53.092"/>
		<rect x="60.329" y="172.143" style="fill:#FAFAFA;" width="0.527" height="53.092"/>
		<path style="fill:#F0F0F0;" d="M42.556,228.507H77.82l0,0c0-2.454-1.989-4.443-4.443-4.443H46.999
			C44.545,224.064,42.556,226.053,42.556,228.507L42.556,228.507z"/>
		<path style="fill:#F0F0F0;" d="M51.628,205.139L51.628,205.139c0.754,0,1.371-0.617,1.371-1.37v-34.811
			c0-0.753-0.617-1.37-1.371-1.37l0,0c-0.753,0-1.37,0.617-1.37,1.37v34.811C50.258,204.522,50.875,205.139,51.628,205.139z"/>
		<polygon style="fill:#E0E0E0;" points="38.867,184.799 81.51,184.799 76.604,155 43.772,155 		"/>
	</g>
</g>
<g id="Background_Simple" style="display:none;">
	<g style="display:inline;">
		<path style="fill:#407BFF;" d="M213.262,120.098c48.1,5.378,69.216-36.321,116.882-30.86
			c42.545,4.875,71.876,35.185,61.948,76.006c-8.813,36.235-50.805,47.609-65.736,81.557
			c-15.827,35.985-28.104,74.793-75.902,87.319c-93.855,24.597-139.441-90.883-145.828-157.209
			c-2.451-25.461-6.729-86.328,26.505-94.215C164.581,74.756,183.756,116.799,213.262,120.098z"/>
		<path style="opacity:0.9;fill:#FFFFFF;" d="M213.262,120.098c48.1,5.378,69.216-36.321,116.882-30.86
			c42.545,4.875,71.876,35.185,61.948,76.006c-8.813,36.235-50.805,47.609-65.736,81.557
			c-15.827,35.985-28.104,74.793-75.902,87.319c-93.855,24.597-139.441-90.883-145.828-157.209
			c-2.451-25.461-6.729-86.328,26.505-94.215C164.581,74.756,183.756,116.799,213.262,120.098z"/>
	</g>
</g>
<g id="Shadow_1_">
	<ellipse id="_x3C_Path_x3E__1_" style="fill:#F5F5F5;" cx="211.794" cy="368.238" rx="193.889" ry="11.324"/>
</g>
<g id="Window_No_Data">
	<g>
		<g>
			
				<rect x="56.831" y="163.117" transform="matrix(0.0718 0.9974 -0.9974 0.0718 224.5239 85.9585)" style="fill:#745B00;" width="18.49" height="1"/>
			
				<rect x="64.198" y="185.329" transform="matrix(0.0719 0.9974 -0.9974 0.0719 248.1587 104.9695)" style="fill:#745B00;" width="6.955" height="1"/>
			<path style="fill:#745B00;" d="M299.504,267.161H85.347c-4.844,0-9.092-3.962-9.441-8.807L65.383,112.225
				c-0.349-4.844,3.329-8.807,8.173-8.807h214.158c4.844,0,9.092,3.963,9.441,8.807l10.523,146.129
				C308.026,263.199,304.348,267.161,299.504,267.161z"/>
			<g>
				<g>
					<path style="fill:#FFCE26;" d="M300.325,267.161H86.168c-4.844,0-9.093-3.962-9.441-8.807L66.204,112.225
						c-0.349-4.844,3.329-8.807,8.173-8.807h214.157c4.844,0,9.093,3.963,9.441,8.807l10.522,146.129
						C308.847,263.199,305.169,267.161,300.325,267.161z"/>
					<path style="opacity:0.5;fill:#FFFFFF;" d="M300.325,267.161H86.168c-4.844,0-9.093-3.962-9.441-8.807L66.204,112.225
						c-0.349-4.844,3.329-8.807,8.173-8.807h214.157c4.844,0,9.093,3.963,9.441,8.807l10.522,146.129
						C308.847,263.199,305.169,267.161,300.325,267.161z"/>
				</g>
				<path style="fill:#745B00;" d="M288.852,107.821H74.694c-0.242,0-0.481,0.009-0.718,0.029c-5.474,0.451-4.356,8.777,1.169,8.777
					h214.522c5.525,0,5.444-8.327-0.095-8.777C289.334,107.831,289.094,107.821,288.852,107.821z"/>
				<path style="fill:#FAFAFA;" d="M80.271,112.225c0.081,1.115-0.758,2.019-1.873,2.019c-1.115,0-2.084-0.903-2.165-2.019
					c-0.081-1.115,0.758-2.02,1.874-2.02S80.191,111.11,80.271,112.225z"/>
				<path style="fill:#FAFAFA;" d="M87.139,112.225c0.081,1.115-0.758,2.019-1.874,2.019s-2.084-0.903-2.165-2.019
					c-0.08-1.115,0.759-2.02,1.874-2.02C86.09,110.206,87.059,111.11,87.139,112.225z"/>
				<path style="fill:#FAFAFA;" d="M94.007,112.225c0.08,1.115-0.759,2.019-1.874,2.019c-1.116,0-2.084-0.903-2.165-2.019
					c-0.081-1.115,0.758-2.02,1.874-2.02S93.927,111.11,94.007,112.225z"/>
			</g>
			<path style="fill:#FFFFFF;" d="M294.647,252.577H89.745c-1.764,0-3.295-1.43-3.422-3.193l-8.654-120.173
				c-0.126-1.763,1.2-3.192,2.963-3.192h204.903c1.764,0,3.296,1.43,3.423,3.192l8.653,120.173
				C297.738,251.147,296.411,252.577,294.647,252.577z"/>
		</g>
		<g>
			<g>
				<g>
					<g>
						<polygon style="fill:#FFFFFF;" points="208.323,206.798 204.988,160.479 194.881,154.396 167.077,154.396 170.85,206.798 
													"/>
						<path style="fill:#745B00;" d="M208.323,207.283H170.85c-0.254,0-0.465-0.196-0.483-0.45l-3.773-52.401
							c-0.009-0.135,0.037-0.267,0.129-0.365c0.092-0.099,0.22-0.155,0.354-0.155h27.804c0.088,0,0.174,0.024,0.25,0.069
							l10.107,6.083c0.135,0.081,0.222,0.223,0.233,0.38l3.335,46.319c0.009,0.135-0.037,0.267-0.129,0.365
							C208.586,207.228,208.458,207.283,208.323,207.283z M171.301,206.314h36.501l-3.28-45.549l-9.775-5.885h-27.149
							L171.301,206.314z"/>
					</g>
					<g>
						<polygon style="fill:#EBEBEB;" points="204.988,160.479 194.881,154.396 198.591,162.456 						"/>
						<path style="fill:#745B00;" d="M198.592,162.94c-0.185,0-0.36-0.107-0.44-0.282l-3.711-8.06
							c-0.088-0.193-0.041-0.421,0.118-0.563c0.158-0.142,0.391-0.164,0.573-0.055l10.107,6.084
							c0.164,0.099,0.254,0.284,0.231,0.474c-0.023,0.19-0.155,0.348-0.338,0.404l-6.396,1.976
							C198.687,162.933,198.639,162.94,198.592,162.94z M195.979,155.622l2.875,6.245l4.956-1.531L195.979,155.622z"/>
					</g>
				</g>
				<path style="fill:#745B00;" d="M177.172,185.893c-0.152-0.146-0.258-0.339-0.283-0.555c-0.049-0.454,0.276-0.826,0.729-0.833
					l5.282-0.072c0.453-0.009,0.862,0.356,0.912,0.808c0.053,0.455-0.273,0.826-0.727,0.832l-5.282,0.075
					C177.563,186.15,177.339,186.052,177.172,185.893z"/>
				<path style="fill:#745B00;" d="M177.172,173.58c-0.152-0.144-0.258-0.339-0.283-0.555c-0.049-0.454,0.276-0.826,0.729-0.833
					l19.282-0.072c0.453-0.009,0.862,0.356,0.912,0.809c0.053,0.455-0.273,0.826-0.727,0.833l-19.282,0.074
					C177.563,173.838,177.339,173.739,177.172,173.58z"/>
				<path style="fill:#745B00;" d="M177.172,179.736c-0.152-0.144-0.258-0.338-0.283-0.555c-0.049-0.454,0.276-0.826,0.729-0.833
					l19.282-0.073c0.453-0.009,0.862,0.356,0.912,0.809c0.053,0.455-0.273,0.826-0.727,0.832l-19.282,0.074
					C177.563,179.994,177.339,179.896,177.172,179.736z"/>
			</g>
			<g>
				<path style="fill:#745B00;" d="M164.051,217.153h2.26l3.261,4.333l-0.312-4.333h2.281l0.564,7.833h-2.281l-3.243-4.3l0.31,4.3
					h-2.276L164.051,217.153z"/>
				<path style="fill:#745B00;" d="M173.127,221.075c-0.092-1.279,0.193-2.274,0.854-2.987s1.627-1.068,2.899-1.068
					c1.304,0,2.333,0.35,3.089,1.049c0.756,0.7,1.179,1.681,1.27,2.942c0.066,0.915-0.034,1.666-0.301,2.252
					c-0.265,0.586-0.678,1.042-1.237,1.368c-0.559,0.325-1.273,0.489-2.142,0.489c-0.884,0-1.625-0.141-2.225-0.422
					c-0.598-0.281-1.1-0.726-1.503-1.335C173.428,222.752,173.193,221.99,173.127,221.075z M175.548,221.086
					c0.057,0.79,0.245,1.358,0.563,1.704c0.319,0.345,0.731,0.518,1.237,0.518c0.52,0,0.911-0.168,1.171-0.507
					c0.261-0.338,0.359-0.946,0.296-1.822c-0.053-0.738-0.241-1.276-0.563-1.617c-0.322-0.34-0.737-0.51-1.247-0.51
					c-0.488,0-0.867,0.173-1.138,0.519C175.598,219.716,175.491,220.287,175.548,221.086z"/>
				<path style="fill:#745B00;" d="M185.946,217.153h3.595c0.709,0,1.289,0.096,1.739,0.289c0.45,0.192,0.831,0.468,1.142,0.828
					c0.31,0.36,0.547,0.779,0.71,1.255c0.162,0.478,0.263,0.983,0.302,1.518c0.06,0.837,0.012,1.486-0.146,1.947
					c-0.158,0.461-0.394,0.848-0.71,1.16c-0.316,0.311-0.665,0.519-1.045,0.622c-0.521,0.143-0.996,0.214-1.428,0.214h-3.595
					L185.946,217.153z M188.494,218.927l0.309,4.28h0.593c0.506,0,0.862-0.057,1.067-0.168c0.206-0.112,0.359-0.309,0.46-0.587
					c0.101-0.281,0.129-0.734,0.083-1.361c-0.06-0.83-0.236-1.398-0.529-1.705c-0.292-0.306-0.752-0.459-1.379-0.459H188.494z"/>
				<path style="fill:#745B00;" d="M199.241,223.692h-2.748l-0.289,1.293h-2.471l2.38-7.833h2.64l3.507,7.833h-2.535
					L199.241,223.692z M198.617,221.999l-1.067-2.816l-0.653,2.816H198.617z"/>
				<path style="fill:#745B00;" d="M201.162,217.153h7.357l0.14,1.934h-2.469l0.425,5.899h-2.42l-0.425-5.899h-2.468
					L201.162,217.153z"/>
				<path style="fill:#745B00;" d="M214.159,223.692h-2.748l-0.289,1.293h-2.471l2.38-7.833h2.64l3.507,7.833h-2.535
					L214.159,223.692z M213.535,221.999l-1.067-2.816l-0.653,2.816H213.535z"/>
			</g>
		</g>
	</g>
</g>
<g id="Character_1_">
	<g>
		<path style="fill:#FFB573;" d="M315.481,125.08c0.894-0.448,1.959-1.027,2.945-1.568c1.002-0.551,2.001-1.125,2.983-1.724
			c1.959-1.206,3.934-2.398,5.808-3.722c3.782-2.605,7.325-5.496,10.513-8.652c0.417-0.383,0.773-0.806,1.159-1.21l0.57-0.612
			l0.286-0.306l0.143-0.153c0.038-0.04,0.029-0.031,0.011-0.009l-0.032,0.049c-0.143,0.267-0.024,0.186,0.031-0.071
			c0.067-0.249,0.123-0.653,0.141-1.091c0.064-1.817-0.294-4.105-0.729-6.319c-0.89-4.485-2.238-9.098-3.57-13.617l3.885-1.705
			c2.434,4.346,4.462,8.785,6.113,13.599c0.786,2.437,1.508,4.885,1.719,7.893c0.039,0.766,0.056,1.571-0.083,2.51
			c-0.146,0.924-0.38,2.031-1.223,3.284l-0.167,0.231l-0.129,0.168l-0.154,0.187l-0.308,0.375l-0.617,0.75
			c-0.417,0.494-0.813,1.015-1.256,1.478c-3.448,3.829-7.284,7.212-11.379,10.152c-2.038,1.489-4.12,2.903-6.284,4.19
			c-1.076,0.651-2.168,1.277-3.277,1.885c-1.123,0.625-2.191,1.167-3.467,1.766L315.481,125.08z"/>
		<path style="fill:#FFCE26;" d="M306.587,360.179c0.774,0,1.62-0.16,2.212-0.3c0.077-0.018,0.136-0.08,0.15-0.158
			c0.014-0.079-0.021-0.156-0.086-0.201c-0.287-0.189-2.831-1.83-3.805-1.389c-0.154,0.07-0.348,0.223-0.395,0.558
			c-0.063,0.444,0.047,0.798,0.328,1.055C305.348,360.068,305.943,360.179,306.587,360.179z M308.237,359.595
			c-1.458,0.291-2.555,0.241-2.979-0.146c-0.18-0.164-0.247-0.395-0.203-0.706c0.023-0.167,0.101-0.222,0.165-0.251
			C305.734,358.26,307.201,358.969,308.237,359.595z"/>
		<path style="fill:#FFCE26;" d="M308.753,359.884c0.034,0,0.069-0.009,0.1-0.027c0.061-0.036,0.099-0.101,0.099-0.171
			c0-0.102-0.012-2.513-0.922-3.32c-0.242-0.214-0.523-0.304-0.84-0.265c-0.497,0.061-0.631,0.373-0.668,0.554
			c-0.188,0.943,1.334,2.751,2.133,3.204C308.686,359.875,308.72,359.884,308.753,359.884z M307.328,356.489
			c0.163,0,0.307,0.057,0.438,0.174c0.544,0.481,0.73,1.835,0.775,2.638c-0.796-0.636-1.746-1.994-1.631-2.569
			c0.019-0.095,0.073-0.207,0.327-0.238C307.269,356.491,307.299,356.489,307.328,356.489z"/>
		<path style="fill:#FFB573;" d="M308.017,100.067c-0.975,4.97-3.028,15.037,0.45,18.354c0,0-1.359,5.042-10.594,5.042
			c-10.155,0-4.853-5.041-4.853-5.041c5.542-1.324,5.399-5.436,4.434-9.298L308.017,100.067z"/>
		<path style="fill:#745B00;" d="M291.078,120.424c-1.594,0.216-0.238-3.914,0.41-4.342c1.496-0.988,20.852-2.389,20.725-0.04
			c-0.08,1.011-0.555,2.984-1.401,3.654C309.964,120.367,304.993,118.342,291.078,120.424z"/>
		<path style="fill:#745B00;" d="M294.231,119.035c-1.266,0.428-1.147-3.733-0.715-4.234c0.998-1.158,16.664-5.184,17.129-2.906
			c0.179,0.983,0.265,2.948-0.272,3.709C309.835,116.366,305.232,115.106,294.231,119.035z"/>
		<path style="fill:#263238;" d="M288.404,91.108c-0.123,0.007-0.247-0.042-0.331-0.145c-1.12-1.37-2.576-1.229-2.59-1.228
			c-0.221,0.023-0.414-0.134-0.437-0.352c-0.024-0.218,0.134-0.414,0.351-0.437c0.077-0.009,1.901-0.186,3.29,1.514
			c0.139,0.17,0.114,0.42-0.056,0.558C288.564,91.074,288.484,91.103,288.404,91.108z"/>
		<path style="fill:#FF5652;" d="M286.466,96.001c0,0-0.856,3.007-1.975,4.527c0.969,0.741,2.441,0.214,2.441,0.214L286.466,96.001z
			"/>
		
			<ellipse transform="matrix(0.9952 -0.0977 0.0977 0.9952 -7.9026 28.4261)" style="fill:#263238;" cx="286.158" cy="94.865" rx="0.799" ry="1.224"/>
		<path style="fill:#263238;" d="M286.236,93.666l-1.661-0.307C284.575,93.359,285.528,94.54,286.236,93.666z"/>
		<polygon style="fill:#FFB573;" points="318.494,359.686 310.118,359.686 310.774,340.288 319.151,340.288 		"/>
		<path style="fill:#745B00;" d="M309.454,358.716h9.411c0.342,0,0.62,0.237,0.668,0.571l1.072,7.445
			c0.111,0.773-0.553,1.503-1.343,1.49c-3.281-0.058-4.862-0.25-9-0.25c-2.546,0-6.266,0.264-9.782,0.264
			c-3.438,0-3.703-3.476-2.238-3.792c6.564-1.411,7.601-3.358,9.813-5.216C308.453,358.896,308.953,358.716,309.454,358.716z"/>
		<g style="opacity:0.2;">
			<polygon points="319.153,340.293 310.773,340.293 310.438,350.292 318.818,350.292 			"/>
		</g>
		<path style="fill:#FFB573;" d="M285.167,130.044c-5.183-2.029-10.127-4.236-15.05-6.754c-4.916-2.515-9.754-5.194-14.404-8.773
			c-1.158-0.911-2.303-1.906-3.422-3.07c-0.279-0.3-0.558-0.578-0.832-0.922c-0.288-0.362-0.505-0.575-0.878-1.13
			c-0.676-0.971-1.199-2.278-1.338-3.609c-0.131-1.333,0.107-2.605,0.491-3.621c0.382-1.033,0.883-1.876,1.407-2.607
			c1.051-1.463,2.216-2.546,3.389-3.52c2.343-1.939,4.821-3.35,7.303-4.667c1.24-0.658,2.503-1.25,3.784-1.797
			c1.286-0.556,2.541-1.071,3.905-1.541l1.776,3.853c-4.362,2.749-8.881,5.771-12.202,9.159c-0.807,0.839-1.513,1.717-1.958,2.491
			c-0.476,0.786-0.47,1.375-0.389,1.33c0.041,0,0.025-0.018,0.141,0.098l0.398,0.427c0.15,0.179,0.361,0.362,0.55,0.546
			c0.785,0.733,1.705,1.469,2.699,2.168c1.985,1.414,4.172,2.735,6.434,3.97c2.254,1.252,4.572,2.45,6.935,3.586
			c4.712,2.257,9.598,4.429,14.392,6.413L285.167,130.044z"/>
		<path style="fill:#FFB573;" d="M273.763,89.154l1.385-3.004l-6.296-2.187c0,0-1.961,5.903,0.376,8.627l0,0
			C271.218,92.272,272.918,90.984,273.763,89.154z"/>
		<polygon style="fill:#FFB573;" points="275.148,79.656 270.115,78.206 268.852,83.963 275.148,86.15 		"/>
		<path style="fill:#FFB573;" d="M340.143,86.441l0.734-7.019l-6.488,1.525c0,0-0.095,6.58,3.337,7.628L340.143,86.441z"/>
		<polygon style="fill:#FFB573;" points="337.751,74.507 333.524,76.481 334.389,80.947 340.877,79.422 		"/>
		<path style="fill:#FFB573;" d="M309.334,90.255c0.305,8.308,0.612,11.817-3.142,16.466c-5.647,6.993-15.917,5.551-18.698-2.498
			c-2.503-7.246-2.582-19.614,5.178-23.695C300.317,76.506,309.029,81.947,309.334,90.255z"/>
		<g>
			<path style="fill:#263238;" d="M305.715,106.706c8.155-3.524,13.519-10.955,11.254-22.575
				c-2.166-11.116-9.67-12.214-12.771-9.908s-10.827-1.13-15.464,2.771c-8.035,6.761-0.438,14.049,3.517,18.369
				C294.616,100.222,297.712,110.164,305.715,106.706z"/>
			
				<ellipse transform="matrix(-0.8229 0.5682 -0.5682 -0.8229 607.5132 -34.5111)" style="fill:#FFCE26;" cx="309.136" cy="77.436" rx="8.273" ry="8.768"/>
			<path style="fill:#263238;" d="M304.446,75.002c-1.177-6.698,5.161-11.863,13.636-9.367c8.475,2.496,3.992,10.009,2.254,16.009
				s2.823,11.715,4.729,7.146c1.906-4.57-1.298-5.98-1.298-5.98s8.999,2.332,0.639,12.477c-8.36,10.145-15.928-1.057-13.881-7.667
				C312.179,82.276,305.558,81.333,304.446,75.002z"/>
			<path style="fill:#263238;" d="M295.975,77.533c-3.868-2.018-10.421-3.65-14.149,2.624c-1.764,2.966-1.08,6.989-1.08,6.989
				l11.389,0.758L295.975,77.533z"/>
			<path style="fill:#263238;" d="M279.406,85.178c-0.005,0-0.011,0-0.016-0.001c-0.138-0.008-0.243-0.127-0.234-0.265
				c0.01-0.169,0.286-4.193,2.714-6.717c5.869-6.098,12.75-1.039,14.719,0.656c0.105,0.09,0.117,0.248,0.026,0.353
				c-0.091,0.105-0.249,0.116-0.353,0.026c-1.885-1.623-8.467-6.47-14.032-0.688c-2.299,2.389-2.573,6.361-2.575,6.401
				C279.646,85.075,279.536,85.178,279.406,85.178z"/>
		</g>
		<path style="fill:#FFB573;" d="M293.646,95.034c-0.012,1.619-0.737,3.203-1.655,4.277c-1.382,1.616-2.966,0.82-3.33-0.972
			c-0.327-1.613-0.002-4.396,1.744-5.373C292.126,92.004,293.66,93.183,293.646,95.034z"/>
		<g>
			<path style="fill:#263238;" d="M291.847,171.122c0,0,0.534,58.144,5.578,90.545c4.074,26.17,11.613,86.689,11.613,86.689h11.422
				c0,0,1.116-58.425-0.952-84.309c-5.233-65.498,8.271-77.743-2.626-92.926H291.847z"/>
			<path style="opacity:0.1;fill:#FFFFFF;" d="M291.847,171.122c0,0,0.534,58.144,5.578,90.545
				c4.074,26.17,11.613,86.689,11.613,86.689h11.422c0,0,1.116-58.425-0.952-84.309c-5.233-65.498,8.271-77.743-2.626-92.926
				H291.847z"/>
		</g>
		<path style="opacity:0.3;" d="M297.85,197.5c4.01,17.55,0.81,45.19-1.38,57.36c-2.32-18.48-3.49-42.429-4.07-59.98
			C294.47,191.52,296.43,191.3,297.85,197.5z"/>
		<polygon style="fill:#FFCE26;" points="307.475,348.582 322.023,348.582 322.787,343.478 307.392,342.957 		"/>
		<g>
			<path style="fill:#745B00;" d="M311.627,122.042c1.368-2.721,8.724-4.433,12.746-4.426l3.01,13.364
				c0,0-8.012,11.891-11.343,10.629C312.104,140.122,308.695,127.872,311.627,122.042z"/>
			<path style="opacity:0.4;" d="M311.627,122.042c1.368-2.721,8.724-4.433,12.746-4.426l3.01,13.364
				c0,0-8.012,11.891-11.343,10.629C312.104,140.122,308.695,127.872,311.627,122.042z"/>
		</g>
		<path style="fill:#FFCE26;" d="M303.146,345.313c0.036-0.059,0.04-0.134,0.006-0.196c-0.04-0.075-0.122-0.116-0.205-0.104
			c-0.42,0.063-4.122,0.651-4.622,1.708c-0.097,0.205-0.084,0.421,0.039,0.625c0.204,0.341,0.492,0.532,0.858,0.57
			c1.213,0.126,2.965-1.557,3.901-2.571C303.132,345.334,303.14,345.324,303.146,345.313z M298.706,346.85
			c0.343-0.561,2.256-1.079,3.717-1.347c-1.319,1.341-2.481,2.089-3.161,2.018c-0.238-0.024-0.42-0.148-0.559-0.38
			c-0.053-0.089-0.06-0.167-0.02-0.251C298.69,346.877,298.697,346.863,298.706,346.85z"/>
		<path style="fill:#FFCE26;" d="M303.146,345.313c0.008-0.013,0.014-0.026,0.019-0.039c0.022-0.067,0.008-0.141-0.038-0.194
			c-0.062-0.073-1.545-1.782-2.913-1.871c-0.418-0.028-0.785,0.097-1.09,0.37c-0.411,0.368-0.375,0.688-0.272,0.891
			c0.433,0.858,3.093,1.157,4.166,0.935C303.072,345.393,303.118,345.359,303.146,345.313z M299.231,344.055
			c0.032-0.052,0.081-0.112,0.158-0.181c0.225-0.201,0.487-0.29,0.799-0.269c0.899,0.058,1.919,0.988,2.384,1.461
			c-1.186,0.1-3.106-0.259-3.366-0.775C299.19,344.261,299.152,344.184,299.231,344.055z"/>
		<polygon style="fill:#FFB573;" points="311.876,341.765 304.216,345.168 300.801,338.064 296.34,328.759 295.817,327.677 
			303.47,324.27 304.062,325.487 308.386,334.498 		"/>
		<polygon style="opacity:0.2;" points="308.386,334.498 300.801,338.064 296.34,328.759 304.062,325.487 		"/>
		<g>
			<path style="fill:#263238;" d="M282.863,171.122c0,0-24.474,60.835-17.841,89.482c5.996,25.89,32.505,74.921,32.505,74.921
				l10.25-5.145c0,0-16.388-59.188-18.166-72.047c-3.459-25.019,18.776-60.333,18.776-87.212H282.863z"/>
			<path style="opacity:0.1;fill:#FFFFFF;" d="M282.863,171.122c0,0-24.474,60.835-17.841,89.482
				c5.996,25.89,32.505,74.921,32.505,74.921l10.25-5.145c0,0-16.388-59.188-18.166-72.047
				c-3.459-25.019,18.776-60.333,18.776-87.212H282.863z"/>
		</g>
		<path style="fill:#745B00;" d="M302.849,344.104l7.608-5.538c0.277-0.201,0.642-0.172,0.877,0.069l5.249,5.389
			c0.544,0.559,0.438,1.54-0.209,1.994c-2.686,1.885-4.077,2.66-7.423,5.095c-2.059,1.499-6.161,4.812-9.003,6.88
			c-2.78,2.024-5.04-0.632-4.041-1.748c4.476-5.004,5.419-8.099,6.114-10.902C302.145,344.838,302.444,344.398,302.849,344.104z"/>
		<polygon style="fill:#FFCE26;" points="296.867,337.694 310.097,331.643 308.399,326.251 294.231,332.714 		"/>
		<g>
			<path style="fill:#745B00;" d="M289.357,121.36c-1.098-2.841-10.657-5.957-15.452-7.045l-2.107,15.768
				c0,0,7.831,11.255,11.27,10.323C287.128,139.309,291.709,127.447,289.357,121.36z"/>
			<path style="opacity:0.4;" d="M289.357,121.36c-1.098-2.841-10.657-5.957-15.452-7.045l-2.107,15.768
				c0,0,7.831,11.255,11.27,10.323C287.128,139.309,291.709,127.447,289.357,121.36z"/>
		</g>
		<g>
			<path style="fill:#745B00;" d="M278.86,120.567c0,0-3.991,1.405,4.003,50.555c13.499,0,27.451,0,34.02,0
				c-0.571-13.845-0.587-22.383,6.03-50.798c0,0-7.128-1.55-14.446-1.903c-5.725-0.276-10.415-0.459-15.447,0.001
				C286.384,119.027,278.86,120.567,278.86,120.567z"/>
			<path style="opacity:0.4;" d="M278.86,120.567c0,0-3.991,1.405,4.003,50.555c13.499,0,27.451,0,34.02,0
				c-0.571-13.845-0.587-22.383,6.03-50.798c0,0-7.128-1.55-14.446-1.903c-5.725-0.276-10.415-0.459-15.447,0.001
				C286.384,119.027,278.86,120.567,278.86,120.567z"/>
		</g>
		<g>
			<path style="fill:#FFCE26;" d="M317.391,169.125l1.535,3.045c0.118,0.236-0.161,0.478-0.554,0.478h-35.677
				c-0.307,0-0.561-0.15-0.58-0.343l-0.307-3.044c-0.021-0.212,0.245-0.39,0.58-0.39h34.449
				C317.091,168.87,317.315,168.973,317.391,169.125z"/>
			<path style="opacity:0.3;fill:#FFFFFF;" d="M317.391,169.125l1.535,3.045c0.118,0.236-0.161,0.478-0.554,0.478h-35.677
				c-0.307,0-0.561-0.15-0.58-0.343l-0.307-3.044c-0.021-0.212,0.245-0.39,0.58-0.39h34.449
				C317.091,168.87,317.315,168.973,317.391,169.125z"/>
		</g>
		<path style="fill:#263238;" d="M312.765,172.978h0.922c0.184,0,0.324-0.095,0.311-0.21l-0.432-3.957
			c-0.013-0.116-0.174-0.21-0.358-0.21h-0.922c-0.184,0-0.324,0.095-0.311,0.21l0.433,3.957
			C312.42,172.883,312.581,172.978,312.765,172.978z"/>
		<path style="fill:#263238;" d="M290.401,172.978h0.923c0.184,0,0.323-0.095,0.311-0.21l-0.433-3.957
			c-0.013-0.116-0.174-0.21-0.357-0.21h-0.922c-0.184,0-0.324,0.095-0.311,0.21l0.433,3.957
			C290.056,172.883,290.217,172.978,290.401,172.978z"/>
	</g>
</g>
</svg>
