<svg width="20" height="20" viewBox="0 0 20 20" fill="none" xmlns="http://www.w3.org/2000/svg">
<path d="M13.75 6.55025V4.55374H6.25C3.48858 4.55374 1.25 6.99228 1.25 10.0004C1.25 10.8711 1.43713 11.6924 1.7694 12.4207C1.92301 12.7574 1.79696 13.166 1.48785 13.3334C1.17873 13.5007 0.803619 13.3634 0.650003 13.0267C0.233756 12.1143 0 11.0861 0 10.0004C0 6.24025 2.79822 3.19208 6.25 3.19208H13.75V1.19556C13.75 0.906941 14.059 0.749276 14.2626 0.934044L17.2119 3.61139C17.3618 3.74749 17.3618 3.99832 17.2119 4.13442L14.2626 6.81176C14.059 6.99653 13.75 6.83887 13.75 6.55025Z" fill="white"/>
<path d="M18.5122 6.66736C18.8213 6.50002 19.1964 6.63734 19.35 6.97406C19.7662 7.88647 20 8.91466 20 10.0004C20 13.7605 17.2018 16.8087 13.75 16.8087H6.25V18.8052C6.25 19.0938 5.94098 19.2515 5.73744 19.0667L2.78808 16.3893C2.63816 16.2532 2.63816 16.0024 2.78808 15.8663L5.73744 13.189C5.94098 13.0042 6.25 13.1619 6.25 13.4505V15.447H13.75C16.5114 15.447 18.75 13.0085 18.75 10.0004C18.75 9.12959 18.5629 8.30838 18.2306 7.58004C18.077 7.24332 18.203 6.8347 18.5122 6.66736Z" fill="white"/>
</svg>
