<svg width="24" height="24" viewBox="0 0 24 24" fill="none" xmlns="http://www.w3.org/2000/svg">
<g clip-path="url(#clip0_2202_224688)">
<path d="M19.5 12.0001C19.5 12.8461 19.359 13.6606 19.101 14.4196L17.88 13.1986C17.9599 12.8041 18.0001 12.4026 18 12.0001V10.5001C18 10.3012 18.079 10.1104 18.2197 9.96975C18.3603 9.8291 18.5511 9.75008 18.75 9.75008C18.9489 9.75008 19.1397 9.8291 19.2803 9.96975C19.421 10.1104 19.5 10.3012 19.5 10.5001V12.0001ZM12 18.0001C13.227 18.0001 14.367 17.6326 15.318 16.9996L16.395 18.0781C15.3242 18.8546 14.0663 19.3324 12.75 19.4626V22.5001H17.25C17.4489 22.5001 17.6397 22.5791 17.7803 22.7197C17.921 22.8604 18 23.0512 18 23.2501C18 23.449 17.921 23.6398 17.7803 23.7804C17.6397 23.9211 17.4489 24.0001 17.25 24.0001H6.75C6.55109 24.0001 6.36032 23.9211 6.21967 23.7804C6.07902 23.6398 6 23.449 6 23.2501C6 23.0512 6.07902 22.8604 6.21967 22.7197C6.36032 22.5791 6.55109 22.5001 6.75 22.5001H11.25V19.4626C9.40003 19.2766 7.68506 18.4102 6.43782 17.0313C5.19058 15.6524 4.49998 13.8594 4.5 12.0001V10.5001C4.5 10.3012 4.57902 10.1104 4.71967 9.96975C4.86032 9.8291 5.05109 9.75008 5.25 9.75008C5.44891 9.75008 5.63968 9.8291 5.78033 9.96975C5.92098 10.1104 6 10.3012 6 10.5001V12.0001C6 13.5914 6.63214 15.1175 7.75736 16.2427C8.88258 17.3679 10.4087 18.0001 12 18.0001ZM16.5 4.50008V11.8186L15 10.3186V4.50008C15.0035 3.71747 14.701 2.96449 14.157 2.40178C13.6131 1.83907 12.8708 1.5112 12.0886 1.4881C11.3063 1.46501 10.5459 1.74852 9.96977 2.27816C9.3936 2.8078 9.04721 3.54163 9.0045 4.32308L7.737 3.05558C8.08041 2.04644 8.7708 1.19191 9.68525 0.644129C10.5997 0.0963432 11.6789 -0.109154 12.7307 0.0642218C13.7824 0.237597 14.7386 0.778594 15.4288 1.5909C16.1191 2.40321 16.4986 3.43411 16.5 4.50008Z" fill="#1C2026"/>
<path d="M14.2288 15.9107L13.1068 14.7887C12.6517 14.9694 12.1593 15.036 11.6726 14.9826C11.1859 14.9292 10.7197 14.7575 10.3146 14.4824C9.9095 14.2074 9.5779 13.8374 9.34871 13.4047C9.11952 12.9721 8.99972 12.4899 8.99975 12.0002V10.6832L7.49975 9.18324V12.0002C7.49952 12.7882 7.7062 13.5624 8.09911 14.2455C8.49203 14.9285 9.05741 15.4964 9.7387 15.8923C10.42 16.2882 11.1933 16.4983 11.9813 16.5015C12.7692 16.5048 13.5442 16.301 14.2288 15.9107ZM2.46875 2.03124L20.4688 20.0312L21.5308 18.9692L3.53075 0.969238L2.46875 2.03124Z" fill="#1C2026"/>
</g>
<defs>
<clipPath id="clip0_2202_224688">
<rect width="24" height="24" fill="white"/>
</clipPath>
</defs>
</svg>
