<svg width="12" height="12" viewBox="0 0 12 12" fill="none" xmlns="http://www.w3.org/2000/svg">
<path d="M8.25 1.5L6.75 1.5L6.75 3.75L8.25 3.75V1.5Z" fill="white"/>
<path d="M1.125 0L9.81434 0C10.1127 0 10.3989 0.118526 10.6098 0.329505L11.6705 1.39017C11.8815 1.60114 12 1.88729 12 2.18566L12 10.875C12 11.4963 11.4963 12 10.875 12L1.125 12C0.50368 12 0 11.4963 0 10.875L0 1.125C0 0.50368 0.50368 0 1.125 0ZM0.75 1.125L0.75 10.875C0.75 11.0821 0.917893 11.25 1.125 11.25H1.5L1.5 7.875C1.5 7.25368 2.00368 6.75 2.625 6.75L9.375 6.75C9.99632 6.75 10.5 7.25368 10.5 7.875V11.25H10.875C11.0821 11.25 11.25 11.0821 11.25 10.875L11.25 2.18566C11.25 2.0862 11.2105 1.99082 11.1402 1.9205L10.0795 0.859835C10.0092 0.789509 9.9138 0.75 9.81434 0.75H9.75V4.125C9.75 4.74632 9.24632 5.25 8.625 5.25L3.375 5.25C2.75368 5.25 2.25 4.74632 2.25 4.125L2.25 0.75L1.125 0.75C0.917893 0.75 0.75 0.917893 0.75 1.125ZM3 4.125C3 4.33211 3.16789 4.5 3.375 4.5L8.625 4.5C8.83211 4.5 9 4.33211 9 4.125V0.75L3 0.75L3 4.125ZM2.25 11.25L9.75 11.25V7.875C9.75 7.66789 9.58211 7.5 9.375 7.5L2.625 7.5C2.41789 7.5 2.25 7.66789 2.25 7.875L2.25 11.25Z" fill="white"/>
</svg>
