<svg width="16" height="16" viewBox="0 0 16 16" fill="none" xmlns="http://www.w3.org/2000/svg">
<g clip-path="url(#clip0_2945_14482)">
<path d="M15.8539 0.14615C15.9232 0.215482 15.9705 0.303624 15.99 0.399627C16.0096 0.49563 16.0005 0.595263 15.9639 0.68615L10.1449 15.2331C10.0937 15.3613 10.008 15.4727 9.89746 15.5553C9.78691 15.6379 9.65571 15.6884 9.51832 15.7012C9.38092 15.714 9.24265 15.6887 9.11873 15.628C8.9948 15.5673 8.89003 15.4736 8.81593 15.3572L5.63793 10.3622L0.642932 7.18415C0.52625 7.11013 0.432283 7.00532 0.371402 6.88128C0.31052 6.75723 0.285089 6.61878 0.297917 6.4812C0.310744 6.34362 0.36133 6.21226 0.444093 6.10161C0.526855 5.99096 0.638578 5.90532 0.766932 5.85415L15.3139 0.0371498C15.4048 0.000562027 15.5045 -0.0085177 15.6005 0.0110385C15.6965 0.0305947 15.7846 0.0779249 15.8539 0.14715V0.14615ZM6.63593 10.0701L9.39693 14.4081L14.1299 2.57615L6.63593 10.0701ZM13.4229 1.86915L1.59093 6.60215L5.92993 9.36215L13.4239 1.86915H13.4229Z" fill="white"/>
</g>
<defs>
<clipPath id="clip0_2945_14482">
<rect width="16" height="16" fill="white"/>
</clipPath>
</defs>
</svg>
