<svg width="24" height="24" viewBox="0 0 24 24" fill="none" xmlns="http://www.w3.org/2000/svg">
<g clip-path="url(#clip0_2199_223125)">
<path d="M23.7813 0.219103C23.8851 0.323101 23.9561 0.455314 23.9854 0.599319C24.0148 0.743323 24.0011 0.892773 23.9463 1.0291L15.2178 22.8496C15.1408 23.0418 15.0124 23.209 14.8466 23.3329C14.6807 23.4567 14.4839 23.5324 14.2778 23.5517C14.0717 23.5709 13.8643 23.5329 13.6785 23.4418C13.4926 23.3508 13.3354 23.2102 13.2243 23.0356L8.45726 15.5431L0.964764 10.7761C0.78974 10.6651 0.648791 10.5079 0.557469 10.3218C0.466146 10.1357 0.428 9.92805 0.447241 9.72168C0.466482 9.51531 0.542361 9.31826 0.666505 9.15229C0.790649 8.98631 0.958233 8.85786 1.15076 8.7811L22.9713 0.0556026C23.1076 0.00072097 23.257 -0.0128986 23.401 0.0164357C23.545 0.0457699 23.6773 0.116765 23.7813 0.220603V0.219103ZM9.95426 15.1051L14.0958 21.6121L21.1953 3.8641L9.95426 15.1051ZM20.1348 2.8036L2.38676 9.9031L8.89526 14.0431L20.1363 2.8036H20.1348Z" fill="#1C2026"/>
</g>
<defs>
<clipPath id="clip0_2199_223125">
<rect width="24" height="24" fill="white"/>
</clipPath>
</defs>
</svg>
