<svg width="18" height="18" viewBox="0 0 18 18" fill="none" xmlns="http://www.w3.org/2000/svg">
<path fill-rule="evenodd" clip-rule="evenodd" d="M0 1.13403C0 0.984849 0.0592632 0.841775 0.164752 0.736286C0.270242 0.630796 0.413316 0.571533 0.5625 0.571533H2.8125C2.96168 0.571533 3.10476 0.630796 3.21025 0.736286C3.31574 0.841775 3.375 0.984849 3.375 1.13403C3.375 1.28322 3.31574 1.42629 3.21025 1.53178C3.10476 1.63727 2.96168 1.69653 2.8125 1.69653H0.5625C0.413316 1.69653 0.270242 1.63727 0.164752 1.53178C0.0592632 1.42629 0 1.28322 0 1.13403ZM4.5 1.13403C4.5 0.984849 4.55926 0.841775 4.66475 0.736286C4.77024 0.630796 4.91332 0.571533 5.0625 0.571533H16.3125C16.4617 0.571533 16.6048 0.630796 16.7102 0.736286C16.8157 0.841775 16.875 0.984849 16.875 1.13403C16.875 1.28322 16.8157 1.42629 16.7102 1.53178C16.6048 1.63727 16.4617 1.69653 16.3125 1.69653H5.0625C4.91332 1.69653 4.77024 1.63727 4.66475 1.53178C4.55926 1.42629 4.5 1.28322 4.5 1.13403ZM0 3.38403C0 3.23485 0.0592632 3.09177 0.164752 2.98629C0.270242 2.8808 0.413316 2.82153 0.5625 2.82153H2.8125C2.96168 2.82153 3.10476 2.8808 3.21025 2.98629C3.31574 3.09177 3.375 3.23485 3.375 3.38403C3.375 3.53322 3.31574 3.67629 3.21025 3.78178C3.10476 3.88727 2.96168 3.94653 2.8125 3.94653H0.5625C0.413316 3.94653 0.270242 3.88727 0.164752 3.78178C0.0592632 3.67629 0 3.53322 0 3.38403ZM4.5 3.38403C4.5 3.23485 4.55926 3.09177 4.66475 2.98629C4.77024 2.8808 4.91332 2.82153 5.0625 2.82153H15.1875C15.3367 2.82153 15.4798 2.8808 15.5852 2.98629C15.6907 3.09177 15.75 3.23485 15.75 3.38403C15.75 3.53322 15.6907 3.67629 15.5852 3.78178C15.4798 3.88727 15.3367 3.94653 15.1875 3.94653H5.0625C4.91332 3.94653 4.77024 3.88727 4.66475 3.78178C4.55926 3.67629 4.5 3.53322 4.5 3.38403ZM0 5.63403C0 5.48485 0.0592632 5.34177 0.164752 5.23629C0.270242 5.1308 0.413316 5.07153 0.5625 5.07153H2.8125C2.96168 5.07153 3.10476 5.1308 3.21025 5.23629C3.31574 5.34177 3.375 5.48485 3.375 5.63403C3.375 5.78322 3.31574 5.92629 3.21025 6.03178C3.10476 6.13727 2.96168 6.19653 2.8125 6.19653H0.5625C0.413316 6.19653 0.270242 6.13727 0.164752 6.03178C0.0592632 5.92629 0 5.78322 0 5.63403ZM4.5 5.63403C4.5 5.48485 4.55926 5.34177 4.66475 5.23629C4.77024 5.1308 4.91332 5.07153 5.0625 5.07153H17.4375C17.5867 5.07153 17.7298 5.1308 17.8352 5.23629C17.9407 5.34177 18 5.48485 18 5.63403C18 5.78322 17.9407 5.92629 17.8352 6.03178C17.7298 6.13727 17.5867 6.19653 17.4375 6.19653H5.0625C4.91332 6.19653 4.77024 6.13727 4.66475 6.03178C4.55926 5.92629 4.5 5.78322 4.5 5.63403ZM0 7.88403C0 7.73485 0.0592632 7.59177 0.164752 7.48629C0.270242 7.3808 0.413316 7.32153 0.5625 7.32153H2.8125C2.96168 7.32153 3.10476 7.3808 3.21025 7.48629C3.31574 7.59177 3.375 7.73485 3.375 7.88403C3.375 8.03322 3.31574 8.17629 3.21025 8.28178C3.10476 8.38727 2.96168 8.44653 2.8125 8.44653H0.5625C0.413316 8.44653 0.270242 8.38727 0.164752 8.28178C0.0592632 8.17629 0 8.03322 0 7.88403ZM4.5 7.88403C4.5 7.73485 4.55926 7.59177 4.66475 7.48629C4.77024 7.3808 4.91332 7.32153 5.0625 7.32153H14.0625C14.2117 7.32153 14.3548 7.3808 14.4602 7.48629C14.5657 7.59177 14.625 7.73485 14.625 7.88403C14.625 8.03322 14.5657 8.17629 14.4602 8.28178C14.3548 8.38727 14.2117 8.44653 14.0625 8.44653H5.0625C4.91332 8.44653 4.77024 8.38727 4.66475 8.28178C4.55926 8.17629 4.5 8.03322 4.5 7.88403ZM0 10.134C0 9.98485 0.0592632 9.84177 0.164752 9.73629C0.270242 9.6308 0.413316 9.57153 0.5625 9.57153H2.8125C2.96168 9.57153 3.10476 9.6308 3.21025 9.73629C3.31574 9.84177 3.375 9.98485 3.375 10.134C3.375 10.2832 3.31574 10.4263 3.21025 10.5318C3.10476 10.6373 2.96168 10.6965 2.8125 10.6965H0.5625C0.413316 10.6965 0.270242 10.6373 0.164752 10.5318C0.0592632 10.4263 0 10.2832 0 10.134ZM4.5 10.134C4.5 9.98485 4.55926 9.84177 4.66475 9.73629C4.77024 9.6308 4.91332 9.57153 5.0625 9.57153H14.0625C14.2117 9.57153 14.3548 9.6308 14.4602 9.73629C14.5657 9.84177 14.625 9.98485 14.625 10.134C14.625 10.2832 14.5657 10.4263 14.4602 10.5318C14.3548 10.6373 14.2117 10.6965 14.0625 10.6965H5.0625C4.91332 10.6965 4.77024 10.6373 4.66475 10.5318C4.55926 10.4263 4.5 10.2832 4.5 10.134ZM0 12.384C0 12.2348 0.0592632 12.0918 0.164752 11.9863C0.270242 11.8808 0.413316 11.8215 0.5625 11.8215H2.8125C2.96168 11.8215 3.10476 11.8808 3.21025 11.9863C3.31574 12.0918 3.375 12.2348 3.375 12.384C3.375 12.5332 3.31574 12.6763 3.21025 12.7818C3.10476 12.8873 2.96168 12.9465 2.8125 12.9465H0.5625C0.413316 12.9465 0.270242 12.8873 0.164752 12.7818C0.0592632 12.6763 0 12.5332 0 12.384ZM4.5 12.384C4.5 12.2348 4.55926 12.0918 4.66475 11.9863C4.77024 11.8808 4.91332 11.8215 5.0625 11.8215H16.3125C16.4617 11.8215 16.6048 11.8808 16.7102 11.9863C16.8157 12.0918 16.875 12.2348 16.875 12.384C16.875 12.5332 16.8157 12.6763 16.7102 12.7818C16.6048 12.8873 16.4617 12.9465 16.3125 12.9465H5.0625C4.91332 12.9465 4.77024 12.8873 4.66475 12.7818C4.55926 12.6763 4.5 12.5332 4.5 12.384ZM0 14.634C0 14.4848 0.0592632 14.3418 0.164752 14.2363C0.270242 14.1308 0.413316 14.0715 0.5625 14.0715H2.8125C2.96168 14.0715 3.10476 14.1308 3.21025 14.2363C3.31574 14.3418 3.375 14.4848 3.375 14.634C3.375 14.7832 3.31574 14.9263 3.21025 15.0318C3.10476 15.1373 2.96168 15.1965 2.8125 15.1965H0.5625C0.413316 15.1965 0.270242 15.1373 0.164752 15.0318C0.0592632 14.9263 0 14.7832 0 14.634ZM4.5 14.634C4.5 14.4848 4.55926 14.3418 4.66475 14.2363C4.77024 14.1308 4.91332 14.0715 5.0625 14.0715H11.8125C11.9617 14.0715 12.1048 14.1308 12.2102 14.2363C12.3157 14.3418 12.375 14.4848 12.375 14.634C12.375 14.7832 12.3157 14.9263 12.2102 15.0318C12.1048 15.1373 11.9617 15.1965 11.8125 15.1965H5.0625C4.91332 15.1965 4.77024 15.1373 4.66475 15.0318C4.55926 14.9263 4.5 14.7832 4.5 14.634ZM0 16.884C0 16.7348 0.0592632 16.5918 0.164752 16.4863C0.270242 16.3808 0.413316 16.3215 0.5625 16.3215H2.8125C2.96168 16.3215 3.10476 16.3808 3.21025 16.4863C3.31574 16.5918 3.375 16.7348 3.375 16.884C3.375 17.0332 3.31574 17.1763 3.21025 17.2818C3.10476 17.3873 2.96168 17.4465 2.8125 17.4465H0.5625C0.413316 17.4465 0.270242 17.3873 0.164752 17.2818C0.0592632 17.1763 0 17.0332 0 16.884ZM4.5 16.884C4.5 16.7348 4.55926 16.5918 4.66475 16.4863C4.77024 16.3808 4.91332 16.3215 5.0625 16.3215H17.4375C17.5867 16.3215 17.7298 16.3808 17.8352 16.4863C17.9407 16.5918 18 16.7348 18 16.884C18 17.0332 17.9407 17.1763 17.8352 17.2818C17.7298 17.3873 17.5867 17.4465 17.4375 17.4465H5.0625C4.91332 17.4465 4.77024 17.3873 4.66475 17.2818C4.55926 17.1763 4.5 17.0332 4.5 16.884Z" fill="#454545"/>
</svg>
