<svg width="18" height="19" viewBox="0 0 18 19" fill="none" xmlns="http://www.w3.org/2000/svg">
<g clip-path="url(#clip0_2570_36695)">
<path d="M9 18.5C9.59674 18.5 10.169 18.263 10.591 17.841C11.0129 17.419 11.25 16.8467 11.25 16.25H6.75C6.75 16.8467 6.98705 17.419 7.40901 17.841C7.83097 18.263 8.40326 18.5 9 18.5ZM9 2.65776L8.10337 2.83888C7.08633 3.04611 6.17212 3.59837 5.51548 4.40221C4.85884 5.20604 4.50011 6.21207 4.5 7.25001C4.5 7.95651 4.34925 9.72163 3.98362 11.4598C3.80362 12.3226 3.56063 13.2215 3.23775 14H14.7622C14.4394 13.2215 14.1975 12.3238 14.0164 11.4598C13.6507 9.72163 13.5 7.95651 13.5 7.25001C13.4996 6.21226 13.1408 5.2065 12.4842 4.4029C11.8275 3.5993 10.9135 3.04719 9.89662 2.84001L9 2.65663V2.65776ZM15.9975 14C16.2484 14.5029 16.5386 14.9011 16.875 15.125H1.125C1.46137 14.9011 1.75162 14.5029 2.0025 14C3.015 11.975 3.375 8.24001 3.375 7.25001C3.375 4.52751 5.31 2.25501 7.88063 1.73638C7.86492 1.57996 7.88218 1.42197 7.93129 1.27263C7.98039 1.12328 8.06026 0.985884 8.16573 0.869298C8.27119 0.752712 8.39993 0.659527 8.54362 0.59575C8.68732 0.531974 8.84279 0.499023 9 0.499023C9.15721 0.499023 9.31268 0.531974 9.45638 0.59575C9.60007 0.659527 9.72881 0.752712 9.83428 0.869298C9.93974 0.985884 10.0196 1.12328 10.0687 1.27263C10.1178 1.42197 10.1351 1.57996 10.1194 1.73638C11.3909 1.99502 12.534 2.68516 13.3551 3.68995C14.1762 4.69473 14.6248 5.9524 14.625 7.25001C14.625 8.24001 14.985 11.975 15.9975 14Z" fill="#1C2026"/>
</g>
<defs>
<clipPath id="clip0_2570_36695">
<rect width="18" height="18" fill="white" transform="translate(0 0.5)"/>
</clipPath>
</defs>
</svg>
