<svg width="18" height="19" viewBox="0 0 18 19" fill="none" xmlns="http://www.w3.org/2000/svg">
<path fill-rule="evenodd" clip-rule="evenodd" d="M6.75 4.4375C6.75 4.28832 6.80926 4.14524 6.91475 4.03975C7.02024 3.93426 7.16332 3.875 7.3125 3.875H16.3125C16.4617 3.875 16.6048 3.93426 16.7102 4.03975C16.8157 4.14524 16.875 4.28832 16.875 4.4375V14.5625C16.875 14.7117 16.8157 14.8548 16.7102 14.9602C16.6048 15.0657 16.4617 15.125 16.3125 15.125H7.3125C7.16332 15.125 7.02024 15.0657 6.91475 14.9602C6.80926 14.8548 6.75 14.7117 6.75 14.5625V12.3125C6.75 12.1633 6.69074 12.0202 6.58525 11.9148C6.47976 11.8093 6.33668 11.75 6.1875 11.75C6.03832 11.75 5.89524 11.8093 5.78975 11.9148C5.68426 12.0202 5.625 12.1633 5.625 12.3125V14.5625C5.625 15.0101 5.80279 15.4393 6.11926 15.7557C6.43572 16.0722 6.86495 16.25 7.3125 16.25H16.3125C16.7601 16.25 17.1893 16.0722 17.5057 15.7557C17.8222 15.4393 18 15.0101 18 14.5625V4.4375C18 3.98995 17.8222 3.56072 17.5057 3.24426C17.1893 2.92779 16.7601 2.75 16.3125 2.75H7.3125C6.86495 2.75 6.43572 2.92779 6.11926 3.24426C5.80279 3.56072 5.625 3.98995 5.625 4.4375V6.6875C5.625 6.83668 5.68426 6.97976 5.78975 7.08525C5.89524 7.19074 6.03832 7.25 6.1875 7.25C6.33668 7.25 6.47976 7.19074 6.58525 7.08525C6.69074 6.97976 6.75 6.83668 6.75 6.6875V4.4375Z" fill="#1C2026"/>
<path fill-rule="evenodd" clip-rule="evenodd" d="M13.3358 9.89798C13.3881 9.84573 13.4297 9.78366 13.4581 9.71532C13.4864 9.64698 13.501 9.57372 13.501 9.49973C13.501 9.42575 13.4864 9.35248 13.4581 9.28415C13.4297 9.21581 13.3881 9.15374 13.3358 9.10148L9.96075 5.72648C9.90845 5.67419 9.84636 5.6327 9.77803 5.6044C9.7097 5.57609 9.63646 5.56152 9.5625 5.56152C9.48854 5.56152 9.4153 5.57609 9.34697 5.6044C9.27864 5.6327 9.21655 5.67419 9.16425 5.72648C9.11195 5.77878 9.07047 5.84087 9.04216 5.9092C9.01386 5.97753 8.99929 6.05077 8.99929 6.12473C8.99929 6.1987 9.01386 6.27193 9.04216 6.34027C9.07047 6.4086 9.11195 6.47069 9.16425 6.52298L11.5796 8.93723H1.6875C1.53832 8.93723 1.39524 8.9965 1.28975 9.10199C1.18426 9.20748 1.125 9.35055 1.125 9.49973C1.125 9.64892 1.18426 9.79199 1.28975 9.89748C1.39524 10.003 1.53832 10.0622 1.6875 10.0622H11.5796L9.16425 12.4765C9.11195 12.5288 9.07047 12.5909 9.04216 12.6592C9.01386 12.7275 8.99929 12.8008 8.99929 12.8747C8.99929 12.9487 9.01386 13.0219 9.04216 13.0903C9.07047 13.1586 9.11195 13.2207 9.16425 13.273C9.21655 13.3253 9.27864 13.3668 9.34697 13.3951C9.4153 13.4234 9.48854 13.4379 9.5625 13.4379C9.63646 13.4379 9.7097 13.4234 9.77803 13.3951C9.84636 13.3668 9.90845 13.3253 9.96075 13.273L13.3358 9.89798Z" fill="#1C2026"/>
</svg>
