<svg width="18" height="19" viewBox="0 0 18 19" fill="none" xmlns="http://www.w3.org/2000/svg">
<g clip-path="url(#clip0_4280_51425)">
<path d="M16.3125 3.94653C16.4617 3.94653 16.6048 4.0058 16.7102 4.11129C16.8157 4.21677 16.875 4.35985 16.875 4.50903V14.634C16.875 14.7832 16.8157 14.9263 16.7102 15.0318C16.6048 15.1373 16.4617 15.1965 16.3125 15.1965H1.6875C1.53832 15.1965 1.39524 15.1373 1.28975 15.0318C1.18426 14.9263 1.125 14.7832 1.125 14.634V4.50903C1.125 4.35985 1.18426 4.21677 1.28975 4.11129C1.39524 4.0058 1.53832 3.94653 1.6875 3.94653H16.3125ZM1.6875 2.82153C1.23995 2.82153 0.810725 2.99932 0.494257 3.31579C0.17779 3.63226 0 4.06148 0 4.50903L0 14.634C0 15.0816 0.17779 15.5108 0.494257 15.8273C0.810725 16.1437 1.23995 16.3215 1.6875 16.3215H16.3125C16.7601 16.3215 17.1893 16.1437 17.5057 15.8273C17.8222 15.5108 18 15.0816 18 14.634V4.50903C18 4.06148 17.8222 3.63226 17.5057 3.31579C17.1893 2.99932 16.7601 2.82153 16.3125 2.82153H1.6875Z" fill="#454545"/>
<path d="M7.87499 6.75906C7.87499 6.60988 7.93425 6.4668 8.03974 6.36131C8.14523 6.25583 8.28831 6.19656 8.43749 6.19656H14.0625C14.2117 6.19656 14.3547 6.25583 14.4602 6.36131C14.5657 6.4668 14.625 6.60988 14.625 6.75906C14.625 6.90825 14.5657 7.05132 14.4602 7.15681C14.3547 7.2623 14.2117 7.32156 14.0625 7.32156H8.43749C8.28831 7.32156 8.14523 7.2623 8.03974 7.15681C7.93425 7.05132 7.87499 6.90825 7.87499 6.75906ZM6.19199 5.79831C6.24437 5.85056 6.28593 5.91264 6.31429 5.98097C6.34265 6.04931 6.35725 6.12257 6.35725 6.19656C6.35725 6.27055 6.34265 6.34381 6.31429 6.41215C6.28593 6.48049 6.24437 6.54256 6.19199 6.59481L4.50449 8.28231C4.45224 8.3347 4.39017 8.37626 4.32183 8.40461C4.25349 8.43297 4.18023 8.44757 4.10624 8.44757C4.03225 8.44757 3.95899 8.43297 3.89065 8.40461C3.82231 8.37626 3.76024 8.3347 3.70799 8.28231L3.14549 7.71981C3.09319 7.66751 3.05171 7.60543 3.0234 7.53709C2.9951 7.46876 2.98053 7.39552 2.98053 7.32156C2.98053 7.17219 3.03987 7.02893 3.14549 6.92331C3.25111 6.81769 3.39437 6.75835 3.54374 6.75835C3.69311 6.75835 3.83637 6.81769 3.94199 6.92331L4.10624 7.08869L5.39549 5.79831C5.44774 5.74593 5.50981 5.70437 5.57815 5.67601C5.64649 5.64765 5.71975 5.63306 5.79374 5.63306C5.86773 5.63306 5.94099 5.64765 6.00933 5.67601C6.07767 5.70437 6.13974 5.74593 6.19199 5.79831ZM7.87499 11.2591C7.87499 11.1099 7.93425 10.9668 8.03974 10.8613C8.14523 10.7558 8.28831 10.6966 8.43749 10.6966H14.0625C14.2117 10.6966 14.3547 10.7558 14.4602 10.8613C14.5657 10.9668 14.625 11.1099 14.625 11.2591C14.625 11.4082 14.5657 11.5513 14.4602 11.6568C14.3547 11.7623 14.2117 11.8216 14.0625 11.8216H8.43749C8.28831 11.8216 8.14523 11.7623 8.03974 11.6568C7.93425 11.5513 7.87499 11.4082 7.87499 11.2591ZM6.19199 10.2983C6.24437 10.3506 6.28593 10.4126 6.31429 10.481C6.34265 10.5493 6.35725 10.6226 6.35725 10.6966C6.35725 10.7706 6.34265 10.8438 6.31429 10.9122C6.28593 10.9805 6.24437 11.0426 6.19199 11.0948L4.50449 12.7823C4.45224 12.8347 4.39017 12.8763 4.32183 12.9046C4.25349 12.933 4.18023 12.9476 4.10624 12.9476C4.03225 12.9476 3.95899 12.933 3.89065 12.9046C3.82231 12.8763 3.76024 12.8347 3.70799 12.7823L3.14549 12.2198C3.09319 12.1675 3.05171 12.1054 3.0234 12.0371C2.9951 11.9688 2.98053 11.8955 2.98053 11.8216C2.98053 11.7476 2.9951 11.6744 3.0234 11.606C3.05171 11.5377 3.09319 11.4756 3.14549 11.4233C3.19779 11.371 3.25988 11.3295 3.32821 11.3012C3.39654 11.2729 3.46978 11.2584 3.54374 11.2584C3.6177 11.2584 3.69094 11.2729 3.75927 11.3012C3.8276 11.3295 3.88969 11.371 3.94199 11.4233L4.10624 11.5887L5.39549 10.2983C5.44774 10.2459 5.50981 10.2044 5.57815 10.176C5.64649 10.1477 5.71975 10.1331 5.79374 10.1331C5.86773 10.1331 5.94099 10.1477 6.00933 10.176C6.07767 10.2044 6.13974 10.2459 6.19199 10.2983Z" fill="#454545"/>
</g>
<defs>
<clipPath id="clip0_4280_51425">
<rect width="18" height="18" fill="white" transform="translate(0 0.571533)"/>
</clipPath>
</defs>
</svg>
