<svg width="15" height="9" viewBox="0 0 15 9" fill="none" xmlns="http://www.w3.org/2000/svg">
<path fill-rule="evenodd" clip-rule="evenodd" d="M0.351779 0.798068C0.40403 0.745684 0.466103 0.704123 0.534441 0.675766C0.60278 0.647409 0.676041 0.632812 0.750029 0.632812C0.824017 0.632812 0.897279 0.647409 0.965617 0.675766C1.03396 0.704123 1.09603 0.745684 1.14828 0.798068L7.50003 7.15094L13.8518 0.798068C13.9041 0.745769 13.9662 0.704283 14.0345 0.675979C14.1028 0.647675 14.1761 0.633107 14.25 0.633107C14.324 0.633107 14.3972 0.647675 14.4656 0.675979C14.5339 0.704283 14.596 0.745769 14.6483 0.798068C14.7006 0.850367 14.7421 0.912454 14.7704 0.980786C14.7987 1.04912 14.8132 1.12236 14.8132 1.19632C14.8132 1.27028 14.7987 1.34352 14.7704 1.41185C14.7421 1.48018 14.7006 1.54227 14.6483 1.59457L7.89828 8.34457C7.84603 8.39695 7.78395 8.43851 7.71562 8.46687C7.64728 8.49523 7.57402 8.50982 7.50003 8.50982C7.42604 8.50982 7.35278 8.49523 7.28444 8.46687C7.2161 8.43851 7.15403 8.39695 7.10178 8.34457L0.351779 1.59457C0.299395 1.54232 0.257835 1.48024 0.229477 1.41191C0.20112 1.34357 0.186523 1.27031 0.186523 1.19632C0.186523 1.12233 0.20112 1.04907 0.229477 0.98073C0.257835 0.912392 0.299395 0.850319 0.351779 0.798068Z" fill="#454545"/>
</svg>
