<svg width="24" height="24" viewBox="0 0 24 24" fill="none" xmlns="http://www.w3.org/2000/svg">
<path fill-rule="evenodd" clip-rule="evenodd" d="M11.468 6.96936C11.5377 6.89952 11.6204 6.8441 11.7115 6.80629C11.8027 6.76849 11.9003 6.74902 11.999 6.74902C12.0976 6.74902 12.1953 6.76849 12.2864 6.80629C12.3776 6.8441 12.4603 6.89952 12.53 6.96936L21.53 15.9694C21.6708 16.1102 21.7499 16.3012 21.7499 16.5004C21.7499 16.6995 21.6708 16.8905 21.53 17.0314C21.3892 17.1722 21.1982 17.2513 20.999 17.2513C20.7998 17.2513 20.6088 17.1722 20.468 17.0314L11.999 8.56086L3.52999 17.0314C3.38916 17.1722 3.19816 17.2513 2.99899 17.2513C2.79983 17.2513 2.60882 17.1722 2.46799 17.0314C2.32716 16.8905 2.24805 16.6995 2.24805 16.5004C2.24805 16.3012 2.32716 16.1102 2.46799 15.9694L11.468 6.96936Z" fill="#1C2026"/>
</svg>
