<svg width="18" height="19" viewBox="0 0 18 19" fill="none" xmlns="http://www.w3.org/2000/svg">
<g clip-path="url(#clip0_4280_51405)">
<path fill-rule="evenodd" clip-rule="evenodd" d="M12.2107 8.61081C12.2631 8.66306 12.3047 8.72514 12.333 8.79347C12.3614 8.86181 12.376 8.93507 12.376 9.00906C12.376 9.08305 12.3614 9.15631 12.333 9.22465C12.3047 9.29299 12.2631 9.35506 12.2107 9.40731L8.83573 12.7823C8.78348 12.8347 8.7214 12.8763 8.65307 12.9046C8.58473 12.933 8.51147 12.9476 8.43748 12.9476C8.36349 12.9476 8.29023 12.933 8.22189 12.9046C8.15355 12.8763 8.09148 12.8347 8.03923 12.7823L6.35173 11.0948C6.29943 11.0425 6.25794 10.9804 6.22964 10.9121C6.20134 10.8438 6.18677 10.7705 6.18677 10.6966C6.18677 10.6226 6.20134 10.5494 6.22964 10.481C6.25794 10.4127 6.29943 10.3506 6.35173 10.2983C6.45735 10.1927 6.60061 10.1334 6.74998 10.1334C6.82394 10.1334 6.89718 10.1479 6.96551 10.1762C7.03384 10.2045 7.09593 10.246 7.14823 10.2983L8.43748 11.5887L11.4142 8.61081C11.4665 8.55843 11.5286 8.51687 11.5969 8.48851C11.6652 8.46015 11.7385 8.44556 11.8125 8.44556C11.8865 8.44556 11.9597 8.46015 12.0281 8.48851C12.0964 8.51687 12.1585 8.55843 12.2107 8.61081Z" fill="#454545"/>
<path d="M4.5 2.25903H3.375C2.77826 2.25903 2.20597 2.49609 1.78401 2.91804C1.36205 3.34 1.125 3.9123 1.125 4.50903V16.3215C1.125 16.9183 1.36205 17.4906 1.78401 17.9125C2.20597 18.3345 2.77826 18.5715 3.375 18.5715H14.625C15.2217 18.5715 15.794 18.3345 16.216 17.9125C16.6379 17.4906 16.875 16.9183 16.875 16.3215V4.50903C16.875 3.9123 16.6379 3.34 16.216 2.91804C15.794 2.49609 15.2217 2.25903 14.625 2.25903H13.5V3.38403H14.625C14.9234 3.38403 15.2095 3.50256 15.4205 3.71354C15.6315 3.92452 15.75 4.21066 15.75 4.50903V16.3215C15.75 16.6199 15.6315 16.906 15.4205 17.117C15.2095 17.328 14.9234 17.4465 14.625 17.4465H3.375C3.07663 17.4465 2.79048 17.328 2.5795 17.117C2.36853 16.906 2.25 16.6199 2.25 16.3215V4.50903C2.25 4.21066 2.36853 3.92452 2.5795 3.71354C2.79048 3.50256 3.07663 3.38403 3.375 3.38403H4.5V2.25903Z" fill="#454545"/>
<path d="M10.6875 1.69653C10.8367 1.69653 10.9798 1.7558 11.0852 1.86129C11.1907 1.96677 11.25 2.10985 11.25 2.25903V3.38403C11.25 3.53322 11.1907 3.67629 11.0852 3.78178C10.9798 3.88727 10.8367 3.94653 10.6875 3.94653H7.3125C7.16332 3.94653 7.02024 3.88727 6.91475 3.78178C6.80926 3.67629 6.75 3.53322 6.75 3.38403V2.25903C6.75 2.10985 6.80926 1.96677 6.91475 1.86129C7.02024 1.7558 7.16332 1.69653 7.3125 1.69653H10.6875ZM7.3125 0.571533C6.86495 0.571533 6.43572 0.749323 6.11926 1.06579C5.80279 1.38226 5.625 1.81148 5.625 2.25903V3.38403C5.625 3.83159 5.80279 4.26081 6.11926 4.57728C6.43572 4.89374 6.86495 5.07153 7.3125 5.07153H10.6875C11.1351 5.07153 11.5643 4.89374 11.8807 4.57728C12.1972 4.26081 12.375 3.83159 12.375 3.38403V2.25903C12.375 1.81148 12.1972 1.38226 11.8807 1.06579C11.5643 0.749323 11.1351 0.571533 10.6875 0.571533L7.3125 0.571533Z" fill="#454545"/>
</g>
<defs>
<clipPath id="clip0_4280_51405">
<rect width="18" height="18" fill="white" transform="translate(0 0.571533)"/>
</clipPath>
</defs>
</svg>
