<svg width="18" height="19" viewBox="0 0 18 19" fill="none" xmlns="http://www.w3.org/2000/svg">
<g clip-path="url(#clip0_4280_51438)">
<path d="M9 4.50903C9 4.35985 8.94074 4.21677 8.83525 4.11129C8.72976 4.0058 8.58668 3.94653 8.4375 3.94653C8.28832 3.94653 8.14524 4.0058 8.03975 4.11129C7.93426 4.21677 7.875 4.35985 7.875 4.50903V10.6965C7.87503 10.7957 7.90127 10.8931 7.95106 10.9788C8.00084 11.0645 8.07241 11.1356 8.1585 11.1848L12.096 13.4348C12.2252 13.5046 12.3766 13.5211 12.5179 13.4808C12.6591 13.4405 12.779 13.3465 12.8518 13.219C12.9247 13.0915 12.9448 12.9405 12.9078 12.7984C12.8709 12.6562 12.7798 12.5342 12.654 12.4583L9 10.3703V4.50903Z" fill="#454545"/>
<path d="M9 18.5715C11.3869 18.5715 13.6761 17.6233 15.364 15.9355C17.0518 14.2477 18 11.9585 18 9.57153C18 7.18458 17.0518 4.8954 15.364 3.20757C13.6761 1.51974 11.3869 0.571533 9 0.571533C6.61305 0.571533 4.32387 1.51974 2.63604 3.20757C0.948212 4.8954 0 7.18458 0 9.57153C0 11.9585 0.948212 14.2477 2.63604 15.9355C4.32387 17.6233 6.61305 18.5715 9 18.5715ZM16.875 9.57153C16.875 11.6601 16.0453 13.6631 14.5685 15.14C13.0916 16.6168 11.0886 17.4465 9 17.4465C6.91142 17.4465 4.90838 16.6168 3.43153 15.14C1.95468 13.6631 1.125 11.6601 1.125 9.57153C1.125 7.48295 1.95468 5.47992 3.43153 4.00307C4.90838 2.52622 6.91142 1.69653 9 1.69653C11.0886 1.69653 13.0916 2.52622 14.5685 4.00307C16.0453 5.47992 16.875 7.48295 16.875 9.57153Z" fill="#454545"/>
</g>
<defs>
<clipPath id="clip0_4280_51438">
<rect width="18" height="18" fill="white" transform="translate(0 0.571533)"/>
</clipPath>
</defs>
</svg>
