<svg width="18" height="19" viewBox="0 0 18 19" fill="none" xmlns="http://www.w3.org/2000/svg">
<path fill-rule="evenodd" clip-rule="evenodd" d="M0.562505 7.24996C0.391888 7.24996 0.230492 7.3274 0.123732 7.46049C0.0169715 7.59358 -0.0236123 7.76793 0.0133998 7.93449L1.87187 16.2976C2.15783 17.5844 3.29918 18.5 4.61739 18.5H11.1326C12.4508 18.5 13.5922 17.5844 13.8781 16.2976L14.0255 15.6343C14.2203 15.6692 14.4207 15.6875 14.625 15.6875C16.489 15.6875 18 14.1764 18 12.3125C18 10.7471 16.9345 9.43087 15.4889 9.04913L15.7366 7.93449C15.7736 7.76793 15.733 7.59358 15.6263 7.46049C15.5195 7.3274 15.3581 7.24996 15.1875 7.24996H0.562505ZM14.625 14.5625C14.504 14.5625 14.3854 14.553 14.2699 14.5347L15.2446 10.1488C16.1858 10.4177 16.875 11.2848 16.875 12.3125C16.875 13.5551 15.8676 14.5625 14.625 14.5625ZM2.97008 16.0535L1.26373 8.37496H14.4863L12.7799 16.0535C12.6084 16.8256 11.9235 17.375 11.1326 17.375H4.61739C3.82646 17.375 3.14165 16.8256 2.97008 16.0535Z" fill="black"/>
<path d="M4.95007 1.39985L4.94634 1.40489L4.93142 1.42531C4.91807 1.44375 4.89842 1.47125 4.87459 1.50567C4.82655 1.57507 4.76336 1.66993 4.70109 1.77372C4.63777 1.87926 4.58135 1.98417 4.54241 2.07504C4.51387 2.14163 4.50447 2.17852 4.50142 2.19051C4.5007 2.19335 4.50014 2.19491 4.50014 2.19491C4.50206 2.24541 4.52371 2.33225 4.60354 2.47417C4.68752 2.62346 4.80423 2.78058 4.95 2.97494L4.9603 2.98867C5.09375 3.16657 5.25322 3.37916 5.37698 3.59917C5.504 3.82499 5.625 4.11167 5.625 4.43744C5.625 4.6486 5.55215 4.85179 5.49163 4.99301C5.4251 5.14823 5.34089 5.30113 5.26359 5.42997C5.18524 5.56056 5.1078 5.67663 5.05037 5.75958C5.02147 5.80132 4.99718 5.83535 4.97976 5.8594L4.95897 5.88786L4.95291 5.89605L4.95105 5.89854L4.95018 5.8997C4.76379 6.14823 4.41103 6.19884 4.1625 6.01244C3.91407 5.82612 3.86364 5.47375 4.04978 5.22524L4.05366 5.22L4.06858 5.19957C4.08193 5.18114 4.10157 5.15364 4.12541 5.11922C4.17345 5.04982 4.23664 4.95495 4.29891 4.85116C4.36223 4.74563 4.41864 4.64072 4.45759 4.54985C4.48613 4.48326 4.49552 4.44638 4.49858 4.43438C4.4993 4.43154 4.49986 4.42998 4.49986 4.42998C4.49794 4.37948 4.47629 4.29264 4.39646 4.15072C4.31248 4.00142 4.19577 3.84431 4.05 3.64994L4.0397 3.63621C3.90625 3.45832 3.74678 3.24574 3.62302 3.02572C3.496 2.7999 3.375 2.51322 3.375 2.18744C3.375 1.97629 3.44785 1.7731 3.50837 1.63188C3.57489 1.47666 3.65911 1.32376 3.73641 1.19492C3.81476 1.06433 3.8922 0.948258 3.94963 0.86531C3.97853 0.823564 4.00282 0.789539 4.02024 0.765491L4.04895 0.726345L4.04982 0.72519C4.23621 0.476662 4.58897 0.426048 4.8375 0.612444C5.08593 0.798763 5.1362 1.15134 4.95007 1.39985Z" fill="black"/>
<path d="M8.32507 1.39985L8.32134 1.40489L8.30642 1.42531C8.29307 1.44375 8.27342 1.47125 8.24959 1.50567C8.20155 1.57507 8.13836 1.66993 8.07609 1.77372C8.01277 1.87926 7.95635 1.98417 7.91741 2.07504C7.88887 2.14163 7.87947 2.17852 7.87642 2.19051C7.8757 2.19335 7.87514 2.19491 7.87514 2.19491C7.87706 2.24541 7.89871 2.33225 7.97854 2.47417C8.06252 2.62346 8.17923 2.78058 8.325 2.97494L8.3353 2.98867C8.46875 3.16657 8.62822 3.37916 8.75198 3.59917C8.879 3.82499 9 4.11167 9 4.43744C9 4.6486 8.92715 4.85179 8.86663 4.99301C8.80011 5.14823 8.71589 5.30113 8.63859 5.42997C8.56024 5.56056 8.4828 5.67663 8.42537 5.75958C8.39647 5.80132 8.37218 5.83535 8.35476 5.8594L8.33397 5.88786L8.32791 5.89605L8.32605 5.89854L8.32518 5.8997C8.13879 6.14823 7.78603 6.19884 7.5375 6.01244C7.28907 5.82612 7.23864 5.47375 7.42478 5.22524L7.42866 5.22L7.44358 5.19957C7.45693 5.18114 7.47657 5.15364 7.50041 5.11922C7.54845 5.04982 7.61164 4.95495 7.67391 4.85116C7.73723 4.74563 7.79364 4.64072 7.83259 4.54985C7.86113 4.48326 7.87052 4.44638 7.87358 4.43438C7.8743 4.43154 7.87486 4.42998 7.87486 4.42998C7.87294 4.37948 7.85129 4.29264 7.77146 4.15072C7.68748 4.00142 7.57077 3.84431 7.425 3.64994L7.4147 3.63621C7.28125 3.45832 7.12178 3.24574 6.99802 3.02572C6.871 2.7999 6.75 2.51322 6.75 2.18744C6.75 1.97629 6.82285 1.7731 6.88337 1.63188C6.94989 1.47666 7.03411 1.32376 7.11141 1.19492C7.18976 1.06433 7.2672 0.948258 7.32463 0.86531C7.35353 0.823564 7.37782 0.789539 7.39524 0.765491L7.42395 0.726345L7.42482 0.72519C7.61121 0.476662 7.96397 0.426048 8.2125 0.612444C8.46093 0.798763 8.5112 1.15134 8.32507 1.39985Z" fill="black"/>
<path d="M11.7001 1.39985L11.6963 1.40489L11.6814 1.42531C11.6681 1.44375 11.6484 1.47125 11.6246 1.50567C11.5765 1.57507 11.5134 1.66993 11.4511 1.77372C11.3878 1.87926 11.3314 1.98417 11.2924 2.07504C11.2639 2.14163 11.2545 2.17852 11.2514 2.19051C11.2507 2.19335 11.2501 2.19491 11.2501 2.19491C11.2521 2.24541 11.2737 2.33225 11.3535 2.47417C11.4375 2.62346 11.5542 2.78058 11.7 2.97494L11.7103 2.98867C11.8437 3.16657 12.0032 3.37916 12.127 3.59917C12.254 3.82499 12.375 4.11167 12.375 4.43744C12.375 4.6486 12.3021 4.85179 12.2416 4.99301C12.1751 5.14823 12.0909 5.30113 12.0136 5.42997C11.9352 5.56056 11.8578 5.67663 11.8004 5.75958C11.7715 5.80132 11.7472 5.83535 11.7298 5.8594L11.709 5.88786L11.7029 5.89605L11.701 5.89854L11.7002 5.8997C11.5138 6.14823 11.161 6.19884 10.9125 6.01244C10.6641 5.82612 10.6136 5.47375 10.7998 5.22524L10.8037 5.22L10.8186 5.19957C10.8319 5.18114 10.8516 5.15364 10.8754 5.11922C10.9235 5.04982 10.9866 4.95495 11.0489 4.85116C11.1122 4.74563 11.1686 4.64072 11.2076 4.54985C11.2361 4.48326 11.2455 4.44638 11.2486 4.43438C11.2493 4.43154 11.2499 4.42998 11.2499 4.42998C11.2479 4.37948 11.2263 4.29264 11.1465 4.15072C11.0625 4.00142 10.9458 3.84431 10.8 3.64994L10.7897 3.63621C10.6562 3.45832 10.4968 3.24574 10.373 3.02572C10.246 2.7999 10.125 2.51322 10.125 2.18744C10.125 1.97629 10.1979 1.7731 10.2584 1.63188C10.3249 1.47666 10.4091 1.32376 10.4864 1.19492C10.5648 1.06433 10.6422 0.948258 10.6996 0.86531C10.7285 0.823564 10.7528 0.789539 10.7702 0.765491L10.799 0.726345L10.7998 0.72519C10.9862 0.476662 11.339 0.426048 11.5875 0.612444C11.8359 0.798763 11.8862 1.15134 11.7001 1.39985Z" fill="black"/>
</svg>
