<svg width="18" height="19" viewBox="0 0 18 19" fill="none" xmlns="http://www.w3.org/2000/svg">
<g clip-path="url(#clip0_2570_36708)">
<path d="M8.99988 4.34155L8.19326 3.51243C6.29988 1.56618 2.82813 2.2378 1.57488 4.68468C0.986507 5.83555 0.853757 7.49718 1.92813 9.6178C2.96313 11.6597 5.11638 14.1054 8.99988 16.7694C12.8834 14.1054 15.0355 11.6597 16.0716 9.6178C17.146 7.49605 17.0144 5.83555 16.4249 4.68468C15.1716 2.2378 11.6999 1.56505 9.80651 3.5113L8.99988 4.34155ZM8.99988 18.1251C-8.24974 6.72655 3.68876 -2.16995 8.80188 2.53593C8.86938 2.5978 8.93576 2.66193 8.99988 2.7283C9.06336 2.66199 9.12941 2.59819 9.19788 2.53705C14.3099 -2.17219 26.2495 6.72543 8.99988 18.1251Z" fill="#1C2026"/>
</g>
<defs>
<clipPath id="clip0_2570_36708">
<rect width="18" height="18" fill="white" transform="translate(0 0.5)"/>
</clipPath>
</defs>
</svg>
