<svg width="18" height="19" viewBox="0 0 18 19" fill="none" xmlns="http://www.w3.org/2000/svg">
<path fill-rule="evenodd" clip-rule="evenodd" d="M5.62522 13.4375C5.62522 13.2883 5.68449 13.1453 5.78998 13.0398C5.89546 12.9343 6.03854 12.875 6.18772 12.875H16.3127C16.4619 12.875 16.605 12.9343 16.7105 13.0398C16.816 13.1453 16.8752 13.2883 16.8752 13.4375C16.8752 13.5867 16.816 13.7298 16.7105 13.8353C16.605 13.9408 16.4619 14 16.3127 14H6.18772C6.03854 14 5.89546 13.9408 5.78998 13.8353C5.68449 13.7298 5.62522 13.5867 5.62522 13.4375ZM5.62522 8.93753C5.62522 8.78834 5.68449 8.64527 5.78998 8.53978C5.89546 8.43429 6.03854 8.37503 6.18772 8.37503H16.3127C16.4619 8.37503 16.605 8.43429 16.7105 8.53978C16.816 8.64527 16.8752 8.78834 16.8752 8.93753C16.8752 9.08671 16.816 9.22979 16.7105 9.33528C16.605 9.44077 16.4619 9.50003 16.3127 9.50003H6.18772C6.03854 9.50003 5.89546 9.44077 5.78998 9.33528C5.68449 9.22979 5.62522 9.08671 5.62522 8.93753ZM5.62522 4.43753C5.62522 4.28834 5.68449 4.14527 5.78998 4.03978C5.89546 3.93429 6.03854 3.87503 6.18772 3.87503H16.3127C16.4619 3.87503 16.605 3.93429 16.7105 4.03978C16.816 4.14527 16.8752 4.28834 16.8752 4.43753C16.8752 4.58671 16.816 4.72979 16.7105 4.83528C16.605 4.94077 16.4619 5.00003 16.3127 5.00003H6.18772C6.03854 5.00003 5.89546 4.94077 5.78998 4.83528C5.68449 4.72979 5.62522 4.58671 5.62522 4.43753ZM4.33597 2.91428C4.38836 2.96653 4.42992 3.0286 4.45827 3.09694C4.48663 3.16528 4.50123 3.23854 4.50123 3.31253C4.50123 3.38652 4.48663 3.45978 4.45827 3.52812C4.42992 3.59646 4.38836 3.65853 4.33597 3.71078L2.64847 5.39828C2.59622 5.45066 2.53415 5.49222 2.46581 5.52058C2.39747 5.54894 2.32421 5.56353 2.25022 5.56353C2.17623 5.56353 2.10297 5.54894 2.03463 5.52058C1.9663 5.49222 1.90422 5.45066 1.85197 5.39828L1.28947 4.83578C1.23717 4.78348 1.19569 4.72139 1.16738 4.65306C1.13908 4.58473 1.12451 4.51149 1.12451 4.43753C1.12451 4.36357 1.13908 4.29033 1.16738 4.222C1.19569 4.15367 1.23717 4.09158 1.28947 4.03928C1.34177 3.98698 1.40386 3.94549 1.47219 3.91719C1.54052 3.88889 1.61376 3.87432 1.68772 3.87432C1.76168 3.87432 1.83492 3.88889 1.90325 3.91719C1.97159 3.94549 2.03367 3.98698 2.08597 4.03928L2.25022 4.20465L3.53947 2.91428C3.59172 2.8619 3.6538 2.82033 3.72213 2.79198C3.79047 2.76362 3.86373 2.74902 3.93772 2.74902C4.01171 2.74902 4.08497 2.76362 4.15331 2.79198C4.22165 2.82033 4.28372 2.8619 4.33597 2.91428ZM4.33597 7.41428C4.38836 7.46653 4.42992 7.5286 4.45827 7.59694C4.48663 7.66528 4.50123 7.73854 4.50123 7.81253C4.50123 7.88652 4.48663 7.95978 4.45827 8.02812C4.42992 8.09646 4.38836 8.15853 4.33597 8.21078L2.64847 9.89828C2.59622 9.95066 2.53415 9.99222 2.46581 10.0206C2.39747 10.0489 2.32421 10.0635 2.25022 10.0635C2.17623 10.0635 2.10297 10.0489 2.03463 10.0206C1.9663 9.99222 1.90422 9.95066 1.85197 9.89828L1.28947 9.33578C1.18385 9.23016 1.12451 9.0869 1.12451 8.93753C1.12451 8.78816 1.18385 8.6449 1.28947 8.53928C1.39509 8.43366 1.53835 8.37432 1.68772 8.37432C1.8371 8.37432 1.98035 8.43366 2.08597 8.53928L2.25022 8.70465L3.53947 7.41428C3.59172 7.3619 3.6538 7.32033 3.72213 7.29198C3.79047 7.26362 3.86373 7.24902 3.93772 7.24902C4.01171 7.24902 4.08497 7.26362 4.15331 7.29198C4.22165 7.32033 4.28372 7.3619 4.33597 7.41428ZM4.33597 11.9143C4.38836 11.9665 4.42992 12.0286 4.45827 12.0969C4.48663 12.1653 4.50123 12.2385 4.50123 12.3125C4.50123 12.3865 4.48663 12.4598 4.45827 12.5281C4.42992 12.5965 4.38836 12.6585 4.33597 12.7108L2.64847 14.3983C2.59622 14.4507 2.53415 14.4922 2.46581 14.5206C2.39747 14.5489 2.32421 14.5635 2.25022 14.5635C2.17623 14.5635 2.10297 14.5489 2.03463 14.5206C1.9663 14.4922 1.90422 14.4507 1.85197 14.3983L1.28947 13.8358C1.18385 13.7302 1.12451 13.5869 1.12451 13.4375C1.12451 13.2882 1.18385 13.1449 1.28947 13.0393C1.39509 12.9337 1.53835 12.8743 1.68772 12.8743C1.8371 12.8743 1.98035 12.9337 2.08597 13.0393L2.25022 13.2047L3.53947 11.9143C3.59172 11.8619 3.6538 11.8203 3.72213 11.792C3.79047 11.7636 3.86373 11.749 3.93772 11.749C4.01171 11.749 4.08497 11.7636 4.15331 11.792C4.22165 11.8203 4.28372 11.8619 4.33597 11.9143Z" fill="#1C2026"/>
</svg>
