<svg width="25" height="24" viewBox="0 0 25 24" fill="none" xmlns="http://www.w3.org/2000/svg">
<g clip-path="url(#clip0_4255_87375)">
<path d="M22.7676 21C22.7676 21 24.2676 21 24.2676 19.5C24.2676 18 22.7676 13.5 16.7676 13.5C10.7676 13.5 9.26758 18 9.26758 19.5C9.26758 21 10.7676 21 10.7676 21H22.7676ZM10.8006 19.5C10.7895 19.4985 10.7785 19.4965 10.7676 19.494C10.7691 19.098 11.0181 17.949 11.9076 16.914C12.7356 15.9435 14.1906 15 16.7676 15C19.3431 15 20.7981 15.945 21.6276 16.914C22.5171 17.949 22.7646 19.0995 22.7676 19.494L22.7556 19.497C22.7486 19.4982 22.7416 19.4992 22.7346 19.5H10.8006ZM16.7676 10.5C17.5632 10.5 18.3263 10.1839 18.8889 9.62132C19.4515 9.05871 19.7676 8.29565 19.7676 7.5C19.7676 6.70435 19.4515 5.94129 18.8889 5.37868C18.3263 4.81607 17.5632 4.5 16.7676 4.5C15.9719 4.5 15.2089 4.81607 14.6463 5.37868C14.0836 5.94129 13.7676 6.70435 13.7676 7.5C13.7676 8.29565 14.0836 9.05871 14.6463 9.62132C15.2089 10.1839 15.9719 10.5 16.7676 10.5ZM21.2676 7.5C21.2676 8.09095 21.1512 8.67611 20.925 9.22208C20.6989 9.76804 20.3674 10.2641 19.9496 10.682C19.5317 11.0998 19.0356 11.4313 18.4897 11.6575C17.9437 11.8836 17.3585 12 16.7676 12C16.1766 12 15.5915 11.8836 15.0455 11.6575C14.4995 11.4313 14.0035 11.0998 13.5856 10.682C13.1677 10.2641 12.8363 9.76804 12.6101 9.22208C12.384 8.67611 12.2676 8.09095 12.2676 7.5C12.2676 6.30653 12.7417 5.16193 13.5856 4.31802C14.4295 3.47411 15.5741 3 16.7676 3C17.9611 3 19.1056 3.47411 19.9496 4.31802C20.7935 5.16193 21.2676 6.30653 21.2676 7.5ZM10.6716 13.92C10.0716 13.7311 9.45303 13.6069 8.82658 13.5495C8.47458 13.516 8.12117 13.4995 7.76758 13.5C1.76758 13.5 0.267578 18 0.267578 19.5C0.267578 20.5005 0.767078 21 1.76758 21H8.09158C7.86921 20.5317 7.75831 20.0183 7.76758 19.5C7.76758 17.985 8.33308 16.437 9.40258 15.144C9.76708 14.703 10.1916 14.2905 10.6716 13.92ZM7.64758 15C6.75981 16.3339 6.28024 17.8977 6.26758 19.5H1.76758C1.76758 19.11 2.01358 17.955 2.90758 16.914C3.72508 15.96 5.14558 15.03 7.64758 15.0015V15ZM2.51758 8.25C2.51758 7.05653 2.99168 5.91193 3.8356 5.06802C4.67951 4.22411 5.8241 3.75 7.01758 3.75C8.21105 3.75 9.35565 4.22411 10.1996 5.06802C11.0435 5.91193 11.5176 7.05653 11.5176 8.25C11.5176 9.44347 11.0435 10.5881 10.1996 11.432C9.35565 12.2759 8.21105 12.75 7.01758 12.75C5.8241 12.75 4.67951 12.2759 3.8356 11.432C2.99168 10.5881 2.51758 9.44347 2.51758 8.25ZM7.01758 5.25C6.22193 5.25 5.45887 5.56607 4.89626 6.12868C4.33365 6.69129 4.01758 7.45435 4.01758 8.25C4.01758 9.04565 4.33365 9.80871 4.89626 10.3713C5.45887 10.9339 6.22193 11.25 7.01758 11.25C7.81323 11.25 8.57629 10.9339 9.1389 10.3713C9.70151 9.80871 10.0176 9.04565 10.0176 8.25C10.0176 7.45435 9.70151 6.69129 9.1389 6.12868C8.57629 5.56607 7.81323 5.25 7.01758 5.25Z" fill="white"/>
</g>
<defs>
<clipPath id="clip0_4255_87375">
<rect width="24" height="24" fill="white" transform="translate(0.267578)"/>
</clipPath>
</defs>
</svg>
