<svg width="20" height="20" viewBox="0 0 20 20" fill="none" xmlns="http://www.w3.org/2000/svg">
<g clip-path="url(#clip0_4291_202672)">
<path d="M3.58253 18.562C3.48503 19.117 4.03253 19.5507 4.51503 19.3032L10.0025 16.4832L15.4888 19.3032C15.9713 19.5507 16.5188 19.117 16.4213 18.5632L15.3838 12.6507L19.7863 8.45573C20.1988 8.06323 19.9863 7.34573 19.4338 7.26823L13.3113 6.39823L10.5813 0.989477C10.5293 0.879838 10.4472 0.787205 10.3447 0.722342C10.2421 0.657479 10.1232 0.623047 10.0019 0.623047C9.88055 0.623047 9.7617 0.657479 9.65914 0.722342C9.55658 0.787205 9.47453 0.879838 9.42253 0.989477L6.69253 6.39948L0.570026 7.26948C0.0187758 7.34698 -0.194974 8.06448 0.216276 8.45698L4.62003 12.652L3.58253 18.5645V18.562ZM9.71378 15.1032L5.10628 17.4707L5.97378 12.5245C5.9941 12.4106 5.98615 12.2935 5.95062 12.1834C5.91509 12.0734 5.85308 11.9737 5.77003 11.8932L2.13753 8.43073L7.20253 7.71073C7.30741 7.69489 7.40689 7.65386 7.49244 7.59117C7.578 7.52847 7.64708 7.44597 7.69378 7.35073L10 2.77823L12.3088 7.35073C12.3555 7.44597 12.4246 7.52847 12.5101 7.59117C12.5957 7.65386 12.6951 7.69489 12.8 7.71073L17.865 8.42948L14.2325 11.892C14.1493 11.9726 14.0871 12.0725 14.0516 12.1828C14.0161 12.2931 14.0082 12.4104 14.0288 12.5245L14.8963 17.4707L10.2888 15.1032C10.1997 15.0573 10.1009 15.0333 10.0007 15.0333C9.90041 15.0333 9.80162 15.0573 9.71253 15.1032H9.71378Z" fill="#5E5E5E"/>
</g>
<defs>
<clipPath id="clip0_4291_202672">
<rect width="20" height="20" fill="white"/>
</clipPath>
</defs>
</svg>
